{
.formatVersion = 3;
axes = (
{
name = Weight;
tag = wght;
},
{
name = Width;
tag = wdth;
}
);
classes = (
{
code = "space numbersign dollar cent currency Euro percent plus comma period semicolon less equal greater g o x asciitilde sterling section logicalnot plusminus multiply agrave aacute acircumflex atilde adieresis aring ae divide dotlessi aogonek abreve Tcedilla tcedilla Scedilla scedilla amacron gcommaaccent gbreve greaterequal lessequal approxequal notequal one.tf two.tf three.tf four.tf five.tf six.tf seven.tf eight.tf nine.tf period.tf comma.tf colon.tf semicolon.tf numbersign.tf colon.time space.tf cent.tf currency.tf dollar.tf Euro.tf sterling.tf plus.tf minus.tf multiply.tf divide.tf equal.tf notequal.tf greater.tf less.tf greaterequal.tf lessequal.tf plusminus.tf approxequal.tf logicalnot.tf percent.tf section.tf zeroslash zeroslash.tf acaron gdotaccent adotbelow baht-thai baht-thai.tf indianrupee won indianrupee.tf won.tf";
name = aalt;
},
{
code = "space.tf numbersign.tf dollar.tf cent.tf currency.tf Euro.tf percent.tf plus.tf comma.tf period.tf semicolon.tf less.tf equal.tf greater.tf g.alt ordmasculine xsupmod wiggle.medium sterling.tf section.tf logicalnot.tf plusminus.tf multiply.tf agrave.alt aacute.alt acircumflex.alt atilde.alt adieresis.alt aring.alt ae.alt divide.tf i aogonek.alt abreve.alt Tcommaaccent tcommaaccent Scommaaccent scommaaccent amacron.alt gcommaaccent.alt gbreve.alt greaterequal.tf lessequal.tf approxequal.tf notequal.tf one two three four five six seven eight nine period comma colon semicolon numbersign colon.tf space cent currency dollar Euro sterling plus minus multiply divide equal notequal greater less greaterequal lessequal plusminus approxequal logicalnot percent section zeroslash.tf zeroslash acaron.alt gdotaccent.alt adotbelow.alt baht-thai.tf baht-thai indianrupee.tf won.tf indianrupee won";
name = aalt2;
},
{
code = "zero one two three four five six seven eight nine zeroslash";
name = calt_ordn;
},
{

glyphs = (
{
glyphname = .notdef;
layers = (
{
layerId = "273C7328-CB47-413D-AC7C-0BE6F8E8A458";
shapes = (
{
closed = 1;
nodes = (
(197,0,l),
(197,1432,l),
(1049,1432,l),
(1049,0,l)
);
},
{
closed = 1;
nodes = (
(325,120,l),
(921,120,l),
(921,1312,l),
(325,1312,l)
);
}
);
width = 1140;
},
{
layerId = "A94F09BD-5AF2-4283-88E8-66664EC1ECC6";
shapes = (
{
closed = 1;
nodes = (
(197,0,l),
(197,1432,l),
(1049,1432,l),
(1049,0,l)
);
},
{
closed = 1;
nodes = (
(325,120,l),
(921,120,l),
(921,1312,l),
(325,1312,l)
);
}
);
width = 1140;
},
{
layerId = "44639B77-8764-4A8F-BB1F-F8171CA5D8DC";
shapes = (
{
closed = 1;
nodes = (
(197,0,l),
(197,1432,l),
(1049,1432,l),
(1049,0,l)
);
},
{
closed = 1;
nodes = (
(325,120,l),
(921,120,l),
(921,1312,l),
(325,1312,l)
);
}
);
width = 1140;
},
{
layerId = "817588ED-5808-41C3-839F-29DF09BEEDB0";
shapes = (
{
closed = 1;
nodes = (
(197,0,l),
(197,1432,l),
(1049,1432,l),
(1049,0,l)
);
},
{
closed = 1;
nodes = (
(325,120,l),
(921,120,l),
(921,1312,l),
(325,1312,l)
);
}
);
width = 1140;
},
{
layerId = "EDA62EAC-6B85-401B-87A5-B3BF46271524";
shapes = (
{
closed = 1;
nodes = (
(197,0,l),
(197,1432,l),
(1049,1432,l),
(1049,0,l)
);
},
{
closed = 1;
nodes = (
(325,120,l),
(921,120,l),
(921,1312,l),
(325,1312,l)
);
}
);
width = 1140;
},
{
layerId = "39C1B3C2-F87B-41E1-BD8E-10B05E3B9737";
shapes = (
{
closed = 1;
nodes = (
(197,0,l),
(197,1432,l),
(1049,1432,l),
(1049,0,l)
);
},
{
closed = 1;
nodes = (
(325,120,l),
(921,120,l),
(921,1312,l),
(325,1312,l)
);
}
);
width = 1140;
}
);
},
{
glyphname = exclam;
layers = (
{
layerId = "273C7328-CB47-413D-AC7C-0BE6F8E8A458";
shapes = (
{
closed = 1;
nodes = (
(204,380,l),
(204,380,o),
(204,380,o),
(204,380,q),
(495,1432,l),
(495,1432,o),
(495,1432,o),
(495,1432,q),
(567,1432,l),
(567,1432,o),
(567,1432,o),
(567,1432,q),
(261,380,l),
(261,380,o),
(261,380,o),
(261,380,q)
);
},
{
closed = 1;
nodes = (
(107,-12,o),
(54,42,o),
(54,83,qs),
(54,121,o),
(107,175,o),
(146,175,qs),
(185,175,o),
(240,121,o),
(240,83,qs),
(240,42,o),
(185,-12,o),
(147,-12,qs)
);
}
);
width = 542;
},
{
layerId = "A94F09BD-5AF2-4283-88E8-66664EC1ECC6";
shapes = (
{
closed = 1;
nodes = (
(189,427,l),
(189,427,o),
(189,427,o),
(189,427,q),
(453,1432,l),
(453,1432,o),
(453,1432,o),
(453,1432,q),
(662,1432,l),
(662,1432,o),
(662,1432,o),
(662,1432,q),
(358,427,l),
(358,427,o),
(358,427,o),
(358,427,q)
);
},
{
closed = 1;
nodes = (
(131,-15,o),
(50,67,o),
(50,128,qs),
(50,185,o),
(131,266,o),
(190,266,qs),
(248,266,o),
(331,185,o),
(331,128,qs),
(331,67,o),
(248,-15,o),
(190,-15,qs)
);
}
);
width = 609;
},
{
layerId = "44639B77-8764-4A8F-BB1F-F8171CA5D8DC";
shapes = (
{
closed = 1;
nodes = (
(188,506,l),
(188,506,o),
(188,506,o),
(188,506,q),
(388,1432,l),
(388,1432,o),
(388,1432,o),
(388,1432,q),
(851,1432,l),
(851,1432,o),
(851,1432,o),
(851,1432,q),
(529,506,l),
(529,506,o),
(529,506,o),
(529,506,q)
);
},
{
closed = 1;
nodes = (
(173,-26,o),
(39,106,o),
(39,200,qs),
(39,294,o),
(174,422,o),
(272,422,qs),
(369,422,o),
(506,294,o),
(506,200,qs),
(506,106,o),
(370,-26,o),
(272,-26,qs)
);
}
);
width = 732;
},
{
layerId = "817588ED-5808-41C3-839F-29DF09BEEDB0";
shapes = (
{
closed = 1;
nodes = (
(177,506,l),
(177,506,o),
(177,506,o),
(177,506,q),
(379,1432,l),
(379,1432,o),
(379,1432,o),
(379,1432,q),
(832,1432,l),
(832,1432,o),
(832,1432,o),
(832,1432,q),
(512,506,l),
(512,506,o),
(512,506,o),
(512,506,q)
);
},
{
closed = 1;
nodes = (
(160,-25,o),
(28,106,o),
(28,199,qs),
(28,292,o),
(161,420,o),
(257,420,qs),
(354,420,o),
(489,293,o),
(489,199,qs),
(489,106,o),
(355,-25,o),
(258,-25,qs)
);
}
);
width = 704;
},
{
layerId = "EDA62EAC-6B85-401B-87A5-B3BF46271524";
shapes = (
{
closed = 1;
nodes = (
(170,427,l),
(170,427,o),
(170,427,o),
(170,427,q),
(435,1432,l),
(435,1432,o),
(435,1432,o),
(435,1432,q),
(638,1432,l),
(638,1432,o),
(638,1432,o),
(638,1432,q),
(335,427,l),
(335,427,o),
(335,427,o),
(335,427,q)
);
},
{
closed = 1;
nodes = (
(111,-14,o),
(31,67,o),
(31,127,qs),
(31,183,o),
(111,263,o),
(169,263,qs),
(226,263,o),
(308,183,o),
(308,127,qs),
(308,67,o),
(227,-14,o),
(169,-14,qs)
);
}
);
width = 567;
},
{
layerId = "39C1B3C2-F87B-41E1-BD8E-10B05E3B9737";
shapes = (
{
closed = 1;
nodes = (
(190,380,l),
(190,380,o),
(190,380,o),
(190,380,q),
(482,1432,l),
(482,1432,o),
(482,1432,o),
(482,1432,q),
(553,1432,l),
(553,1432,o),
(553,1432,o),
(553,1432,q),
(248,380,l),
(248,380,o),
(248,380,o),
(248,380,q)
);
},
{
closed = 1;
nodes = (
(94,-11,o),
(42,43,o),
(42,83,qs),
(42,120,o),
(94,174,o),
(132,174,qs),
(171,174,o),
(225,121,o),
(225,83,qs),
(225,43,o),
(172,-11,o),
(133,-11,qs)
);
}
);
width = 515;
}
);
unicode = 33;
},
{
glyphname = quotedbl;
layers = (
{
layerId = "273C7328-CB47-413D-AC7C-0BE6F8E8A458";
shapes = (
{
closed = 1;
nodes = (
(350,976,l),
(350,976,o),
(350,976,o),
(350,976,q),
(490,1473,l),
(490,1473,o),
(490,1473,o),
(490,1473,q),
(557,1473,l),
(557,1473,o),
(557,1473,o),
(557,1473,q),
(417,976,l),
(417,976,o),
(417,976,o),
(417,976,q)
);
},
{
closed = 1;
nodes = (
(684,976,l),
(684,976,o),
(684,976,o),
(684,976,q),
(824,1473,l),
(824,1473,o),
(824,1473,o),
(824,1473,q),
(893,1473,l),
(893,1473,o),
(893,1473,o),
(893,1473,q),
(751,976,l),
(751,976,o),
(751,976,o),
(751,976,q)
);
}
);
width = 841;
},
{
layerId = "A94F09BD-5AF2-4283-88E8-66664EC1ECC6";
shapes = (
{
closed = 1;
nodes = (
(302,941,l),
(302,941,o),
(302,941,o),
(302,941,q),
(447,1473,l),
(447,1473,o),
(447,1473,o),
(447,1473,q),
(613,1473,l),
(613,1473,o),
(613,1473,o),
(613,1473,q),
(467,941,l),
(467,941,o),
(467,941,o),
(467,941,q)
);
},
{
closed = 1;
nodes = (
(661,941,l),
(661,941,o),
(661,941,o),
(661,941,q),
(806,1473,l),
(806,1473,o),
(806,1473,o),
(806,1473,q),
(972,1473,l),
(972,1473,o),
(972,1473,o),
(972,1473,q),
(826,941,l),
(826,941,o),
(826,941,o),
(826,941,q)
);
}
);
width = 889;
},
{
layerId = "44639B77-8764-4A8F-BB1F-F8171CA5D8DC";
shapes = (
{
closed = 1;
nodes = (
(282,878,l),
(282,878,o),
(282,878,o),
(282,878,q),
(431,1473,l),
(431,1473,o),
(431,1473,o),
(431,1473,q),
(768,1473,l),
(768,1473,o),
(768,1473,o),
(768,1473,q),
(619,878,l),
(619,878,o),
(619,878,o),
(619,878,q)
);
},
{
closed = 1;
nodes = (
(747,878,l),
(747,878,o),
(747,878,o),
(747,878,q),
(896,1473,l),
(896,1473,o),
(896,1473,o),
(896,1473,q),
(1234,1473,l),
(1234,1473,o),
(1234,1473,o),
(1234,1473,q),
(1085,878,l),
(1085,878,o),
(1085,878,o),
(1085,878,q)
);
}
);
width = 1150;
},
{
layerId = "817588ED-5808-41C3-839F-29DF09BEEDB0";
shapes = (
{
closed = 1;
nodes = (
(274,892,l),
(274,892,o),
(274,892,o),
(274,892,q),
(420,1473,l),
(420,1473,o),
(420,1473,o),
(420,1473,q),
(745,1473,l),
(745,1473,o),
(745,1473,o),
(745,1473,q),
(599,892,l),
(599,892,o),
(599,892,o),
(599,892,q)
);
},
{
closed = 1;
nodes = (
(718,892,l),
(718,892,o),
(718,892,o),
(718,892,q),
(864,1473,l),
(864,1473,o),
(864,1473,o),
(864,1473,q),
(1191,1473,l),
(1191,1473,o),
(1191,1473,o),
(1191,1473,q),
(1045,892,l),
(1045,892,o),
(1045,892,o),
(1045,892,q)
);
}
);
width = 1094;
},
{
layerId = "EDA62EAC-6B85-401B-87A5-B3BF46271524";
shapes = (
{
closed = 1;
nodes = (
(298,953,l),
(298,953,o),
(298,953,o),
(298,953,q),
(439,1473,l),
(439,1473,o),
(439,1473,o),
(439,1473,q),
(603,1473,l),
(603,1473,o),
(603,1473,o),
(603,1473,q),
(462,953,l),
(462,953,o),
(462,953,o),
(462,953,q)
);
},
{
closed = 1;
nodes = (
(637,953,l),
(637,953,o),
(637,953,o),
(637,953,q),
(778,1473,l),
(778,1473,o),
(778,1473,o),
(778,1473,q),
(941,1473,l),
(941,1473,o),
(941,1473,o),
(941,1473,q),
(800,953,l),
(800,953,o),
(800,953,o),
(800,953,q)
);
}
);
width = 851;
},
{
layerId = "39C1B3C2-F87B-41E1-BD8E-10B05E3B9737";
shapes = (
{
closed = 1;
nodes = (
(343,986,l),
(343,986,o),
(343,986,o),
(343,986,q),
(479,1473,l),
(479,1473,o),
(479,1473,o),
(479,1473,q),
(546,1473,l),
(546,1473,o),
(546,1473,o),
(546,1473,q),
(410,986,l),
(410,986,o),
(410,986,o),
(410,986,q)
);
},
{
closed = 1;
nodes = (
(658,986,l),
(658,986,o),
(658,986,o),
(658,986,q),
(796,1473,l),
(796,1473,o),
(796,1473,o),
(796,1473,q),
(862,1473,l),
(862,1473,o),
(862,1473,o),
(862,1473,q),
(724,986,l),
(724,986,o),
(724,986,o),
(724,986,q)
);
}
);
width = 800;
}
);
leftKerningGroup = public.kern2.quotedbl2;
rightKerningGroup = public.kern1.quotedbl;
unicode = 34;
},
{
glyphname = numbersign;
layers = (
{
layerId = "273C7328-CB47-413D-AC7C-0BE6F8E8A458";
shapes = (
{
closed = 1;
nodes = (
(603,-18,l),
(603,-18,o),
(603,-18,o),
(603,-18,q),
(1233,1451,l),
(1233,1451,o),
(1233,1451,o),
(1233,1451,q),
(1297,1451,l),
(1297,1451,o),
(1297,1451,o),
(1297,1451,q),
(665,-18,l),
(665,-18,o),
(665,-18,o),
(665,-18,q)
);
},
{
closed = 1;
nodes = (
(143,-18,l),
(143,-18,o),
(143,-18,o),
(143,-18,q),
(771,1452,l),
(771,1452,o),
(771,1452,o),
(771,1452,q),
(837,1452,l),
(837,1452,o),
(837,1452,o),
(837,1452,q),
(208,-18,l),
(208,-18,o),
(208,-18,o),
(208,-18,q)
);
},
{
closed = 1;
nodes = (
(58,440,l),
(58,440,o),
(58,440,o),
(58,440,q),
(83,498,l),
(83,498,o),
(83,498,o),
(83,498,q),
(1173,498,l),
(1173,498,o),
(1173,498,o),
(1173,498,q),
(1145,440,l),
(1145,440,o),
(1145,440,o),
(1145,440,q)
);
},
{
closed = 1;
nodes = (
(267,930,l),
(267,930,o),
(267,930,o),
(267,930,q),
(293,988,l),
(293,988,o),
(293,988,o),
(293,988,q),
(1379,988,l),
(1379,988,o),
(1379,988,o),
(1379,988,q),
(1353,930,l),
(1353,930,o),
(1353,930,o),
(1353,930,q)
);
}
);
width = 1328;
},
{
layerId = "A94F09BD-5AF2-4283-88E8-66664EC1ECC6";
shapes = (
{
closed = 1;
nodes = (
(575,-22,l),
(575,-22,o),
(575,-22,o),
(575,-22,q),
(1212,1455,l),
(1212,1455,o),
(1212,1455,o),
(1212,1455,q),
(1378,1455,l),
(1378,1455,o),
(1378,1455,o),
(1378,1455,q),
(740,-22,l),
(740,-22,o),
(740,-22,o),
(740,-22,q)
);
},
{
closed = 1;
nodes = (
(102,-22,l),
(102,-22,o),
(102,-22,o),
(102,-22,q),
(738,1455,l),
(738,1455,o),
(738,1455,o),
(738,1455,q),
(907,1455,l),
(907,1455,o),
(907,1455,o),
(907,1455,q),
(270,-22,l),
(270,-22,o),
(270,-22,o),
(270,-22,q)
);
},
{
closed = 1;
nodes = (
(25,380,l),
(25,380,o),
(25,380,o),
(25,380,q),
(94,536,l),
(94,536,o),
(94,536,o),
(94,536,q),
(1232,536,l),
(1232,536,o),
(1232,536,o),
(1232,536,q),
(1165,380,l),
(1165,380,o),
(1165,380,o),
(1165,380,q)
);
},
{
closed = 1;
nodes = (
(241,888,l),
(241,888,o),
(241,888,o),
(241,888,q),
(311,1044,l),
(311,1044,o),
(311,1044,o),
(311,1044,q),
(1448,1044,l),
(1448,1044,o),
(1448,1044,o),
(1448,1044,q),
(1380,888,l),
(1380,888,o),
(1380,888,o),
(1380,888,q)
);
}
);
width = 1371;
},
{
layerId = "44639B77-8764-4A8F-BB1F-F8171CA5D8DC";
shapes = (
{
closed = 1;
nodes = (
(592,-23,l),
(592,-23,o),
(592,-23,o),
(592,-23,q),
(1240,1456,l),
(1240,1456,o),
(1240,1456,o),
(1240,1456,q),
(1547,1456,l),
(1547,1456,o),
(1547,1456,o),
(1547,1456,q),
(895,-23,l),
(895,-23,o),
(895,-23,o),
(895,-23,q)
);
},
{
closed = 1;
nodes = (
(79,-23,l),
(79,-23,o),
(79,-23,o),
(79,-23,q),
(725,1456,l),
(725,1456,o),
(725,1456,o),
(725,1456,q),
(1035,1456,l),
(1035,1456,o),
(1035,1456,o),
(1035,1456,q),
(385,-23,l),
(385,-23,o),
(385,-23,o),
(385,-23,q)
);
},
{
closed = 1;
nodes = (
(-24,269,l),
(-24,269,o),
(-24,269,o),
(-24,269,q),
(108,571,l),
(108,571,o),
(108,571,o),
(108,571,q),
(1395,571,l),
(1395,571,o),
(1395,571,o),
(1395,571,q),
(1263,269,l),
(1263,269,o),
(1263,269,o),
(1263,269,q)
);
},
{
closed = 1;
nodes = (
(230,851,l),
(230,851,o),
(230,851,o),
(230,851,q),
(360,1153,l),
(360,1153,o),
(360,1153,o),
(360,1153,q),
(1648,1153,l),
(1648,1153,o),
(1648,1153,o),
(1648,1153,q),
(1515,851,l),
(1515,851,o),
(1515,851,o),
(1515,851,q)
);
}
);
width = 1524;
},
{
layerId = "817588ED-5808-41C3-839F-29DF09BEEDB0";
shapes = (
{
closed = 1;
nodes = (
(543,-22,l),
(543,-22,o),
(543,-22,o),
(543,-22,q),
(1181,1455,l),
(1181,1455,o),
(1181,1455,o),
(1181,1455,q),
(1480,1455,l),
(1480,1455,o),
(1480,1455,o),
(1480,1455,q),
(839,-22,l),
(839,-22,o),
(839,-22,o),
(839,-22,q)
);
},
{
closed = 1;
nodes = (
(63,-22,l),
(63,-22,o),
(63,-22,o),
(63,-22,q),
(700,1455,l),
(700,1455,o),
(700,1455,o),
(700,1455,q),
(1000,1455,l),
(1000,1455,o),
(1000,1455,o),
(1000,1455,q),
(359,-22,l),
(359,-22,o),
(359,-22,o),
(359,-22,q)
);
},
{
closed = 1;
nodes = (
(-28,273,l),
(-28,273,o),
(-28,273,o),
(-28,273,q),
(98,571,l),
(98,571,o),
(98,571,o),
(98,571,q),
(1318,571,l),
(1318,571,o),
(1318,571,o),
(1318,571,q),
(1191,273,l),
(1191,273,o),
(1191,273,o),
(1191,273,q)
);
},
{
closed = 1;
nodes = (
(223,852,l),
(223,852,o),
(223,852,o),
(223,852,q),
(350,1151,l),
(350,1151,o),
(350,1151,o),
(350,1151,q),
(1569,1151,l),
(1569,1151,o),
(1569,1151,o),
(1569,1151,q),
(1440,852,l),
(1440,852,o),
(1440,852,o),
(1440,852,q)
);
}
);
width = 1440;
},
{
layerId = "EDA62EAC-6B85-401B-87A5-B3BF46271524";
shapes = (
{
closed = 1;
nodes = (
(498,-20,l),
(498,-20,o),
(498,-20,o),
(498,-20,q),
(1123,1453,l),
(1123,1453,o),
(1123,1453,o),
(1123,1453,q),
(1288,1453,l),
(1288,1453,o),
(1288,1453,o),
(1288,1453,q),
(662,-20,l),
(662,-20,o),
(662,-20,o),
(662,-20,q)
);
},
{
closed = 1;
nodes = (
(67,-20,l),
(67,-20,o),
(67,-20,o),
(67,-20,q),
(693,1453,l),
(693,1453,o),
(693,1453,o),
(693,1453,q),
(859,1453,l),
(859,1453,o),
(859,1453,o),
(859,1453,q),
(232,-20,l),
(232,-20,o),
(232,-20,o),
(232,-20,q)
);
},
{
closed = 1;
nodes = (
(7,383,l),
(7,383,o),
(7,383,o),
(7,383,q),
(73,538,l),
(73,538,o),
(73,538,o),
(73,538,q),
(1130,538,l),
(1130,538,o),
(1130,538,o),
(1130,538,q),
(1064,383,l),
(1064,383,o),
(1064,383,o),
(1064,383,q)
);
},
{
closed = 1;
nodes = (
(220,889,l),
(220,889,o),
(220,889,o),
(220,889,q),
(287,1045,l),
(287,1045,o),
(287,1045,o),
(287,1045,q),
(1344,1045,l),
(1344,1045,o),
(1344,1045,o),
(1344,1045,q),
(1277,889,l),
(1277,889,o),
(1277,889,o),
(1277,889,q)
);
}
);
width = 1247;
},
{
layerId = "39C1B3C2-F87B-41E1-BD8E-10B05E3B9737";
shapes = (
{
closed = 1;
nodes = (
(523,-16,l),
(523,-16,o),
(523,-16,o),
(523,-16,q),
(1143,1449,l),
(1143,1449,o),
(1143,1449,o),
(1143,1449,q),
(1207,1449,l),
(1207,1449,o),
(1207,1449,o),
(1207,1449,q),
(587,-16,l),
(587,-16,o),
(587,-16,o),
(587,-16,q)
);
},
{
closed = 1;
nodes = (
(104,-16,l),
(104,-16,o),
(104,-16,o),
(104,-16,q),
(724,1450,l),
(724,1450,o),
(724,1450,o),
(724,1450,q),
(788,1450,l),
(788,1450,o),
(788,1450,o),
(788,1450,q),
(168,-16,l),
(168,-16,o),
(168,-16,o),
(168,-16,q)
);
},
{
closed = 1;
nodes = (
(42,443,l),
(42,443,o),
(42,443,o),
(42,443,q),
(67,501,l),
(67,501,o),
(67,501,o),
(67,501,q),
(1067,501,l),
(1067,501,o),
(1067,501,o),
(1067,501,q),
(1038,443,l),
(1038,443,o),
(1038,443,o),
(1038,443,q)
);
},
{
closed = 1;
nodes = (
(246,928,l),
(246,928,o),
(246,928,o),
(246,928,q),
(272,986,l),
(272,986,o),
(272,986,o),
(272,986,q),
(1267,986,l),
(1267,986,o),
(1267,986,o),
(1267,986,q),
(1241,928,l),
(1241,928,o),
(1241,928,o),
(1241,928,q)
);
}
);
width = 1201;
}
);
unicode = 35;
},
{
glyphname = dollar;
layers = (
{
layerId = "273C7328-CB47-413D-AC7C-0BE6F8E8A458";
shapes = (
{
closed = 1;
nodes = (
(354,0,o),
(184,83,o),
(107,204,o),
(67,349,o),
(67,349,o),
(67,349,q),
(132,368,l),
(132,368,o),
(132,368,o),
(166,232,o),
(233,128,o),
(361,61,o),
(463,61,qs),
(624,61,o),
(867,200,o),
(904,328,q),
(904,328,l),
(945,462,o),
(838,658,o),
(637,732,qs),
(415,816,o),
(314,1009,o),
(352,1140,q),
(352,1140,l),
(392,1271,o),
(630,1432,o),
(808,1432,qs),
(888,1432,o),
(1025,1374,o),
(1126,1274,o),
(1184,1155,o),
(1184,1155,o),
(1184,1155,q),
(1123,1131,l),
(1123,1131,o),
(1123,1131,o),
(1079,1228,o),
(992,1324,o),
(881,1372,o),
(802,1372,qs),
(655,1372,o),
(451,1243,o),
(419,1134,q),
(419,1134,l),
(387,1032,o),
(444,871,o),
(657,794,qs),
(869,718,o),
(1018,489,o),
(970,325,q),
(970,325,l),
(925,160,o),
(654,0,o),
(455,0,qs)
);
},
{
closed = 1;
nodes = (
(624,757,l),
(862,1598,l),
(862,1598,o),
(862,1598,o),
(862,1598,q),
(921,1598,l),
(921,1598,o),
(921,1598,o),
(921,1598,q),
(683,756,l)
);
},
{
closed = 1;
nodes = (
(363,-166,l),
(363,-166,o),
(363,-166,o),
(363,-166,q),
(622,752,l),
(681,752,l),
(422,-166,l),
(422,-166,o),
(422,-166,o),
(422,-166,q)
);
}
);
width = 1188;
},
{
layerId = "CC885FF2-67FC-4F42-83B3-969163BF65F2";
partSelection = {
Wd = 2;
Wt = 2;
};
associatedMasterId = "A94F09BD-5AF2-4283-88E8-66664EC1ECC6";
name = 1;
shapes = (
{
closed = 1;
nodes = (
(463,0,o),
(244,94,o),
(121,228,o),
(72,339,o),
(72,339,o),
(72,339,q),
(321,451,l),
(321,451,o),
(321,451,o),
(343,388,o),
(411,301,o),
(538,241,o),
(622,241,qs),
(727,241,o),
(888,314,o),
(911,394,q),
(911,394,l),
(932,458,o),
(889,557,o),
(685,624,q),
(413,716,o),
(295,951,o),
(337,1093,q),
(337,1093,l),
(386,1259,o),
(678,1432,o),
(888,1432,qs),
(989,1432,o),
(1174,1365,o),
(1298,1260,o),
(1380,1149,o),
(1380,1149,o),
(1380,1149,q),
(1134,1030,l),
(1134,1030,o),
(1134,1030,o),
(1091,1091,o),
(1016,1158,o),
(914,1197,o),
(854,1197,qs),
(764,1197,o),
(642,1128,o),
(624,1068,q),
(624,1068,l),
(609,1024,o),
(620,929,o),
(811,866,q),
(1098,773,o),
(1247,541,o),
(1200,376,q),
(1200,376,l),
(1145,181,o),
(832,0,o),
(599,0,qs)
);
},
{
closed = 1;
nodes = (
(711,818,l),
(916,1598,l),
(916,1598,o),
(916,1598,o),
(916,1598,q),
(1093,1598,l),
(1093,1598,o),
(1093,1598,o),
(1093,1598,q),
(888,818,l)
);
},
{
closed = 1;
nodes = (
(416,-166,l),
(416,-166,o),
(416,-166,o),
(416,-166,q),
(655,716,l),
(832,716,l),
(593,-166,l),
(593,-166,o),
(593,-166,o),
(593,-166,q)
);
}
);
width = 1335;
},
{
layerId = "03A8D7B9-CE5F-4D17-A4AA-73C17DD760C1";
partSelection = {
Wd = 2;
Wt = 2;
};
associatedMasterId = "A94F09BD-5AF2-4283-88E8-66664EC1ECC6";
name = 2;
shapes = (
{
closed = 1;
nodes = (
(463,0,o),
(244,94,o),
(121,228,o),
(72,339,o),
(72,339,o),
(72,339,q),
(321,451,l),
(321,451,o),
(321,451,o),
(343,388,o),
(411,301,o),
(538,241,o),
(622,241,qs),
(727,241,o),
(888,314,o),
(911,394,q),
(911,394,l),
(932,458,o),
(889,557,o),
(685,624,q),
(413,716,o),
(295,951,o),
(337,1093,q),
(337,1093,l),
(386,1259,o),
(678,1432,o),
(888,1432,qs),
(989,1432,o),
(1174,1365,o),
(1298,1260,o),
(1380,1149,o),
(1380,1149,o),
(1380,1149,q),
(1134,1030,l),
(1134,1030,o),
(1134,1030,o),
(1091,1091,o),
(1016,1158,o),
(914,1197,o),
(854,1197,qs),
(764,1197,o),
(642,1128,o),
(624,1068,q),
(624,1068,l),
(609,1024,o),
(620,929,o),
(811,866,q),
(1098,773,o),
(1247,541,o),
(1200,376,q),
(1200,376,l),
(1145,181,o),
(832,0,o),
(599,0,qs)
);
},
{
closed = 1;
nodes = (
(837,1314,l),
(916,1598,l),
(916,1598,o),
(916,1598,o),
(916,1598,q),
(1093,1598,l),
(1093,1598,o),
(1093,1598,o),
(1093,1598,q),
(1014,1314,l)
);
},
{
closed = 1;
nodes = (
(416,-166,l),
(416,-166,o),
(416,-166,o),
(416,-166,q),
(513,181,l),
(690,181,l),
(593,-166,l),
(593,-166,o),
(593,-166,o),
(593,-166,q)
);
}
);
width = 1335;
},
{
layerId = "A94F09BD-5AF2-4283-88E8-66664EC1ECC6";
shapes = (
{
closed = 1;
nodes = (
(478,0,o),
(278,84,o),
(156,230,o),
(112,342,o),
(112,342,o),
(112,342,q),
(297,410,l),
(297,410,o),
(297,410,o),
(323,331,o),
(397,230,o),
(524,171,o),
(612,171,qs),
(730,171,o),
(932,264,o),
(961,368,q),
(961,368,l),
(988,458,o),
(928,589,o),
(703,664,qs),
(459,750,o),
(347,988,o),
(387,1117,q),
(387,1117,l),
(433,1280,o),
(702,1432,o),
(891,1432,qs),
(985,1432,o),
(1165,1360,o),
(1293,1238,o),
(1348,1139,o),
(1348,1139,o),
(1348,1139,q),
(1161,1071,l),
(1161,1071,o),
(1161,1071,o),
(1122,1134,o),
(1043,1213,o),
(929,1261,o),
(866,1261,qs),
(762,1261,o),
(612,1175,o),
(588,1095,q),
(588,1095,l),
(567,1037,o),
(591,905,o),
(798,835,qs),
(1055,750,o),
(1208,517,o),
(1162,352,q),
(1162,352,l),
(1107,156,o),
(808,0,o),
(601,0,qs)
);
},
{
closed = 1;
nodes = (
(694,756,l),
(933,1598,l),
(933,1598,o),
(933,1598,o),
(933,1598,q),
(1072,1598,l),
(1072,1598,o),
(1072,1598,o),
(1072,1598,q),
(833,756,l)
);
},
{
closed = 1;
nodes = (
(435,-166,l),
(435,-166,o),
(435,-166,o),
(435,-166,q),
(686,727,l),
(825,727,l),
(574,-166,l),
(574,-166,o),
(574,-166,o),
(574,-166,q)
);
}
);
width = 1307;
},
{
layerId = "44639B77-8764-4A8F-BB1F-F8171CA5D8DC";
shapes = (
{
closed = 1;
nodes = (
(441,1,o),
(193,109,o),
(69,226,o),
(12,335,o),
(12,335,o),
(12,335,q),
(356,513,l),
(356,513,o),
(356,513,o),
(373,473,o),
(431,407,o),
(557,346,o),
(636,346,qs),
(721,346,o),
(822,390,o),
(835,433,q),
(835,433,l),
(846,459,o),
(830,508,o),
(658,564,qs),
(344,664,o),
(215,895,o),
(261,1057,q),
(261,1057,l),
(314,1228,o),
(642,1432,o),
(884,1432,qs),
(995,1432,o),
(1187,1372,o),
(1306,1294,o),
(1428,1163,o),
(1428,1163,o),
(1428,1163,q),
(1093,969,l),
(1093,969,o),
(1093,969,o),
(1044,1027,o),
(976,1075,o),
(890,1100,o),
(835,1100,qs),
(766,1100,o),
(686,1059,o),
(678,1028,q),
(678,1028,l),
(672,1006,o),
(662,965,o),
(830,912,qs),
(1161,808,o),
(1306,577,o),
(1258,413,q),
(1258,413,l),
(1204,219,o),
(867,1,o),
(596,1,qs)
);
},
{
closed = 1;
nodes = (
(798,1272,l),
(890,1598,l),
(890,1598,o),
(890,1598,o),
(890,1598,q),
(1125,1598,l),
(1125,1598,o),
(1125,1598,o),
(1125,1598,q),
(1033,1272,l)
);
},
{
closed = 1;
nodes = (
(388,-166,l),
(388,-166,o),
(388,-166,o),
(388,-166,q),
(486,190,l),
(720,190,l),
(622,-166,l),
(622,-166,o),
(622,-166,o),
(622,-166,q)
);
}
);
width = 1378;
},
{
layerId = "817588ED-5808-41C3-839F-29DF09BEEDB0";
shapes = (
{
closed = 1;
nodes = (
(396,1,o),
(167,105,o),
(52,235,o),
(11,352,o),
(11,352,o),
(11,352,q),
(363,513,l),
(363,513,o),
(363,513,o),
(376,461,o),
(422,400,o),
(523,345,o),
(589,345,qs),
(659,345,o),
(747,390,o),
(758,431,q),
(758,429,l),
(771,459,o),
(747,508,o),
(600,569,qs),
(324,684,o),
(214,914,o),
(257,1064,q),
(257,1062,l),
(309,1236,o),
(619,1432,o),
(847,1432,qs),
(969,1432,o),
(1159,1359,o),
(1256,1258,o),
(1343,1133,o),
(1343,1133,o),
(1343,1133,q),
(997,968,l),
(997,968,o),
(997,968,o),
(965,1024,o),
(915,1073,o),
(845,1098,o),
(800,1098,qs),
(743,1098,o),
(673,1056,o),
(665,1025,q),
(664,1025,l),
(657,1004,o),
(649,958,o),
(798,897,q),
(1088,786,o),
(1214,550,o),
(1167,399,q),
(1169,399,l),
(1114,211,o),
(793,1,o),
(545,1,qs)
);
},
{
closed = 1;
nodes = (
(751,1279,l),
(843,1598,l),
(843,1598,o),
(843,1598,o),
(843,1598,q),
(1076,1598,l),
(1076,1598,o),
(1076,1598,o),
(1076,1598,q),
(984,1279,l)
);
},
{
closed = 1;
nodes = (
(343,-166,l),
(343,-166,o),
(343,-166,o),
(343,-166,q),
(439,180,l),
(672,180,l),
(576,-166,l),
(576,-166,o),
(576,-166,o),
(576,-166,q)
);
}
);
width = 1283;
},
{
layerId = "9F682520-CAFD-4DA6-88A3-0ED76546661B";
partSelection = {
Wd = 2;
Wt = 2;
};
associatedMasterId = "EDA62EAC-6B85-401B-87A5-B3BF46271524";
name = 1;
shapes = (
{
closed = 1;
nodes = (
(396,0,o),
(196,94,o),
(91,232,o),
(57,347,o),
(57,347,o),
(57,347,q),
(305,449,l),
(305,449,o),
(305,449,o),
(318,379,o),
(370,296,o),
(477,238,o),
(551,238,qs),
(640,238,o),
(777,308,o),
(798,384,qs),
(800,391,l),
(821,452,o),
(789,549,o),
(614,634,qs),
(378,747,o),
(277,970,o),
(315,1100,q),
(317,1105,l),
(364,1266,o),
(634,1432,o),
(827,1432,qs),
(930,1432,o),
(1101,1360,o),
(1204,1247,o),
(1263,1137,o),
(1263,1137,o),
(1263,1137,q),
(1016,1033,l),
(1016,1033,o),
(1016,1033,o),
(987,1097,o),
(930,1162,o),
(844,1198,o),
(794,1198,qs),
(718,1198,o),
(612,1135,o),
(595,1077,q),
(593,1071,ls),
(579,1027,o),
(588,939,o),
(756,856,q),
(1001,745,o),
(1124,518,o),
(1081,373,q),
(1079,365,l),
(1026,178,o),
(735,0,o),
(525,0,qs)
);
},
{
closed = 1;
nodes = (
(627,811,l),
(849,1598,l),
(849,1598,o),
(849,1598,o),
(849,1598,q),
(1020,1598,l),
(1020,1598,o),
(1020,1598,o),
(1020,1598,q),
(798,811,l)
);
},
{
closed = 1;
nodes = (
(350,-166,l),
(350,-166,o),
(350,-166,o),
(350,-166,q),
(585,683,l),
(756,683,l),
(520,-166,l),
(520,-166,o),
(520,-166,o),
(520,-166,q)
);
}
);
width = 1212;
},
{
layerId = "2949AEB6-6209-4810-B2E6-262FC186858C";
partSelection = {
Wd = 2;
Wt = 2;
};
associatedMasterId = "EDA62EAC-6B85-401B-87A5-B3BF46271524";
name = 2;
shapes = (
{
closed = 1;
nodes = (
(396,0,o),
(196,94,o),
(91,232,o),
(57,347,o),
(57,347,o),
(57,347,q),
(305,449,l),
(305,449,o),
(305,449,o),
(318,379,o),
(370,296,o),
(477,238,o),
(551,238,qs),
(640,238,o),
(777,308,o),
(798,384,q),
(800,391,l),
(821,452,o),
(789,549,o),
(614,634,qs),
(378,747,o),
(277,970,o),
(315,1100,q),
(317,1105,l),
(364,1266,o),
(634,1432,o),
(827,1432,qs),
(930,1432,o),
(1101,1360,o),
(1204,1247,o),
(1263,1137,o),
(1263,1137,o),
(1263,1137,q),
(1016,1033,l),
(1016,1033,o),
(1016,1033,o),
(987,1097,o),
(930,1162,o),
(844,1198,o),
(794,1198,qs),
(718,1198,o),
(612,1135,o),
(595,1077,q),
(593,1071,l),
(579,1027,o),
(588,939,o),
(756,856,q),
(1001,745,o),
(1124,518,o),
(1081,373,q),
(1079,365,l),
(1026,178,o),
(735,0,o),
(525,0,qs)
);
},
{
closed = 1;
nodes = (
(761,1290,l),
(849,1598,l),
(849,1598,o),
(849,1598,o),
(849,1598,q),
(1020,1598,l),
(1020,1598,o),
(1020,1598,o),
(1020,1598,q),
(932,1290,l)
);
},
{
closed = 1;
nodes = (
(350,-166,l),
(350,-166,o),
(350,-166,o),
(350,-166,q),
(435,140,l),
(606,140,l),
(520,-166,l),
(520,-166,o),
(520,-166,o),
(520,-166,q)
);
}
);
width = 1212;
},
{
layerId = "EDA62EAC-6B85-401B-87A5-B3BF46271524";
shapes = (
{
closed = 1;
nodes = (
(396,0,o),
(216,86,o),
(117,230,o),
(87,344,o),
(87,344,o),
(87,344,q),
(267,407,l),
(267,407,o),
(267,407,o),
(279,324,o),
(336,227,o),
(447,166,o),
(526,166,qs),
(627,166,o),
(798,253,o),
(825,352,q),
(828,366,l),
(855,448,o),
(817,576,o),
(623,677,qs),
(413,789,o),
(319,1008,o),
(354,1124,qs),
(357,1134,ls),
(400,1287,o),
(644,1432,o),
(813,1432,qs),
(904,1432,o),
(1062,1361,o),
(1169,1240,o),
(1210,1139,o),
(1210,1139,o),
(1210,1139,q),
(1029,1076,l),
(1029,1076,o),
(1029,1076,o),
(1001,1145,o),
(940,1221,o),
(844,1265,o),
(790,1265,qs),
(702,1265,o),
(571,1187,o),
(548,1111,q),
(545,1102,ls),
(526,1042,o),
(548,925,o),
(728,828,q),
(943,717,o),
(1064,497,o),
(1023,356,q),
(1019,342,l),
(967,155,o),
(696,0,o),
(512,0,qs)
);
},
{
closed = 1;
nodes = (
(618,771,l),
(853,1598,l),
(853,1598,o),
(853,1598,o),
(853,1598,q),
(982,1598,l),
(982,1598,o),
(982,1598,o),
(982,1598,q),
(747,771,l)
);
},
{
closed = 1;
nodes = (
(354,-166,l),
(354,-166,o),
(354,-166,o),
(354,-166,q),
(609,739,l),
(738,739,l),
(483,-166,l),
(483,-166,o),
(483,-166,o),
(483,-166,q)
);
}
);
width = 1164;
},
{
layerId = "39C1B3C2-F87B-41E1-BD8E-10B05E3B9737";
shapes = (
{
closed = 1;
nodes = (
(296,0,o),
(149,83,o),
(90,217,o),
(59,347,o),
(59,347,o),
(59,347,q),
(122,365,l),
(122,365,o),
(122,365,o),
(146,248,o),
(194,127,o),
(307,60,o),
(399,60,qs),
(541,60,o),
(750,192,o),
(785,318,q),
(787,328,l),
(827,449,o),
(737,640,o),
(569,738,qs),
(384,843,o),
(299,1027,o),
(335,1149,q),
(338,1156,l),
(375,1286,o),
(584,1432,o),
(741,1432,qs),
(820,1432,o),
(942,1364,o),
(1017,1252,o),
(1061,1146,o),
(1061,1146,o),
(1061,1146,q),
(999,1126,l),
(999,1126,o),
(999,1126,o),
(965,1216,o),
(906,1315,o),
(811,1373,o),
(736,1373,qs),
(609,1373,o),
(432,1252,o),
(402,1149,q),
(398,1141,l),
(371,1044,o),
(429,886,o),
(597,791,qs),
(780,686,o),
(897,466,o),
(852,323,q),
(850,311,l),
(807,156,o),
(567,0,o),
(391,0,qs)
);
},
{
closed = 1;
nodes = (
(561,765,l),
(797,1598,l),
(797,1598,o),
(797,1598,o),
(797,1598,q),
(855,1598,l),
(855,1598,o),
(855,1598,o),
(855,1598,q),
(619,760,l)
);
},
{
closed = 1;
nodes = (
(297,-166,l),
(297,-166,o),
(297,-166,o),
(297,-166,q),
(556,756,l),
(615,755,l),
(356,-166,l),
(356,-166,o),
(356,-166,o),
(356,-166,q)
);
}
);
width = 1054;
}
);
partsSettings = (
{
bottomValue = 0;
name = Wd;
topValue = 1000;
},
{
bottomValue = 0;
name = Wt;
topValue = 1000;
}
);
unicode = 36;
},
{
glyphname = cent;
layers = (
{
layerId = "273C7328-CB47-413D-AC7C-0BE6F8E8A458";
shapes = (
{
closed = 1;
nodes = (
(278,163,o),
(114,481,o),
(176,708,q),
(176,708,l),
(242,939,o),
(536,1207,o),
(741,1207,qs),
(831,1207,o),
(965,1141,o),
(1046,1035,o),
(1081,942,o),
(1081,942,o),
(1081,942,q),
(1025,918,l),
(1025,918,o),
(1025,918,o),
(993,998,o),
(930,1089,o),
(826,1148,o),
(739,1148,qs),
(568,1149,o),
(301,906,o),
(242,699,q),
(242,699,l),
(184,495,o),
(315,221,o),
(493,221,qs),
(571,221,o),
(708,274,o),
(826,373,o),
(900,462,o),
(900,462,o),
(900,462,q),
(951,432,l),
(951,432,o),
(951,432,o),
(878,334,o),
(749,225,o),
(579,163,o),
(483,163,qs)
);
},
{
closed = 1;
nodes = (
(574,688,l),
(765,1365,l),
(765,1365,o),
(765,1365,o),
(765,1365,q),
(826,1365,l),
(826,1365,o),
(826,1365,o),
(826,1365,q),
(635,688,l)
);
},
{
closed = 1;
nodes = (
(379,0,l),
(379,0,o),
(379,0,o),
(379,0,q),
(574,688,l),
(634,688,l),
(439,0,l),
(439,0,o),
(439,0,o),
(439,0,q)
);
}
);
width = 1085;
},
{
layerId = "CC885FF2-67FC-4F42-83B3-969163BF65F2";
partSelection = {
Wd = 2;
Wt = 2;
};
associatedMasterId = "A94F09BD-5AF2-4283-88E8-66664EC1ECC6";
name = 1;
shapes = (
{
closed = 1;
nodes = (
(309,163,o),
(81,481,o),
(146,717,q),
(146,717,l),
(212,954,o),
(553,1210,o),
(779,1210,qs),
(885,1210,o),
(1043,1142,o),
(1136,1027,o),
(1179,930,o),
(1179,930,o),
(1179,930,q),
(957,836,l),
(957,836,o),
(957,836,o),
(932,891,o),
(879,948,o),
(811,982,o),
(752,982,q),
(636,981,o),
(448,828,o),
(410,689,q),
(410,689,l),
(372,550,o),
(472,391,o),
(587,391,qs),
(640,391,o),
(730,425,o),
(810,483,o),
(862,540,o),
(862,540,o),
(862,540,q),
(1057,441,l),
(1057,441,o),
(1057,441,o),
(981,336,o),
(847,227,o),
(655,163,o),
(547,163,qs)
);
},
{
closed = 1;
nodes = (
(566,689,l),
(761,1365,l),
(761,1365,o),
(761,1365,o),
(761,1365,q),
(949,1365,l),
(949,1365,o),
(949,1365,o),
(949,1365,q),
(752,689,l)
);
},
{
closed = 1;
nodes = (
(377,0,l),
(377,0,o),
(377,0,o),
(377,0,q),
(565,689,l),
(752,689,l),
(564,0,l),
(564,0,o),
(564,0,o),
(564,0,q)
);
}
);
width = 1149;
},
{
layerId = "03A8D7B9-CE5F-4D17-A4AA-73C17DD760C1";
partSelection = {
Wd = 2;
Wt = 2;
};
associatedMasterId = "A94F09BD-5AF2-4283-88E8-66664EC1ECC6";
name = 2;
shapes = (
{
closed = 1;
nodes = (
(309,163,o),
(81,481,o),
(146,717,q),
(146,717,l),
(212,954,o),
(553,1210,o),
(779,1210,qs),
(885,1210,o),
(1043,1142,o),
(1136,1027,o),
(1179,930,o),
(1179,930,o),
(1179,930,q),
(957,836,l),
(957,836,o),
(957,836,o),
(932,891,o),
(879,948,o),
(811,982,o),
(752,982,q),
(636,981,o),
(448,828,o),
(410,689,q),
(410,689,l),
(372,550,o),
(472,391,o),
(587,391,qs),
(640,391,o),
(730,425,o),
(810,483,o),
(862,540,o),
(862,540,o),
(862,540,q),
(1057,441,l),
(1057,441,o),
(1057,441,o),
(981,336,o),
(847,227,o),
(655,163,o),
(547,163,qs)
);
},
{
closed = 1;
nodes = (
(676,1062,l),
(761,1365,l),
(761,1365,o),
(761,1365,o),
(761,1365,q),
(949,1365,l),
(949,1365,o),
(949,1365,o),
(949,1365,q),
(862,1062,l)
);
},
{
closed = 1;
nodes = (
(377,0,l),
(377,0,o),
(377,0,o),
(377,0,q),
(464,307,l),
(651,307,l),
(564,0,l),
(564,0,o),
(564,0,o),
(564,0,q)
);
}
);
width = 1149;
},
{
layerId = "A94F09BD-5AF2-4283-88E8-66664EC1ECC6";
shapes = (
{
closed = 1;
nodes = (
(309,164,o),
(96,478,o),
(160,714,q),
(160,714,l),
(226,949,o),
(551,1207,o),
(767,1207,qs),
(866,1207,o),
(1019,1144,o),
(1109,1037,o),
(1154,938,o),
(1154,938,o),
(1154,938,q),
(996,869,l),
(996,869,o),
(996,869,o),
(966,940,o),
(904,1009,o),
(825,1048,o),
(757,1048,qs),
(617,1047,o),
(388,861,o),
(341,689,q),
(341,689,l),
(294,518,o),
(415,324,o),
(554,324,qs),
(618,324,o),
(729,365,o),
(826,435,o),
(888,506,o),
(888,506,o),
(888,506,q),
(1031,431,l),
(1031,431,o),
(1031,431,o),
(955,326,o),
(818,222,o),
(635,164,o),
(535,164,qs)
);
},
{
closed = 1;
nodes = (
(585,690,l),
(772,1365,l),
(772,1365,o),
(772,1365,o),
(772,1365,q),
(913,1365,l),
(913,1365,o),
(913,1365,o),
(913,1365,q),
(724,690,l)
);
},
{
closed = 1;
nodes = (
(388,0,l),
(388,0,o),
(388,0,o),
(388,0,q),
(585,690,l),
(725,690,l),
(528,0,l),
(528,0,o),
(528,0,o),
(528,0,q)
);
}
);
width = 1134;
},
{
layerId = "44639B77-8764-4A8F-BB1F-F8171CA5D8DC";
shapes = (
{
closed = 1;
nodes = (
(309,162,o),
(60,485,o),
(126,722,q),
(126,722,l),
(193,962,o),
(556,1214,o),
(797,1214,qs),
(914,1214,o),
(1079,1138,o),
(1177,1012,o),
(1216,917,o),
(1216,917,o),
(1216,917,q),
(898,786,l),
(898,786,o),
(898,786,o),
(881,817,o),
(842,857,o),
(791,883,o),
(745,883,qs),
(664,883,o),
(539,778,o),
(514,689,q),
(514,689,l),
(489,597,o),
(557,491,o),
(637,491,qs),
(674,491,o),
(732,515,o),
(786,554,o),
(822,590,o),
(822,590,o),
(822,590,q),
(1096,456,l),
(1096,456,o),
(1096,456,o),
(1019,352,o),
(891,235,o),
(686,162,o),
(565,162,qs)
);
},
{
closed = 1;
nodes = (
(652,1032,l),
(745,1365,l),
(745,1365,o),
(745,1365,o),
(745,1365,q),
(1004,1365,l),
(1004,1365,o),
(1004,1365,o),
(1004,1365,q),
(909,1032,l)
);
},
{
closed = 1;
nodes = (
(360,0,l),
(360,0,o),
(360,0,o),
(360,0,q),
(456,337,l),
(713,337,l),
(618,0,l),
(618,0,o),
(618,0,o),
(618,0,q)
);
}
);
width = 1172;
},
{
layerId = "817588ED-5808-41C3-839F-29DF09BEEDB0";
shapes = (
{
closed = 1;
nodes = (
(292,159,o),
(57,478,o),
(123,723,q),
(123,722,l),
(191,967,o),
(535,1214,o),
(769,1213,q),
(881,1213,o),
(1044,1143,o),
(1139,1025,o),
(1176,926,o),
(1176,926,o),
(1176,926,q),
(857,790,l),
(857,790,o),
(857,790,o),
(843,823,o),
(813,861,o),
(765,884,o),
(724,884,qs),
(649,884,o),
(533,781,o),
(508,695,q),
(502,678,l),
(478,587,o),
(536,488,o),
(611,488,qs),
(646,488,o),
(703,511,o),
(753,549,o),
(784,583,o),
(784,583,o),
(784,583,q),
(1046,447,l),
(1046,447,o),
(1046,447,o),
(973,345,o),
(850,230,o),
(657,159,o),
(542,159,qs)
);
},
{
closed = 1;
nodes = (
(638,1037,l),
(729,1365,l),
(729,1365,o),
(729,1365,o),
(729,1365,q),
(974,1365,l),
(974,1365,o),
(974,1365,o),
(974,1365,q),
(882,1037,l)
);
},
{
closed = 1;
nodes = (
(343,0,l),
(343,0,o),
(343,0,o),
(343,0,q),
(439,336,l),
(683,336,l),
(589,0,l),
(589,0,o),
(589,0,o),
(589,0,q)
);
}
);
width = 1133;
},
{
layerId = "9F682520-CAFD-4DA6-88A3-0ED76546661B";
partSelection = {
Wd = 2;
Wt = 2;
};
associatedMasterId = "EDA62EAC-6B85-401B-87A5-B3BF46271524";
name = 1;
shapes = (
{
closed = 1;
nodes = (
(282,162,o),
(74,464,o),
(137,698,qs),
(147,736,ls),
(212,968,o),
(523,1209,o),
(735,1209,qs),
(834,1209,o),
(983,1144,o),
(1068,1036,o),
(1109,937,o),
(1109,937,o),
(1109,937,q),
(889,843,l),
(889,843,o),
(889,843,o),
(869,897,o),
(826,952,o),
(764,984,o),
(710,984,q),
(607,983,o),
(444,841,o),
(407,711,q),
(393,665,l),
(358,533,o),
(440,388,o),
(543,388,qs),
(595,388,o),
(677,422,o),
(746,479,o),
(792,533,o),
(792,533,o),
(792,533,q),
(979,435,l),
(979,435,o),
(979,435,o),
(906,330,o),
(783,225,o),
(606,162,o),
(505,162,qs)
);
},
{
closed = 1;
nodes = (
(535,682,l),
(726,1365,l),
(726,1365,o),
(726,1365,o),
(726,1365,q),
(902,1365,l),
(902,1365,o),
(902,1365,o),
(902,1365,q),
(710,682,l)
);
},
{
closed = 1;
nodes = (
(341,0,l),
(341,0,o),
(341,0,o),
(341,0,q),
(535,682,l),
(710,682,l),
(517,0,l),
(517,0,o),
(517,0,o),
(517,0,q)
);
}
);
width = 1069;
},
{
layerId = "2949AEB6-6209-4810-B2E6-262FC186858C";
partSelection = {
Wd = 2;
Wt = 2;
};
associatedMasterId = "EDA62EAC-6B85-401B-87A5-B3BF46271524";
name = 2;
shapes = (
{
closed = 1;
nodes = (
(282,162,o),
(74,464,o),
(137,698,qs),
(147,736,ls),
(212,968,o),
(523,1209,o),
(735,1209,q),
(834,1209,o),
(983,1144,o),
(1068,1036,o),
(1109,937,o),
(1109,937,o),
(1109,937,q),
(889,843,l),
(889,843,o),
(889,843,o),
(869,897,o),
(826,952,o),
(764,984,o),
(710,984,q),
(607,983,o),
(444,841,o),
(407,711,qs),
(393,665,l),
(358,533,o),
(440,388,o),
(543,388,qs),
(595,388,o),
(677,422,o),
(746,479,o),
(792,533,o),
(792,533,o),
(792,533,q),
(979,435,l),
(979,435,o),
(979,435,o),
(906,330,o),
(783,225,o),
(606,162,o),
(505,162,qs)
);
},
{
closed = 1;
nodes = (
(642,1063,l),
(726,1365,l),
(726,1365,o),
(726,1365,o),
(726,1365,q),
(902,1365,l),
(902,1365,o),
(902,1365,o),
(902,1365,q),
(817,1063,l)
);
},
{
closed = 1;
nodes = (
(341,0,l),
(341,0,o),
(341,0,o),
(341,0,q),
(436,330,l),
(611,330,l),
(517,0,l),
(517,0,o),
(517,0,o),
(517,0,q)
);
}
);
width = 1069;
},
{
layerId = "EDA62EAC-6B85-401B-87A5-B3BF46271524";
shapes = (
{
closed = 1;
nodes = (
(275,164,o),
(85,455,o),
(146,682,qs),
(163,746,ls),
(226,969,o),
(516,1206,o),
(713,1206,qs),
(803,1206,o),
(942,1145,o),
(1021,1043,o),
(1064,944,o),
(1064,944,o),
(1064,944,q),
(910,878,l),
(910,878,o),
(910,878,o),
(886,946,o),
(834,1013,o),
(763,1050,o),
(701,1050,q),
(579,1049,o),
(385,881,o),
(340,722,qs),
(321,656,l),
(278,497,o),
(375,321,o),
(497,321,qs),
(560,321,o),
(659,362,o),
(741,432,o),
(797,500,o),
(797,500,o),
(797,500,q),
(934,427,l),
(934,427,o),
(934,427,o),
(861,320,o),
(739,222,o),
(572,164,o),
(480,164,qs)
);
},
{
closed = 1;
nodes = (
(537,692,l),
(724,1365,l),
(724,1365,o),
(724,1365,o),
(724,1365,q),
(854,1365,l),
(854,1365,o),
(854,1365,o),
(854,1365,q),
(665,692,l)
);
},
{
closed = 1;
nodes = (
(340,0,l),
(340,0,o),
(340,0,o),
(340,0,q),
(537,692,l),
(666,692,l),
(469,0,l),
(469,0,o),
(469,0,o),
(469,0,q)
);
}
);
width = 1026;
},
{
layerId = "39C1B3C2-F87B-41E1-BD8E-10B05E3B9737";
shapes = (
{
closed = 1;
nodes = (
(251,164,o),
(106,451,o),
(165,676,qs),
(183,742,ls),
(245,964,o),
(506,1205,o),
(686,1206,qs),
(764,1206,o),
(881,1146,o),
(952,1042,o),
(981,942,o),
(981,942,o),
(981,942,q),
(923,921,l),
(923,921,o),
(923,921,o),
(897,1009,o),
(845,1096,o),
(759,1148,o),
(685,1148,qs),
(534,1148,o),
(304,922,o),
(248,730,qs),
(230,668,ls),
(176,476,o),
(283,224,o),
(436,224,qs),
(505,224,o),
(625,273,o),
(728,367,o),
(798,462,o),
(798,462,o),
(798,462,q),
(850,436,l),
(850,436,o),
(850,436,o),
(779,326,o),
(662,222,o),
(512,164,o),
(428,164,qs)
);
},
{
closed = 1;
nodes = (
(527,695,l),
(714,1365,l),
(714,1365,o),
(714,1365,o),
(714,1365,q),
(773,1365,l),
(773,1365,o),
(773,1365,o),
(773,1365,q),
(586,695,l)
);
},
{
closed = 1;
nodes = (
(330,0,l),
(330,0,o),
(330,0,o),
(330,0,q),
(527,695,l),
(585,695,l),
(388,0,l),
(388,0,o),
(388,0,o),
(388,0,q)
);
}
);
width = 974;
}
);
partsSettings = (
{
bottomValue = 0;
name = Wd;
topValue = 1000;
},
{
bottomValue = 0;
name = Wt;
topValue = 1000;
}
);
unicode = 162;
},
{
glyphname = currency;
layers = (
{
layerId = "273C7328-CB47-413D-AC7C-0BE6F8E8A458";
shapes = (
{
closed = 1;
nodes = (
(453,148,o),
(218,403,o),
(218,578,qs),
(218,753,o),
(453,1007,o),
(631,1007,qs),
(810,1007,o),
(1043,753,o),
(1043,578,qs),
(1043,403,o),
(810,148,o),
(631,148,qs)
);
},
{
closed = 1;
nodes = (
(777,209,o),
(976,419,o),
(976,578,qs),
(976,737,o),
(777,948,o),
(631,948,qs),
(487,948,o),
(285,737,o),
(285,578,qs),
(285,419,o),
(488,209,o),
(633,209,qs)
);
},
{
closed = 1;
nodes = (
(346,836,l),
(169,1015,l),
(169,1015,o),
(169,1015,o),
(169,1015,q),
(213,1060,l),
(213,1060,o),
(213,1060,o),
(213,1060,q),
(391,884,l)
);
},
{
closed = 1;
nodes = (
(914,836,l),
(871,884,l),
(1048,1060,l),
(1048,1060,o),
(1048,1060,o),
(1048,1060,q),
(1091,1015,l),
(1091,1015,o),
(1091,1015,o),
(1091,1015,q)
);
},
{
closed = 1;
nodes = (
(211,93,l),
(211,93,o),
(211,93,o),
(211,93,q),
(168,138,l),
(168,138,o),
(168,138,o),
(168,138,q),
(347,319,l),
(391,271,l)
);
},
{
closed = 1;
nodes = (
(869,269,l),
(914,318,l),
(1091,138,l),
(1091,138,o),
(1091,138,o),
(1091,138,q),
(1047,93,l),
(1047,93,o),
(1047,93,o),
(1047,93,q)
);
}
);
width = 1226;
},
{
layerId = "A94F09BD-5AF2-4283-88E8-66664EC1ECC6";
shapes = (
{
closed = 1;
nodes = (
(441,133,o),
(190,404,o),
(190,578,qs),
(190,752,o),
(441,1022,o),
(633,1022,qs),
(826,1022,o),
(1076,752,o),
(1076,578,qs),
(1076,404,o),
(826,133,o),
(633,133,qs)
);
},
{
closed = 1;
nodes = (
(743,305,o),
(896,463,o),
(896,578,qs),
(896,692,o),
(743,851,o),
(633,851,qs),
(524,851,o),
(370,692,o),
(370,578,qs),
(370,463,o),
(525,305,o),
(634,305,qs)
);
},
{
closed = 1;
nodes = (
(336,756,l),
(125,967,l),
(125,967,o),
(125,967,o),
(125,967,q),
(244,1080,l),
(244,1080,o),
(244,1080,o),
(244,1080,q),
(452,875,l)
);
},
{
closed = 1;
nodes = (
(934,753,l),
(816,869,l),
(1026,1080,l),
(1026,1080,o),
(1026,1080,o),
(1026,1080,q),
(1140,962,l),
(1140,962,o),
(1140,962,o),
(1140,962,q)
);
},
{
closed = 1;
nodes = (
(238,74,l),
(238,74,o),
(238,74,o),
(238,74,q),
(125,193,l),
(125,193,o),
(125,193,o),
(125,193,q),
(331,401,l),
(449,285,l)
);
},
{
closed = 1;
nodes = (
(813,279,l),
(929,398,l),
(1140,187,l),
(1140,187,o),
(1140,187,o),
(1140,187,q),
(1021,74,l),
(1021,74,o),
(1021,74,o),
(1021,74,q)
);
}
);
width = 1240;
},
{
layerId = "44639B77-8764-4A8F-BB1F-F8171CA5D8DC";
shapes = (
{
closed = 1;
nodes = (
(436,124,o),
(175,403,o),
(175,578,qs),
(175,753,o),
(436,1031,o),
(644,1031,qs),
(852,1031,o),
(1111,753,o),
(1111,578,qs),
(1111,403,o),
(851,124,o),
(643,124,qs)
);
},
{
closed = 1;
nodes = (
(712,425,o),
(794,508,o),
(794,578,qs),
(794,647,o),
(712,731,o),
(643,731,qs),
(576,731,o),
(490,647,o),
(490,578,qs),
(490,508,o),
(577,425,o),
(645,425,qs)
);
},
{
closed = 1;
nodes = (
(369,652,l),
(97,922,l),
(97,922,o),
(97,922,o),
(97,922,q),
(288,1109,l),
(288,1109,o),
(288,1109,o),
(288,1109,q),
(558,842,l)
);
},
{
closed = 1;
nodes = (
(915,652,l),
(726,841,l),
(996,1110,l),
(996,1110,o),
(996,1110,o),
(996,1110,q),
(1186,921,l),
(1186,921,o),
(1186,921,o),
(1186,921,q)
);
},
{
closed = 1;
nodes = (
(285,45,l),
(285,45,o),
(285,45,o),
(285,45,q),
(97,236,l),
(97,236,o),
(97,236,o),
(97,236,q),
(367,503,l),
(556,314,l)
);
},
{
closed = 1;
nodes = (
(728,313,l),
(917,503,l),
(1188,235,l),
(1188,235,o),
(1188,235,o),
(1188,235,q),
(999,45,l),
(999,45,o),
(999,45,o),
(999,45,q)
);
}
);
width = 1259;
},
{
layerId = "817588ED-5808-41C3-839F-29DF09BEEDB0";
shapes = (
{
closed = 1;
nodes = (
(415,126,o),
(165,399,o),
(165,579,qs),
(165,758,o),
(415,1029,o),
(612,1029,qs),
(808,1029,o),
(1055,758,o),
(1055,579,qs),
(1055,399,o),
(807,126,o),
(610,126,qs)
);
},
{
closed = 1;
nodes = (
(671,426,o),
(742,504,o),
(742,578,qs),
(742,651,o),
(671,729,o),
(610,729,qs),
(551,729,o),
(477,651,o),
(477,578,qs),
(477,504,o),
(552,426,o),
(612,426,qs)
);
},
{
closed = 1;
nodes = (
(341,667,l),
(90,925,l),
(90,925,o),
(90,925,o),
(90,925,q),
(281,1108,l),
(281,1108,o),
(281,1108,o),
(281,1108,q),
(530,854,l)
);
},
{
closed = 1;
nodes = (
(877,667,l),
(688,852,l),
(936,1109,l),
(936,1109,o),
(936,1109,o),
(936,1109,q),
(1127,925,l),
(1127,925,o),
(1127,925,o),
(1127,925,q)
);
},
{
closed = 1;
nodes = (
(280,47,l),
(280,47,o),
(280,47,o),
(280,47,q),
(90,232,l),
(90,232,o),
(90,232,o),
(90,232,q),
(339,486,l),
(528,302,l)
);
},
{
closed = 1;
nodes = (
(690,300,l),
(880,486,l),
(1129,231,l),
(1129,231,o),
(1129,231,o),
(1129,231,q),
(938,46,l),
(938,46,o),
(938,46,o),
(938,46,q)
);
}
);
width = 1193;
},
{
layerId = "EDA62EAC-6B85-401B-87A5-B3BF46271524";
shapes = (
{
closed = 1;
nodes = (
(400,134,o),
(177,388,o),
(177,579,qs),
(177,769,o),
(400,1021,o),
(575,1021,qs),
(751,1021,o),
(973,769,o),
(973,579,qs),
(973,388,o),
(751,134,o),
(575,134,qs)
);
},
{
closed = 1;
nodes = (
(673,302,o),
(798,450,o),
(798,578,qs),
(798,705,o),
(673,854,o),
(575,854,qs),
(478,854,o),
(352,705,o),
(352,578,qs),
(352,450,o),
(479,302,o),
(576,302,qs)
);
},
{
closed = 1;
nodes = (
(299,784,l),
(116,972,l),
(116,972,o),
(116,972,o),
(116,972,q),
(230,1079,l),
(230,1079,o),
(230,1079,o),
(230,1079,q),
(411,895,l)
);
},
{
closed = 1;
nodes = (
(853,782,l),
(740,890,l),
(922,1079,l),
(922,1079,o),
(922,1079,o),
(922,1079,q),
(1032,969,l),
(1032,969,o),
(1032,969,o),
(1032,969,q)
);
},
{
closed = 1;
nodes = (
(225,76,l),
(225,76,o),
(225,76,o),
(225,76,q),
(116,185,l),
(116,185,o),
(116,185,o),
(116,185,q),
(294,370,l),
(406,263,l)
);
},
{
closed = 1;
nodes = (
(738,259,l),
(850,370,l),
(1032,182,l),
(1032,182,o),
(1032,182,o),
(1032,182,q),
(918,75,l),
(918,75,o),
(918,75,o),
(918,75,q)
);
}
);
width = 1123;
},
{
layerId = "39C1B3C2-F87B-41E1-BD8E-10B05E3B9737";
shapes = (
{
closed = 1;
nodes = (
(413,149,o),
(207,392,o),
(207,579,qs),
(207,765,o),
(413,1006,o),
(577,1006,qs),
(741,1006,o),
(944,765,o),
(944,579,qs),
(944,392,o),
(741,149,o),
(577,149,qs)
);
},
{
closed = 1;
nodes = (
(710,209,o),
(878,411,o),
(878,578,qs),
(878,745,o),
(710,948,o),
(576,948,qs),
(444,948,o),
(273,745,o),
(273,578,qs),
(273,411,o),
(445,209,o),
(578,209,qs)
);
},
{
closed = 1;
nodes = (
(321,847,l),
(159,1017,l),
(159,1017,o),
(159,1017,o),
(159,1017,q),
(204,1061,l),
(204,1061,o),
(204,1061,o),
(204,1061,q),
(367,894,l)
);
},
{
closed = 1;
nodes = (
(829,848,l),
(786,893,l),
(947,1060,l),
(947,1060,o),
(947,1060,o),
(947,1060,q),
(991,1017,l),
(991,1017,o),
(991,1017,o),
(991,1017,q)
);
},
{
closed = 1;
nodes = (
(202,93,l),
(202,93,o),
(202,93,o),
(202,93,q),
(157,137,l),
(157,137,o),
(157,137,o),
(157,137,q),
(321,307,l),
(366,262,l)
);
},
{
closed = 1;
nodes = (
(783,260,l),
(829,307,l),
(991,137,l),
(991,137,o),
(991,137,o),
(991,137,q),
(946,93,l),
(946,93,o),
(946,93,o),
(946,93,q)
);
}
);
width = 1116;
}
);
unicode = 164;
},
{
glyphname = Euro;
layers = (
{
layerId = "273C7328-CB47-413D-AC7C-0BE6F8E8A458";
shapes = (
{
closed = 1;
nodes = (
(385,-29,o),
(182,383,o),
(283,745,q),
(283,745,l),
(386,1103,o),
(755,1462,o),
(987,1462,qs),
(1065,1462,o),
(1198,1417,o),
(1301,1331,o),
(1364,1242,o),
(1364,1242,o),
(1364,1242,q),
(1309,1207,l),
(1309,1207,o),
(1309,1207,o),
(1255,1286,o),
(1167,1362,o),
(1056,1400,o),
(980,1400,qs),
(776,1400,o),
(440,1061,o),
(350,736,q),
(350,736,l),
(257,405,o),
(419,32,o),
(625,32,qs),
(703,32,o),
(837,82,o),
(946,151,o),
(1028,230,o),
(1028,230,o),
(1028,230,q),
(1073,185,l),
(1073,185,o),
(1073,185,o),
(988,98,o),
(864,23,o),
(710,-29,o),
(615,-29,qs)
);
},
{
closed = 1;
nodes = (
(207,830,l),
(207,830,o),
(207,830,o),
(207,830,q),
(225,891,l),
(225,891,o),
(225,891,o),
(225,891,q),
(1098,891,l),
(1098,891,o),
(1098,891,o),
(1098,891,q),
(1082,830,l),
(1082,830,o),
(1082,830,o),
(1082,830,q)
);
},
{
closed = 1;
nodes = (
(127,549,l),
(127,549,o),
(127,549,o),
(127,549,q),
(145,610,l),
(145,610,o),
(145,610,o),
(145,610,q),
(1021,610,l),
(1021,610,o),
(1021,610,o),
(1021,610,q),
(1002,549,l),
(1002,549,o),
(1002,549,o),
(1002,549,q)
);
}
);
width = 1286;
},
{
layerId = "A94F09BD-5AF2-4283-88E8-66664EC1ECC6";
shapes = (
{
closed = 1;
nodes = (
(371,-34,o),
(139,375,o),
(240,728,q),
(240,728,l),
(339,1081,o),
(747,1467,o),
(986,1467,qs),
(1076,1467,o),
(1224,1417,o),
(1337,1319,o),
(1395,1236,o),
(1395,1236,o),
(1395,1236,q),
(1231,1133,l),
(1231,1133,o),
(1231,1133,o),
(1164,1217,o),
(1117,1249,o),
(1028,1281,o),
(966,1281,qs),
(803,1281,o),
(513,992,o),
(441,728,q),
(441,728,l),
(364,458,o),
(473,151,o),
(637,151,qs),
(699,151,o),
(813,185,o),
(912,246,o),
(983,306,o),
(983,306,o),
(983,306,q),
(1105,182,l),
(1105,182,o),
(1105,182,o),
(1014,93,o),
(873,12,o),
(708,-34,o),
(611,-34,qs)
);
},
{
closed = 1;
nodes = (
(161,795,l),
(161,795,o),
(161,795,o),
(161,795,q),
(200,929,l),
(200,929,o),
(200,929,o),
(200,929,q),
(1102,929,l),
(1102,929,o),
(1102,929,o),
(1102,929,q),
(1065,795,l),
(1065,795,o),
(1065,795,o),
(1065,795,q)
);
},
{
closed = 1;
nodes = (
(81,510,l),
(81,510,o),
(81,510,o),
(81,510,q),
(120,644,l),
(120,644,o),
(120,644,o),
(120,644,q),
(1023,644,l),
(1023,644,o),
(1023,644,o),
(1023,644,q),
(985,510,l),
(985,510,o),
(985,510,o),
(985,510,q)
);
}
);
width = 1252;
},
{
layerId = "44639B77-8764-4A8F-BB1F-F8171CA5D8DC";
shapes = (
{
closed = 1;
nodes = (
(448,-37,o),
(138,386,o),
(242,758,q),
(242,758,l),
(344,1125,o),
(764,1471,o),
(1047,1471,qs),
(1144,1471,o),
(1321,1416,o),
(1454,1322,o),
(1525,1240,o),
(1525,1240,o),
(1525,1240,q),
(1185,1005,l),
(1185,1005,o),
(1185,1005,o),
(1154,1036,o),
(1104,1064,o),
(1049,1079,o),
(1015,1079,qs),
(895,1079,o),
(720,918,o),
(665,721,q),
(665,721,l),
(611,529,o),
(695,353,o),
(807,353,qs),
(851,353,o),
(927,372,o),
(985,402,o),
(1024,431,o),
(1024,431,o),
(1024,431,q),
(1225,157,l),
(1225,157,o),
(1225,157,o),
(1142,88,o),
(1000,12,o),
(828,-37,o),
(729,-37,qs)
);
},
{
closed = 1;
nodes = (
(128,761,l),
(128,761,o),
(128,761,o),
(128,761,q),
(184,953,l),
(184,953,o),
(184,953,o),
(184,953,q),
(1110,953,l),
(1110,953,o),
(1110,953,o),
(1110,953,q),
(1054,761,l),
(1054,761,o),
(1054,761,o),
(1054,761,q)
);
},
{
closed = 1;
nodes = (
(50,485,l),
(50,485,o),
(50,485,o),
(50,485,q),
(106,678,l),
(106,678,o),
(106,678,o),
(106,678,q),
(1035,678,l),
(1035,678,o),
(1035,678,o),
(1035,678,q),
(977,485,l),
(977,485,o),
(977,485,o),
(977,485,q)
);
}
);
width = 1380;
},
{
layerId = "817588ED-5808-41C3-839F-29DF09BEEDB0";
shapes = (
{
closed = 1;
nodes = (
(388,-34,o),
(122,393,o),
(225,759,q),
(226,758,l),
(327,1119,o),
(716,1468,o),
(987,1468,qs),
(1092,1468,o),
(1264,1404,o),
(1381,1297,o),
(1433,1214,o),
(1433,1214,o),
(1433,1214,q),
(1087,1005,l),
(1087,1005,o),
(1087,1005,o),
(1067,1034,o),
(1028,1065,o),
(979,1083,o),
(949,1083,qs),
(848,1083,o),
(701,928,o),
(652,748,q),
(632,685,l),
(584,514,o),
(642,349,o),
(740,349,qs),
(777,349,o),
(842,367,o),
(891,398,o),
(927,429,o),
(927,429,o),
(927,429,q),
(1149,191,l),
(1149,191,o),
(1149,191,o),
(1073,118,o),
(937,26,o),
(763,-34,o),
(660,-34,qs)
);
},
{
closed = 1;
nodes = (
(123,761,l),
(123,761,o),
(123,761,o),
(123,761,q),
(177,951,l),
(177,951,o),
(177,951,o),
(177,951,q),
(1073,951,l),
(1073,951,o),
(1073,951,o),
(1073,951,q),
(1018,761,l),
(1018,761,o),
(1018,761,o),
(1018,761,q)
);
},
{
closed = 1;
nodes = (
(44,488,l),
(44,488,o),
(44,488,o),
(44,488,q),
(100,679,l),
(100,679,o),
(100,679,o),
(100,679,q),
(999,679,l),
(999,679,o),
(999,679,o),
(999,679,q),
(943,488,l),
(943,488,o),
(943,488,o),
(943,488,q)
);
}
);
width = 1294;
},
{
layerId = "EDA62EAC-6B85-401B-87A5-B3BF46271524";
shapes = (
{
closed = 1;
nodes = (
(316,-30,o),
(113,343,o),
(207,677,qs),
(237,785,ls),
(332,1128,o),
(684,1463,o),
(897,1463,qs),
(984,1463,o),
(1119,1409,o),
(1215,1309,o),
(1261,1224,o),
(1261,1224,o),
(1261,1224,q),
(1096,1132,l),
(1096,1132,o),
(1096,1132,o),
(1050,1208,o),
(1008,1251,o),
(933,1283,o),
(877,1283,qs),
(742,1283,o),
(499,1026,o),
(432,780,q),
(400,667,ls),
(331,423,o),
(417,149,o),
(554,149,qs),
(609,149,o),
(707,185,o),
(791,249,o),
(854,312,o),
(854,312,o),
(854,312,q),
(980,201,l),
(980,201,o),
(980,201,o),
(899,108,o),
(775,22,o),
(623,-30,o),
(529,-30,qs)
);
},
{
closed = 1;
nodes = (
(147,792,l),
(147,792,o),
(147,792,o),
(147,792,q),
(185,926,l),
(185,926,o),
(185,926,o),
(185,926,q),
(982,926,l),
(982,926,o),
(982,926,o),
(982,926,q),
(945,792,l),
(945,792,o),
(945,792,o),
(945,792,q)
);
},
{
closed = 1;
nodes = (
(68,513,l),
(68,513,o),
(68,513,o),
(68,513,q),
(107,647,l),
(107,647,o),
(107,647,o),
(107,647,q),
(905,647,l),
(905,647,o),
(905,647,o),
(905,647,q),
(867,513,l),
(867,513,o),
(867,513,o),
(867,513,q)
);
}
);
width = 1122;
},
{
layerId = "39C1B3C2-F87B-41E1-BD8E-10B05E3B9737";
shapes = (
{
closed = 1;
nodes = (
(331,-25,o),
(157,344,o),
(252,688,qs),
(284,797,ls),
(380,1139,o),
(699,1458,o),
(900,1458,qs),
(975,1458,o),
(1095,1411,o),
(1181,1321,o),
(1227,1230,o),
(1227,1230,o),
(1227,1230,q),
(1171,1199,l),
(1171,1199,o),
(1171,1199,o),
(1134,1280,o),
(1064,1357,o),
(965,1397,o),
(895,1397,qs),
(724,1397,o),
(435,1097,o),
(349,788,qs),
(317,676,ls),
(230,366,o),
(363,35,o),
(540,35,qs),
(610,35,o),
(728,85,o),
(823,157,o),
(896,242,o),
(896,242,o),
(896,242,q),
(942,201,l),
(942,201,o),
(942,201,o),
(867,109,o),
(756,28,o),
(618,-25,o),
(530,-25,qs)
);
},
{
closed = 1;
nodes = (
(194,827,l),
(194,827,o),
(194,827,o),
(194,827,q),
(212,888,l),
(212,888,o),
(212,888,o),
(212,888,q),
(977,888,l),
(977,888,o),
(977,888,o),
(977,888,q),
(961,827,l),
(961,827,o),
(961,827,o),
(961,827,q)
);
},
{
closed = 1;
nodes = (
(116,552,l),
(116,552,o),
(116,552,o),
(116,552,q),
(134,613,l),
(134,613,o),
(134,613,o),
(134,613,q),
(902,613,l),
(902,613,o),
(902,613,o),
(902,613,q),
(883,552,l),
(883,552,o),
(883,552,o),
(883,552,q)
);
}
);
width = 1142;
}
);
unicode = 8364;
},
{
glyphname = ampersand;
layers = (
{
layerId = "273C7328-CB47-413D-AC7C-0BE6F8E8A458";
shapes = (
{
closed = 1;
nodes = (
(1069,-26,l),
(1069,-26,o),
(1069,-26,o),
(1069,-26,q),
(564,815,l),
(513,894,o),
(461,1091,o),
(488,1186,q),
(488,1185,l),
(525,1313,o),
(721,1462,o),
(858,1462,qs),
(920,1462,o),
(1037,1418,o),
(1125,1323,o),
(1167,1236,o),
(1167,1236,o),
(1167,1236,q),
(1117,1205,l),
(1117,1205,o),
(1117,1205,o),
(1075,1279,o),
(1008,1354,o),
(912,1402,o),
(851,1402,qs),
(749,1402,o),
(584,1283,o),
(554,1178,q),
(554,1177,l),
(531,1098,o),
(553,948,o),
(618,850,q),
(1128,8,l),
(1128,8,o),
(1128,8,o),
(1128,8,q)
);
},
{
closed = 1;
nodes = (
(288,-29,o),
(69,268,o),
(128,479,q),
(128,479,l),
(171,623,o),
(397,832,o),
(558,890,q),
(586,841,l),
(438,788,o),
(236,601,o),
(197,469,q),
(197,469,l),
(144,287,o),
(324,32,o),
(516,32,qs),
(640,32,o),
(891,140,o),
(1089,352,o),
(1224,583,o),
(1224,583,o),
(1224,583,q),
(1280,556,l),
(1280,556,o),
(1280,556,o),
(1141,310,o),
(918,76,o),
(644,-29,o),
(508,-29,qs)
);
}
);
width = 1358;
},
{
layerId = "A94F09BD-5AF2-4283-88E8-66664EC1ECC6";
shapes = (
{
closed = 1;
nodes = (
(1035,-42,l),
(1035,-42,o),
(1035,-42,o),
(1035,-42,q),
(513,820,ls),
(465,898,o),
(418,1080,o),
(445,1181,q),
(445,1181,l),
(482,1312,o),
(696,1467,o),
(845,1467,qs),
(933,1467,o),
(1075,1408,o),
(1163,1313,o),
(1213,1232,o),
(1213,1232,o),
(1213,1232,q),
(1052,1142,l),
(1052,1142,o),
(1052,1142,o),
(1019,1197,o),
(962,1254,o),
(889,1287,o),
(844,1287,qs),
(762,1287,o),
(654,1202,o),
(635,1133,q),
(635,1133,l),
(620,1080,o),
(645,965,o),
(693,891,q),
(1198,63,l),
(1198,63,o),
(1198,63,o),
(1198,63,q)
);
},
{
closed = 1;
nodes = (
(251,-34,o),
(16,276,o),
(75,488,q),
(75,488,l),
(121,656,o),
(367,875,o),
(531,926,q),
(610,783,l),
(483,740,o),
(306,585,o),
(274,470,q),
(274,470,l),
(234,330,o),
(370,144,o),
(529,144,qs),
(639,144,o),
(876,260,o),
(1064,468,o),
(1176,660,o),
(1176,660,o),
(1176,660,q),
(1335,589,l),
(1335,589,o),
(1335,589,o),
(1180,324,o),
(960,110,o),
(668,-34,o),
(495,-34,qs)
);
}
);
width = 1360;
},
{
layerId = "44639B77-8764-4A8F-BB1F-F8171CA5D8DC";
shapes = (
{
closed = 1;
nodes = (
(1084,-66,l),
(1084,-66,o),
(1084,-66,o),
(1084,-66,q),
(523,785,ls),
(473,860,o),
(417,1044,o),
(442,1129,q),
(442,1129,l),
(484,1284,o),
(758,1471,o),
(975,1471,qs),
(1086,1471,o),
(1254,1400,o),
(1365,1293,o),
(1415,1213,o),
(1415,1213,o),
(1415,1213,q),
(1098,1040,l),
(1098,1040,o),
(1098,1040,o),
(1077,1075,o),
(1042,1113,o),
(997,1137,o),
(968,1137,qs),
(929,1137,o),
(875,1099,o),
(866,1069,q),
(866,1069,l),
(856,1038,o),
(875,981,o),
(911,930,q),
(1432,160,l),
(1432,160,o),
(1432,160,o),
(1432,160,q)
);
},
{
closed = 1;
nodes = (
(279,-37,o),
(0,290,o),
(64,517,q),
(64,517,l),
(107,674,o),
(356,877,o),
(562,939,q),
(702,664,l),
(615,632,o),
(515,549,o),
(499,494,q),
(499,494,l),
(480,427,o),
(566,317,o),
(672,317,qs),
(766,317,o),
(989,453,o),
(1151,625,o),
(1265,791,o),
(1265,791,o),
(1265,791,q),
(1580,645,l),
(1580,645,o),
(1580,645,o),
(1443,427,o),
(1156,146,o),
(779,-37,o),
(589,-37,qs)
);
}
);
width = 1581;
},
{
layerId = "817588ED-5808-41C3-839F-29DF09BEEDB0";
shapes = (
{
closed = 1;
nodes = (
(987,-62,l),
(987,-62,o),
(987,-62,o),
(987,-62,q),
(489,791,ls),
(441,871,o),
(394,1052,o),
(419,1141,q),
(421,1141,l),
(461,1293,o),
(723,1468,o),
(926,1468,qs),
(1039,1468,o),
(1204,1396,o),
(1303,1291,o),
(1349,1202,o),
(1349,1202,o),
(1349,1202,q),
(1030,1042,l),
(1030,1042,o),
(1030,1042,o),
(1014,1079,o),
(986,1117,o),
(942,1140,o),
(917,1140,qs),
(879,1140,o),
(829,1103,o),
(818,1072,q),
(818,1072,l),
(810,1041,o),
(827,977,o),
(859,929,q),
(1332,154,l),
(1332,154,o),
(1332,154,o),
(1332,154,q)
);
},
{
closed = 1;
nodes = (
(258,-34,o),
(-9,286,o),
(55,512,q),
(55,511,l),
(97,666,o),
(333,871,o),
(530,936,q),
(663,656,l),
(584,626,o),
(490,543,o),
(473,486,q),
(474,486,l),
(454,417,o),
(529,316,o),
(625,316,qs),
(708,316,o),
(917,446,o),
(1069,614,o),
(1174,786,o),
(1174,786,o),
(1174,786,q),
(1481,660,l),
(1481,660,o),
(1481,660,o),
(1354,440,o),
(1083,165,o),
(726,-34,o),
(546,-34,qs)
);
}
);
width = 1481;
},
{
layerId = "EDA62EAC-6B85-401B-87A5-B3BF46271524";
shapes = (
{
closed = 1;
nodes = (
(891,-36,l),
(891,-36,o),
(891,-36,o),
(891,-36,q),
(461,822,l),
(417,906,o),
(378,1082,o),
(404,1176,q),
(407,1183,l),
(444,1317,o),
(640,1463,o),
(782,1463,qs),
(865,1463,o),
(997,1405,o),
(1073,1306,o),
(1114,1219,o),
(1114,1219,o),
(1114,1219,q),
(949,1140,l),
(949,1140,o),
(949,1140,o),
(923,1196,o),
(880,1253,o),
(816,1285,o),
(777,1285,qs),
(705,1285,o),
(609,1207,o),
(590,1142,q),
(588,1136,l),
(574,1082,o),
(595,961,o),
(638,886,q),
(1055,56,l),
(1055,56,o),
(1055,56,o),
(1055,56,q)
);
},
{
closed = 1;
nodes = (
(205,-30,o),
(-4,263,o),
(54,470,q),
(62,495,l),
(107,657,o),
(331,868,o),
(487,923,q),
(560,773,l),
(444,729,o),
(287,585,o),
(254,469,q),
(249,448,l),
(210,316,o),
(323,145,o),
(460,145,qs),
(555,145,o),
(762,251,o),
(934,447,o),
(1040,652,o),
(1040,652,o),
(1040,652,q),
(1199,588,l),
(1199,588,o),
(1199,588,o),
(1052,311,o),
(845,102,o),
(577,-30,o),
(426,-30,qs)
);
}
);
width = 1219;
},
{
layerId = "39C1B3C2-F87B-41E1-BD8E-10B05E3B9737";
shapes = (
{
closed = 1;
nodes = (
(935,-23,l),
(935,-23,o),
(935,-23,o),
(935,-23,q),
(515,820,l),
(471,902,o),
(427,1088,o),
(454,1185,q),
(458,1189,l),
(493,1316,o),
(670,1458,o),
(799,1458,qs),
(856,1458,o),
(964,1416,o),
(1039,1323,o),
(1071,1222,o),
(1071,1222,o),
(1071,1222,q),
(1019,1196,l),
(1019,1196,o),
(1019,1196,o),
(985,1278,o),
(934,1352,o),
(847,1399,o),
(791,1399,qs),
(696,1399,o),
(551,1282,o),
(520,1181,q),
(519,1176,l),
(496,1093,o),
(517,945,o),
(572,851,q),
(991,9,l),
(991,9,o),
(991,9,o),
(991,9,q)
);
},
{
closed = 1;
nodes = (
(241,-25,o),
(52,253,o),
(108,455,q),
(113,471,ls),
(158,625,o),
(372,832,o),
(516,886,q),
(542,836,l),
(410,783,o),
(223,602,o),
(179,458,q),
(176,442,l),
(127,270,o),
(275,36,o),
(448,36,qs),
(557,36,o),
(779,143,o),
(952,333,o),
(1078,587,o),
(1078,587,o),
(1078,587,q),
(1136,559,l),
(1136,559,o),
(1136,559,o),
(1006,298,o),
(810,86,o),
(564,-25,o),
(440,-25,qs)
);
}
);
width = 1213;
}
);
unicode = 38;
},
{
glyphname = quotesingle;
layers = (
{
layerId = "273C7328-CB47-413D-AC7C-0BE6F8E8A458";
shapes = (
{
closed = 1;
nodes = (
(350,976,l),
(350,976,o),
(350,976,o),
(350,976,q),
(490,1473,l),
(490,1473,o),
(490,1473,o),
(490,1473,q),
(557,1473,l),
(557,1473,o),
(557,1473,o),
(557,1473,q),
(417,976,l),
(417,976,o),
(417,976,o),
(417,976,q)
);
}
);
width = 509;
},
{
layerId = "A94F09BD-5AF2-4283-88E8-66664EC1ECC6";
shapes = (
{
closed = 1;
nodes = (
(297,941,l),
(297,941,o),
(297,941,o),
(297,941,q),
(447,1473,l),
(447,1473,o),
(447,1473,o),
(447,1473,q),
(617,1473,l),
(617,1473,o),
(617,1473,o),
(617,1473,q),
(467,941,l),
(467,941,o),
(467,941,o),
(467,941,q)
);
}
);
width = 532;
},
{
layerId = "44639B77-8764-4A8F-BB1F-F8171CA5D8DC";
shapes = (
{
closed = 1;
nodes = (
(263,878,l),
(263,878,o),
(263,878,o),
(263,878,q),
(432,1473,l),
(432,1473,o),
(432,1473,o),
(432,1473,q),
(813,1473,l),
(813,1473,o),
(813,1473,o),
(813,1473,q),
(643,878,l),
(643,878,o),
(643,878,o),
(643,878,q)
);
}
);
width = 711;
},
{
layerId = "817588ED-5808-41C3-839F-29DF09BEEDB0";
shapes = (
{
closed = 1;
nodes = (
(255,892,l),
(255,892,o),
(255,892,o),
(255,892,q),
(420,1473,l),
(420,1473,o),
(420,1473,o),
(420,1473,q),
(786,1473,l),
(786,1473,o),
(786,1473,o),
(786,1473,q),
(621,892,l),
(621,892,o),
(621,892,o),
(621,892,q)
);
}
);
width = 674;
},
{
layerId = "EDA62EAC-6B85-401B-87A5-B3BF46271524";
shapes = (
{
closed = 1;
nodes = (
(292,953,l),
(292,953,o),
(292,953,o),
(292,953,q),
(439,1473,l),
(439,1473,o),
(439,1473,o),
(439,1473,q),
(609,1473,l),
(609,1473,o),
(609,1473,o),
(609,1473,q),
(461,953,l),
(461,953,o),
(461,953,o),
(461,953,q)
);
}
);
width = 516;
},
{
layerId = "39C1B3C2-F87B-41E1-BD8E-10B05E3B9737";
shapes = (
{
closed = 1;
nodes = (
(341,986,l),
(341,986,o),
(341,986,o),
(341,986,q),
(479,1473,l),
(479,1473,o),
(479,1473,o),
(479,1473,q),
(547,1473,l),
(547,1473,o),
(547,1473,o),
(547,1473,q),
(409,986,l),
(409,986,o),
(409,986,o),
(409,986,q)
);
}
);
width = 487;
}
);
leftKerningGroup = public.kern2.quotedbl2;
rightKerningGroup = public.kern1.quotedbl;
unicode = 39;
},
{
glyphname = parenleft;
layers = (
{
layerId = "273C7328-CB47-413D-AC7C-0BE6F8E8A458";
shapes = (
{
closed = 1;
nodes = (
(213,507,o),
(213,202,o),
(288,-72,o),
(368,-225,o),
(368,-225,o),
(368,-225,q),
(311,-265,l),
(311,-265,o),
(311,-265,o),
(226,-103,o),
(147,177,o),
(140,510,o),
(195,697,qs),
(249,892,o),
(427,1197,o),
(659,1443,o),
(826,1592,o),
(826,1592,o),
(826,1592,q),
(869,1543,l),
(869,1543,o),
(869,1543,o),
(712,1400,o),
(484,1156,o),
(312,859,o),
(264,685,qs)
);
}
);
width = 680;
},
{
layerId = "A94F09BD-5AF2-4283-88E8-66664EC1ECC6";
shapes = (
{
closed = 1;
nodes = (
(322,512,o),
(312,249,o),
(369,8,o),
(449,-168,o),
(449,-168,o),
(449,-168,q),
(299,-266,l),
(299,-266,o),
(299,-266,o),
(216,-104,o),
(131,186,o),
(128,542,o),
(175,708,qs),
(223,877,o),
(380,1158,o),
(600,1414,o),
(795,1592,o),
(795,1592,o),
(795,1592,q),
(915,1467,l),
(915,1467,o),
(915,1467,o),
(741,1298,o),
(545,1057,o),
(404,807,o),
(362,658,qs)
);
}
);
width = 706;
},
{
layerId = "44639B77-8764-4A8F-BB1F-F8171CA5D8DC";
shapes = (
{
closed = 1;
nodes = (
(507,529,o),
(497,278,o),
(563,28,o),
(617,-107,o),
(617,-107,o),
(617,-107,q),
(273,-297,l),
(273,-297,o),
(273,-297,o),
(192,-133,o),
(105,150,o),
(86,521,o),
(140,728,q),
(188,891,o),
(340,1184,o),
(536,1418,o),
(756,1616,o),
(756,1616,o),
(756,1616,q),
(1044,1377,l),
(1044,1377,o),
(1044,1377,o),
(884,1230,o),
(708,1019,o),
(584,801,o),
(544,664,qs)
);
}
);
width = 862;
},
{
layerId = "817588ED-5808-41C3-839F-29DF09BEEDB0";
shapes = (
{
closed = 1;
nodes = (
(503,536,o),
(492,290,o),
(547,49,o),
(597,-115,o),
(597,-115,o),
(597,-115,q),
(250,-295,l),
(250,-295,o),
(250,-295,o),
(185,-140,o),
(102,170,o),
(89,536,o),
(142,732,qs),
(189,897,o),
(337,1179,o),
(524,1412,o),
(731,1610,o),
(731,1610,o),
(731,1610,q),
(1025,1388,l),
(1025,1388,o),
(1025,1388,o),
(861,1220,o),
(697,1014,o),
(578,797,o),
(539,662,qs)
);
}
);
width = 835;
},
{
layerId = "EDA62EAC-6B85-401B-87A5-B3BF46271524";
shapes = (
{
closed = 1;
nodes = (
(300,505,o),
(290,236,o),
(342,-4,o),
(412,-173,o),
(412,-173,o),
(412,-173,q),
(261,-266,l),
(261,-266,o),
(261,-266,o),
(182,-97,o),
(107,195,o),
(110,532,o),
(157,698,qs),
(203,867,o),
(357,1150,o),
(566,1404,o),
(760,1590,o),
(760,1590,o),
(760,1590,q),
(880,1469,l),
(880,1469,o),
(880,1469,o),
(711,1297,o),
(522,1059,o),
(383,807,o),
(341,657,qs)
);
}
);
width = 664;
},
{
layerId = "39C1B3C2-F87B-41E1-BD8E-10B05E3B9737";
shapes = (
{
closed = 1;
nodes = (
(208,497,o),
(202,196,o),
(268,-72,o),
(344,-225,o),
(344,-225,o),
(344,-225,q),
(287,-265,l),
(287,-265,o),
(287,-265,o),
(204,-98,o),
(137,174,o),
(137,498,o),
(191,687,qs),
(244,882,o),
(417,1188,o),
(639,1440,o),
(801,1592,o),
(801,1592,o),
(801,1592,q),
(845,1543,l),
(845,1543,o),
(845,1543,o),
(695,1398,o),
(473,1149,o),
(307,852,o),
(259,675,qs)
);
}
);
width = 635;
}
);
unicode = 40;
},
{
glyphname = parenright;
layers = (
{
layerId = "273C7328-CB47-413D-AC7C-0BE6F8E8A458";
shapes = (
{
closed = 1;
nodes = (
(549,819,o),
(548,1129,o),
(475,1400,o),
(395,1553,o),
(395,1553,o),
(395,1553,q),
(452,1592,l),
(452,1592,o),
(452,1592,o),
(535,1431,o),
(617,1152,o),
(621,819,o),
(567,633,qs),
(511,437,o),
(335,129,o),
(101,-114,o),
(-66,-265,o),
(-66,-265,o),
(-66,-265,q),
(-109,-215,l),
(-109,-215,o),
(-109,-215,o),
(50,-72,o),
(278,173,o),
(450,467,o),
(500,642,qs)
);
}
);
width = 680;
},
{
layerId = "A94F09BD-5AF2-4283-88E8-66664EC1ECC6";
shapes = (
{
closed = 1;
nodes = (
(460,814,o),
(469,1079,o),
(413,1318,o),
(334,1494,o),
(334,1494,o),
(334,1494,q),
(483,1592,l),
(483,1592,o),
(483,1592,o),
(565,1430,o),
(653,1142,o),
(654,786,o),
(606,620,qs),
(558,449,o),
(402,168,o),
(181,-86,o),
(-14,-266,o),
(-14,-266,o),
(-14,-266,q),
(-133,-139,l),
(-133,-139,o),
(-133,-139,o),
(41,28,o),
(236,269,o),
(378,519,o),
(420,668,qs)
);
}
);
width = 706;
},
{
layerId = "44639B77-8764-4A8F-BB1F-F8171CA5D8DC";
shapes = (
{
closed = 1;
nodes = (
(428,788,o),
(437,1043,o),
(374,1289,o),
(320,1424,o),
(320,1424,o),
(320,1424,q),
(663,1616,l),
(663,1616,o),
(663,1616,o),
(742,1451,o),
(831,1170,o),
(850,797,o),
(796,591,q),
(746,427,o),
(595,133,o),
(399,-98,o),
(178,-297,o),
(178,-297,o),
(178,-297,q),
(-111,-57,l),
(-111,-57,o),
(-111,-57,o),
(50,87,o),
(226,297,o),
(353,517,o),
(391,655,qs)
);
}
);
width = 862;
},
{
layerId = "817588ED-5808-41C3-839F-29DF09BEEDB0";
shapes = (
{
closed = 1;
nodes = (
(402,776,o),
(414,1026,o),
(364,1265,o),
(313,1427,o),
(313,1427,o),
(313,1427,q),
(659,1610,l),
(659,1610,o),
(659,1610,o),
(720,1454,o),
(808,1145,o),
(816,776,o),
(766,581,q),
(718,415,o),
(571,134,o),
(385,-97,o),
(176,-295,o),
(176,-295,o),
(176,-295,q),
(-119,-71,l),
(-119,-71,o),
(-119,-71,o),
(47,92,o),
(208,296,o),
(332,518,o),
(369,651,qs)
);
}
);
width = 835;
},
{
layerId = "EDA62EAC-6B85-401B-87A5-B3BF46271524";
shapes = (
{
closed = 1;
nodes = (
(439,820,o),
(449,1091,o),
(399,1329,o),
(328,1498,o),
(328,1498,o),
(328,1498,q),
(480,1590,l),
(480,1590,o),
(480,1590,o),
(556,1422,o),
(635,1131,o),
(629,792,o),
(583,626,q),
(536,456,o),
(384,174,o),
(174,-78,o),
(-21,-266,o),
(-21,-266,o),
(-21,-266,q),
(-140,-143,l),
(-140,-143,o),
(-140,-143,o),
(28,28,o),
(217,264,o),
(357,517,o),
(399,668,q)
);
}
);
width = 664;
},
{
layerId = "39C1B3C2-F87B-41E1-BD8E-10B05E3B9737";
shapes = (
{
closed = 1;
nodes = (
(509,830,o),
(516,1134,o),
(452,1399,o),
(377,1553,o),
(377,1553,o),
(377,1553,q),
(432,1592,l),
(432,1592,o),
(432,1592,o),
(512,1426,o),
(585,1156,o),
(581,830,o),
(526,641,qs),
(472,445,o),
(301,138,o),
(77,-111,o),
(-85,-265,o),
(-85,-265,o),
(-85,-265,q),
(-127,-215,l),
(-127,-215,o),
(-127,-215,o),
(24,-70,o),
(245,179,o),
(410,474,o),
(459,651,qs)
);
}
);
width = 635;
}
);
unicode = 41;
},
{
glyphname = asterisk;
layers = (
{
layerId = "273C7328-CB47-413D-AC7C-0BE6F8E8A458";
shapes = (
{
closed = 1;
nodes = (
(292,910,l),
(292,910,o),
(292,910,o),
(292,910,q),
(561,1118,l),
(564,1122,l),
(292,1299,l),
(292,1299,o),
(292,1299,o),
(292,1299,q),
(330,1355,l),
(330,1355,o),
(330,1355,o),
(330,1355,q),
(589,1173,l),
(594,1176,l),
(674,1476,l),
(674,1476,o),
(674,1476,o),
(674,1476,q),
(740,1457,l),
(740,1457,o),
(740,1457,o),
(740,1457,q),
(650,1158,l),
(652,1156,l),
(972,1175,l),
(972,1175,o),
(972,1175,o),
(972,1175,q),
(972,1106,l),
(972,1106,o),
(972,1106,o),
(972,1106,q),
(650,1096,l),
(649,1092,l),
(766,775,l),
(766,775,o),
(766,775,o),
(766,775,q),
(702,749,l),
(702,749,o),
(702,749,o),
(702,749,q),
(597,1065,l),
(593,1067,l),
(334,855,l),
(334,855,o),
(334,855,o),
(334,855,q)
);
}
);
width = 876;
},
{
layerId = "A94F09BD-5AF2-4283-88E8-66664EC1ECC6";
shapes = (
{
closed = 1;
nodes = (
(265,918,l),
(265,918,o),
(265,918,o),
(265,918,q),
(498,1095,l),
(499,1110,l),
(267,1255,l),
(267,1255,o),
(267,1255,o),
(267,1255,q),
(358,1389,l),
(358,1389,o),
(358,1389,o),
(358,1389,q),
(580,1231,l),
(591,1236,l),
(662,1501,l),
(662,1501,o),
(662,1501,o),
(662,1501,q),
(818,1456,l),
(818,1456,o),
(818,1456,o),
(818,1456,q),
(739,1194,l),
(746,1184,l),
(1017,1202,l),
(1017,1202,o),
(1017,1202,o),
(1017,1202,q),
(1025,1039,l),
(1025,1039,o),
(1025,1039,o),
(1025,1039,q),
(751,1038,l),
(743,1025,l),
(849,751,l),
(849,751,o),
(849,751,o),
(849,751,q),
(694,695,l),
(694,695,o),
(694,695,o),
(694,695,q),
(603,973,l),
(590,976,l),
(364,789,l),
(364,789,o),
(364,789,o),
(364,789,q)
);
}
);
width = 943;
},
{
layerId = "44639B77-8764-4A8F-BB1F-F8171CA5D8DC";
shapes = (
{
closed = 1;
nodes = (
(199,861,l),
(199,861,o),
(199,861,o),
(199,861,q),
(476,1041,l),
(479,1053,l),
(217,1218,l),
(217,1218,o),
(217,1218,o),
(217,1218,q),
(388,1453,l),
(388,1453,o),
(388,1453,o),
(388,1453,q),
(610,1253,l),
(622,1259,l),
(682,1548,l),
(682,1548,o),
(682,1548,o),
(682,1548,q),
(971,1466,l),
(971,1466,o),
(971,1466,o),
(971,1466,q),
(871,1188,l),
(879,1179,l),
(1168,1229,l),
(1168,1229,o),
(1168,1229,o),
(1168,1229,q),
(1193,945,l),
(1193,945,o),
(1193,945,o),
(1193,945,q),
(888,937,l),
(884,926,l),
(1021,630,l),
(1021,630,o),
(1021,630,o),
(1021,630,q),
(737,539,l),
(737,539,o),
(737,539,o),
(737,539,q),
(645,850,l),
(636,854,l),
(394,639,l),
(394,639,o),
(394,639,o),
(394,639,q)
);
}
);
width = 1095;
},
{
layerId = "817588ED-5808-41C3-839F-29DF09BEEDB0";
shapes = (
{
closed = 1;
nodes = (
(199,885,l),
(199,885,o),
(199,885,o),
(199,885,q),
(463,1057,l),
(465,1069,l),
(214,1225,l),
(214,1225,o),
(214,1225,o),
(214,1225,q),
(380,1454,l),
(380,1454,o),
(380,1454,o),
(380,1454,q),
(594,1262,l),
(605,1267,l),
(660,1543,l),
(660,1543,o),
(660,1543,o),
(660,1543,q),
(940,1464,l),
(940,1464,o),
(940,1464,o),
(940,1464,q),
(844,1198,l),
(851,1190,l),
(1130,1240,l),
(1130,1240,o),
(1130,1240,o),
(1130,1240,q),
(1151,963,l),
(1151,963,o),
(1151,963,o),
(1151,963,q),
(859,957,l),
(856,945,l),
(988,663,l),
(988,663,o),
(988,663,o),
(988,663,q),
(712,575,l),
(712,575,o),
(712,575,o),
(712,575,q),
(627,874,l),
(617,878,l),
(387,670,l),
(387,670,o),
(387,670,o),
(387,670,q)
);
}
);
width = 1045;
},
{
layerId = "EDA62EAC-6B85-401B-87A5-B3BF46271524";
shapes = (
{
closed = 1;
nodes = (
(256,938,l),
(256,938,o),
(256,938,o),
(256,938,q),
(478,1110,l),
(479,1122,l),
(258,1263,l),
(258,1263,o),
(258,1263,o),
(258,1263,q),
(346,1393,l),
(346,1393,o),
(346,1393,o),
(346,1393,q),
(559,1241,l),
(569,1244,l),
(637,1498,l),
(637,1498,o),
(637,1498,o),
(637,1498,q),
(788,1454,l),
(788,1454,o),
(788,1454,o),
(788,1454,q),
(712,1203,l),
(717,1196,l),
(978,1215,l),
(978,1215,o),
(978,1215,o),
(978,1215,q),
(984,1056,l),
(984,1056,o),
(984,1056,o),
(984,1056,q),
(723,1053,l),
(717,1042,l),
(818,780,l),
(818,780,o),
(818,780,o),
(818,780,q),
(666,726,l),
(666,726,o),
(666,726,o),
(666,726,q),
(579,991,l),
(568,994,l),
(355,815,l),
(355,815,o),
(355,815,o),
(355,815,q)
);
}
);
width = 887;
},
{
layerId = "39C1B3C2-F87B-41E1-BD8E-10B05E3B9737";
shapes = (
{
closed = 1;
nodes = (
(285,927,l),
(285,927,o),
(285,927,o),
(285,927,q),
(544,1129,l),
(546,1134,l),
(283,1304,l),
(283,1304,o),
(283,1304,o),
(283,1304,q),
(321,1360,l),
(321,1360,o),
(321,1360,o),
(321,1360,q),
(572,1184,l),
(576,1187,l),
(653,1476,l),
(653,1476,o),
(653,1476,o),
(653,1476,q),
(718,1457,l),
(718,1457,o),
(718,1457,o),
(718,1457,q),
(631,1168,l),
(634,1167,l),
(942,1187,l),
(942,1187,o),
(942,1187,o),
(942,1187,q),
(940,1117,l),
(940,1117,o),
(940,1117,o),
(940,1117,q),
(633,1110,l),
(630,1103,l),
(743,798,l),
(743,798,o),
(743,798,o),
(743,798,q),
(677,772,l),
(677,772,o),
(677,772,o),
(677,772,q),
(581,1077,l),
(574,1079,l),
(327,874,l),
(327,874,o),
(327,874,o),
(327,874,q)
);
}
);
width = 834;
}
);
unicode = 42;
},
{
glyphname = plus;
layers = (
{
layerId = "273C7328-CB47-413D-AC7C-0BE6F8E8A458";
shapes = (
{
closed = 1;
nodes = (
(586,185,l),
(586,185,o),
(586,185,o),
(586,185,q),
(586,1095,l),
(586,1095,o),
(586,1095,o),
(586,1095,q),
(652,1095,l),
(652,1095,o),
(652,1095,o),
(652,1095,q),
(652,185,l),
(652,185,o),
(652,185,o),
(652,185,q)
);
},
{
closed = 1;
nodes = (
(179,609,l),
(179,609,o),
(179,609,o),
(179,609,q),
(179,674,l),
(179,674,o),
(179,674,o),
(179,674,q),
(1059,674,l),
(1059,674,o),
(1059,674,o),
(1059,674,q),
(1059,609,l),
(1059,609,o),
(1059,609,o),
(1059,609,q)
);
}
);
width = 1170;
},
{
layerId = "A94F09BD-5AF2-4283-88E8-66664EC1ECC6";
shapes = (
{
closed = 1;
nodes = (
(543,154,l),
(543,154,o),
(543,154,o),
(543,154,q),
(543,1136,l),
(543,1136,o),
(543,1136,o),
(543,1136,q),
(714,1136,l),
(714,1136,o),
(714,1136,o),
(714,1136,q),
(714,154,l),
(714,154,o),
(714,154,o),
(714,154,q)
);
},
{
closed = 1;
nodes = (
(153,561,l),
(153,561,o),
(153,561,o),
(153,561,q),
(153,730,l),
(153,730,o),
(153,730,o),
(153,730,q),
(1104,730,l),
(1104,730,o),
(1104,730,o),
(1104,730,q),
(1104,561,l),
(1104,561,o),
(1104,561,o),
(1104,561,q)
);
}
);
width = 1194;
},
{
layerId = "44639B77-8764-4A8F-BB1F-F8171CA5D8DC";
shapes = (
{
closed = 1;
nodes = (
(497,102,l),
(497,102,o),
(497,102,o),
(497,102,q),
(497,1196,l),
(497,1196,o),
(497,1196,o),
(497,1196,q),
(841,1196,l),
(841,1196,o),
(841,1196,o),
(841,1196,q),
(841,102,l),
(841,102,o),
(841,102,o),
(841,102,q)
);
},
{
closed = 1;
nodes = (
(136,481,l),
(136,481,o),
(136,481,o),
(136,481,q),
(136,819,l),
(136,819,o),
(136,819,o),
(136,819,q),
(1202,819,l),
(1202,819,o),
(1202,819,o),
(1202,819,q),
(1202,481,l),
(1202,481,o),
(1202,481,o),
(1202,481,q)
);
}
);
width = 1276;
},
{
layerId = "817588ED-5808-41C3-839F-29DF09BEEDB0";
shapes = (
{
closed = 1;
nodes = (
(469,123,l),
(469,123,o),
(469,123,o),
(469,123,q),
(475,1175,l),
(475,1175,o),
(475,1175,o),
(475,1175,q),
(815,1175,l),
(815,1175,o),
(815,1175,o),
(815,1175,q),
(809,123,l),
(809,123,o),
(809,123,o),
(809,123,q)
);
},
{
closed = 1;
nodes = (
(133,482,l),
(133,482,o),
(133,482,o),
(133,482,q),
(133,817,l),
(133,817,o),
(133,817,o),
(133,817,q),
(1157,817,l),
(1157,817,o),
(1157,817,o),
(1157,817,q),
(1157,482,l),
(1157,482,o),
(1157,482,o),
(1157,482,q)
);
}
);
width = 1228;
},
{
layerId = "EDA62EAC-6B85-401B-87A5-B3BF46271524";
shapes = (
{
closed = 1;
nodes = (
(505,184,l),
(505,184,o),
(505,184,o),
(505,184,q),
(505,1106,l),
(505,1106,o),
(505,1106,o),
(505,1106,q),
(673,1106,l),
(673,1106,o),
(673,1106,o),
(673,1106,q),
(673,184,l),
(673,184,o),
(673,184,o),
(673,184,q)
);
},
{
closed = 1;
nodes = (
(143,562,l),
(143,562,o),
(143,562,o),
(143,562,q),
(143,729,l),
(143,729,o),
(143,729,o),
(143,729,q),
(1035,729,l),
(1035,729,o),
(1035,729,o),
(1035,729,q),
(1035,562,l),
(1035,562,o),
(1035,562,o),
(1035,562,q)
);
}
);
width = 1115;
},
{
layerId = "39C1B3C2-F87B-41E1-BD8E-10B05E3B9737";
shapes = (
{
closed = 1;
nodes = (
(552,213,l),
(552,213,o),
(552,213,o),
(552,213,q),
(552,1067,l),
(552,1067,o),
(552,1067,o),
(552,1067,q),
(618,1067,l),
(618,1067,o),
(618,1067,o),
(618,1067,q),
(618,213,l),
(618,213,o),
(618,213,o),
(618,213,q)
);
},
{
closed = 1;
nodes = (
(172,608,l),
(172,608,o),
(172,608,o),
(172,608,q),
(172,674,l),
(172,674,o),
(172,674,o),
(172,674,q),
(998,674,l),
(998,674,o),
(998,674,o),
(998,674,q),
(998,608,l),
(998,608,o),
(998,608,o),
(998,608,q)
);
}
);
width = 1102;
}
);
leftKerningGroup = public.kern2.plus2;
rightKerningGroup = public.kern1.plus;
unicode = 43;
},
{
glyphname = comma;
layers = (
{
layerId = "273C7328-CB47-413D-AC7C-0BE6F8E8A458";
shapes = (
{
closed = 1;
nodes = (
(122,-6,l),
(90,0,o),
(48,44,o),
(48,81,qs),
(48,121,o),
(105,176,o),
(144,176,qs),
(184,176,o),
(241,118,o),
(241,79,qs),
(241,54,o),
(220,2,o),
(193,-31,q),
(-13,-239,l),
(-13,-239,o),
(-13,-239,o),
(-62,-193,q)
);
}
);
width = 538;
},
{
layerId = "A94F09BD-5AF2-4283-88E8-66664EC1ECC6";
shapes = (
{
closed = 1;
nodes = (
(118,5,l),
(83,20,o),
(37,83,o),
(37,130,qs),
(37,190,o),
(124,273,o),
(183,273,qs),
(244,273,o),
(330,192,o),
(330,135,qs),
(330,85,o),
(293,8,o),
(248,-39,q),
(32,-254,l),
(32,-254,o),
(32,-254,o),
(-60,-172,q)
);
}
);
width = 580;
},
{
layerId = "44639B77-8764-4A8F-BB1F-F8171CA5D8DC";
shapes = (
{
closed = 1;
nodes = (
(101,52,l),
(68,72,o),
(12,167,o),
(12,239,qs),
(12,335,o),
(159,471,o),
(259,471,qs),
(364,471,o),
(503,337,o),
(503,240,qs),
(503,158,o),
(446,48,o),
(388,-13,qs),
(81,-328,l),
(81,-328,o),
(81,-328,o),
(-107,-163,q)
);
}
);
width = 681;
},
{
layerId = "817588ED-5808-41C3-839F-29DF09BEEDB0";
shapes = (
{
closed = 1;
nodes = (
(92,49,l),
(56,71,o),
(0,164,o),
(0,232,qs),
(0,327,o),
(143,463,o),
(243,463,qs),
(343,463,o),
(483,329,o),
(483,233,qs),
(483,159,o),
(429,52,o),
(372,-12,q),
(81,-318,l),
(81,-318,o),
(81,-318,o),
(-104,-161,q)
);
}
);
width = 652;
},
{
layerId = "EDA62EAC-6B85-401B-87A5-B3BF46271524";
shapes = (
{
closed = 1;
nodes = (
(103,7,l),
(68,21,o),
(23,83,o),
(23,131,qs),
(23,189,o),
(106,270,o),
(166,270,qs),
(226,270,o),
(311,191,o),
(311,133,qs),
(311,87,o),
(276,15,o),
(232,-34,q),
(21,-249,l),
(21,-249,o),
(21,-249,o),
(-71,-171,q)
);
}
);
width = 549;
},
{
layerId = "39C1B3C2-F87B-41E1-BD8E-10B05E3B9737";
shapes = (
{
closed = 1;
nodes = (
(106,-5,l),
(79,1,o),
(38,43,o),
(38,80,qs),
(38,120,o),
(93,175,o),
(132,175,qs),
(171,175,o),
(228,119,o),
(228,80,qs),
(228,56,o),
(205,9,o),
(178,-28,q),
(-16,-228,l),
(-16,-228,o),
(-16,-228,o),
(-64,-185,q)
);
}
);
width = 513;
}
);
leftKerningGroup = public.kern2.comma2;
rightKerningGroup = public.kern1.comma;
unicode = 44;
},
{
glyphname = hyphen;
layers = (
{
layerId = "273C7328-CB47-413D-AC7C-0BE6F8E8A458";
shapes = (
{
closed = 1;
nodes = (
(106,631,l),
(106,631,o),
(106,631,o),
(106,631,q),
(125,704,l),
(125,704,o),
(125,704,o),
(125,704,q),
(741,704,l),
(741,704,o),
(741,704,o),
(741,704,q),
(722,631,l),
(722,631,o),
(722,631,o),
(722,631,q)
);
}
);
width = 764;
},
{
layerId = "A94F09BD-5AF2-4283-88E8-66664EC1ECC6";
shapes = (
{
closed = 1;
nodes = (
(83,598,l),
(83,598,o),
(83,598,o),
(83,598,q),
(131,772,l),
(131,772,o),
(131,772,o),
(131,772,q),
(790,772,l),
(790,772,o),
(790,772,o),
(790,772,q),
(742,598,l),
(742,598,o),
(742,598,o),
(742,598,q)
);
}
);
width = 785;
},
{
layerId = "44639B77-8764-4A8F-BB1F-F8171CA5D8DC";
shapes = (
{
closed = 1;
nodes = (
(34,505,l),
(34,505,o),
(34,505,o),
(34,505,q),
(136,873,l),
(136,873,o),
(136,873,o),
(136,873,q),
(840,873,l),
(840,873,o),
(840,873,o),
(840,873,q),
(738,505,l),
(738,505,o),
(738,505,o),
(738,505,q)
);
}
);
width = 786;
},
{
layerId = "817588ED-5808-41C3-839F-29DF09BEEDB0";
shapes = (
{
closed = 1;
nodes = (
(38,507,l),
(38,507,o),
(38,507,o),
(38,507,q),
(141,871,l),
(141,871,o),
(141,871,o),
(141,871,q),
(808,871,l),
(808,871,o),
(808,871,o),
(808,871,q),
(707,507,l),
(707,507,o),
(707,507,o),
(707,507,q)
);
}
);
width = 760;
},
{
layerId = "EDA62EAC-6B85-401B-87A5-B3BF46271524";
shapes = (
{
closed = 1;
nodes = (
(77,598,l),
(77,598,o),
(77,598,o),
(77,598,q),
(125,772,l),
(125,772,o),
(125,772,o),
(125,772,q),
(727,772,l),
(727,772,o),
(727,772,o),
(727,772,q),
(679,598,l),
(679,598,o),
(679,598,o),
(679,598,q)
);
}
);
width = 716;
},
{
layerId = "39C1B3C2-F87B-41E1-BD8E-10B05E3B9737";
shapes = (
{
closed = 1;
nodes = (
(108,632,l),
(108,632,o),
(108,632,o),
(108,632,q),
(127,703,l),
(127,703,o),
(127,703,o),
(127,703,q),
(700,703,l),
(700,703,o),
(700,703,o),
(700,703,q),
(681,632,l),
(681,632,o),
(681,632,o),
(681,632,q)
);
}
);
width = 725;
}
);
unicode = 45;
},
{
glyphname = period;
layers = (
{
layerId = "273C7328-CB47-413D-AC7C-0BE6F8E8A458";
shapes = (
{
closed = 1;
nodes = (
(106,-10,o),
(51,45,o),
(51,87,qs),
(51,126,o),
(106,182,o),
(146,182,qs),
(186,182,o),
(242,126,o),
(242,87,qs),
(242,45,o),
(186,-10,o),
(146,-10,qs)
);
}
);
width = 538;
},
{
layerId = "A94F09BD-5AF2-4283-88E8-66664EC1ECC6";
shapes = (
{
closed = 1;
nodes = (
(117,-12,o),
(28,76,o),
(28,141,qs),
(28,203,o),
(117,291,o),
(180,291,qs),
(245,291,o),
(333,203,o),
(333,141,qs),
(333,76,o),
(245,-12,o),
(180,-12,qs)
);
}
);
width = 580;
},
{
layerId = "44639B77-8764-4A8F-BB1F-F8171CA5D8DC";
shapes = (
{
closed = 1;
nodes = (
(151,-19,o),
(7,124,o),
(7,229,qs),
(7,332,o),
(151,475,o),
(256,475,qs),
(361,475,o),
(503,332,o),
(503,229,qs),
(503,124,o),
(361,-19,o),
(256,-19,qs)
);
}
);
width = 681;
},
{
layerId = "817588ED-5808-41C3-839F-29DF09BEEDB0";
shapes = (
{
closed = 1;
nodes = (
(137,-19,o),
(-4,122,o),
(-4,224,qs),
(-4,325,o),
(136,465,o),
(241,465,qs),
(343,465,o),
(482,325,o),
(482,225,qs),
(482,122,o),
(342,-19,o),
(241,-19,qs)
);
}
);
width = 652;
},
{
layerId = "EDA62EAC-6B85-401B-87A5-B3BF46271524";
shapes = (
{
closed = 1;
nodes = (
(102,-12,o),
(14,74,o),
(14,137,qs),
(14,197,o),
(102,283,o),
(164,283,qs),
(226,283,o),
(313,197,o),
(313,137,qs),
(313,74,o),
(226,-12,o),
(164,-12,qs)
);
}
);
width = 549;
},
{
layerId = "39C1B3C2-F87B-41E1-BD8E-10B05E3B9737";
shapes = (
{
closed = 1;
nodes = (
(95,-10,o),
(40,45,o),
(40,85,qs),
(40,123,o),
(94,178,o),
(133,178,qs),
(173,178,o),
(228,124,o),
(228,85,qs),
(228,45,o),
(173,-10,o),
(133,-10,qs)
);
}
);
width = 513;
}
);
leftKerningGroup = public.kern2.period;
rightKerningGroup = public.kern1.comma;
unicode = 46;
},
{
glyphname = slash;
layers = (
{
layerId = "273C7328-CB47-413D-AC7C-0BE6F8E8A458";
shapes = (
{
closed = 1;
nodes = (
(-123,0,l),
(-123,0,o),
(-123,0,o),
(-123,0,q),
(832,1432,l),
(832,1432,o),
(832,1432,o),
(832,1432,q),
(908,1432,l),
(908,1432,o),
(908,1432,o),
(908,1432,q),
(-46,0,l),
(-46,0,o),
(-46,0,o),
(-46,0,q)
);
}
);
width = 675;
},
{
layerId = "A94F09BD-5AF2-4283-88E8-66664EC1ECC6";
shapes = (
{
closed = 1;
nodes = (
(-149,0,l),
(-149,0,o),
(-149,0,o),
(-149,0,q),
(794,1432,l),
(794,1432,o),
(794,1432,o),
(794,1432,q),
(989,1432,l),
(989,1432,o),
(989,1432,o),
(989,1432,q),
(47,0,l),
(47,0,o),
(47,0,o),
(47,0,q)
);
}
);
width = 736;
},
{
layerId = "44639B77-8764-4A8F-BB1F-F8171CA5D8DC";
shapes = (
{
closed = 1;
nodes = (
(-144,0,l),
(-144,0,o),
(-144,0,o),
(-144,0,q),
(825,1433,l),
(825,1433,o),
(825,1433,o),
(825,1433,q),
(1212,1433,l),
(1212,1433,o),
(1212,1433,o),
(1212,1433,q),
(245,0,l),
(245,0,o),
(245,0,o),
(245,0,q)
);
}
);
width = 964;
},
{
layerId = "817588ED-5808-41C3-839F-29DF09BEEDB0";
shapes = (
{
closed = 1;
nodes = (
(-152,0,l),
(-152,0,o),
(-152,0,o),
(-152,0,q),
(771,1433,l),
(771,1433,o),
(771,1433,o),
(771,1433,q),
(1142,1433,l),
(1142,1433,o),
(1142,1433,o),
(1142,1433,q),
(222,0,l),
(222,0,o),
(222,0,o),
(222,0,q)
);
}
);
width = 885;
},
{
layerId = "EDA62EAC-6B85-401B-87A5-B3BF46271524";
shapes = (
{
closed = 1;
nodes = (
(-149,0,l),
(-149,0,o),
(-149,0,o),
(-149,0,q),
(747,1432,l),
(747,1432,o),
(747,1432,o),
(747,1432,q),
(937,1432,l),
(937,1432,o),
(937,1432,o),
(937,1432,q),
(42,0,l),
(42,0,o),
(42,0,o),
(42,0,q)
);
}
);
width = 684;
},
{
layerId = "39C1B3C2-F87B-41E1-BD8E-10B05E3B9737";
shapes = (
{
closed = 1;
nodes = (
(-127,0,l),
(-127,0,o),
(-127,0,o),
(-127,0,q),
(777,1432,l),
(777,1432,o),
(777,1432,o),
(777,1432,q),
(852,1432,l),
(852,1432,o),
(852,1432,o),
(852,1432,q),
(-51,0,l),
(-51,0,o),
(-51,0,o),
(-51,0,q)
);
}
);
width = 617;
}
);
unicode = 47;
},
{
glyphname = zero;
layers = (
{
anchors = (
{
name = t.uni0335;
position = "{618, 716}";
}
);
layerId = "273C7328-CB47-413D-AC7C-0BE6F8E8A458";
shapes = (
{
closed = 1;
nodes = (
(296,-29,o),
(95,412,o),
(191,754,q),
(191,754,l),
(283,1070,o),
(670,1462,o),
(930,1462,qs),
(1194,1462,o),
(1395,1017,o),
(1299,680,q),
(1299,680,l),
(1207,361,o),
(818,-29,o),
(560,-29,qs)
);
},
{
closed = 1;
nodes = (
(796,32,o),
(1150,404,o),
(1231,690,q),
(1231,690,l),
(1318,993,o),
(1153,1400,o),
(924,1400,qs),
(694,1400,o),
(342,1029,o),
(257,743,q),
(257,743,l),
(174,436,o),
(334,32,o),
(567,32,qs)
);
}
);
width = 1380;
},
{
anchors = (
{
name = t.uni0335;
position = "{589, 716}";
}
);
layerId = "A94F09BD-5AF2-4283-88E8-66664EC1ECC6";
shapes = (
{
closed = 1;
nodes = (
(290,-34,o),
(66,394,o),
(161,733,q),
(161,733,l),
(257,1073,o),
(672,1467,o),
(934,1467,qs),
(1200,1467,o),
(1427,1040,o),
(1331,701,q),
(1331,701,l),
(1235,361,o),
(816,-34,o),
(557,-34,qs)
);
},
{
closed = 1;
nodes = (
(762,151,o),
(1056,473,o),
(1126,722,q),
(1126,722,l),
(1197,973,o),
(1083,1281,o),
(909,1281,qs),
(729,1281,o),
(436,961,o),
(365,712,q),
(365,712,l),
(295,461,o),
(406,151,o),
(582,151,qs)
);
}
);
width = 1388;
},
{
anchors = (
{
name = t.uni0335;
position = "{501, 716}";
}
);
layerId = "44639B77-8764-4A8F-BB1F-F8171CA5D8DC";
shapes = (
{
closed = 1;
nodes = (
(307,-37,o),
(37,409,o),
(136,763,q),
(136,763,l),
(235,1113,o),
(638,1471,o),
(910,1471,qs),
(1220,1471,o),
(1496,1028,o),
(1395,669,q),
(1395,669,l),
(1296,320,o),
(889,-37,o),
(619,-37,qs)
);
},
{
closed = 1;
nodes = (
(769,373,o),
(912,539,o),
(962,712,q),
(962,712,l),
(1010,885,o),
(953,1059,o),
(856,1059,qs),
(757,1059,o),
(619,893,o),
(569,720,q),
(569,720,l),
(520,547,o),
(571,373,o),
(669,373,qs)
);
}
);
width = 1426;
},
{
anchors = (
{
name = t.uni0335;
position = "{535, 716}";
}
);
layerId = "817588ED-5808-41C3-839F-29DF09BEEDB0";
shapes = (
{
closed = 1;
nodes = (
(264,-34,o),
(27,398,o),
(131,762,q),
(131,762,l),
(232,1115,o),
(598,1468,o),
(870,1468,qs),
(1171,1468,o),
(1413,1037,o),
(1310,671,q),
(1310,671,l),
(1208,317,o),
(839,-34,o),
(570,-34,qs)
);
},
{
closed = 1;
nodes = (
(706,364,o),
(824,519,o),
(871,683,q),
(891,748,l),
(938,911,o),
(896,1068,o),
(815,1068,qs),
(730,1068,o),
(615,915,o),
(566,750,q),
(548,684,ls),
(502,521,o),
(537,364,o),
(621,364,qs)
);
}
);
width = 1336;
},
{
anchors = (
{
name = t.uni0335;
position = "{566, 716}";
}
);
layerId = "EDA62EAC-6B85-401B-87A5-B3BF46271524";
shapes = (
{
closed = 1;
nodes = (
(248,-30,o),
(51,352,o),
(142,676,qs),
(176,796,ls),
(267,1122,o),
(621,1463,o),
(852,1463,qs),
(1087,1463,o),
(1286,1082,o),
(1195,756,qs),
(1162,636,ls),
(1069,310,o),
(713,-30,o),
(485,-30,qs)
);
},
{
closed = 1;
nodes = (
(656,148,o),
(895,423,o),
(962,659,qs),
(997,781,ls),
(1065,1019,o),
(974,1284,o),
(829,1284,qs),
(681,1284,o),
(442,1011,o),
(373,775,q),
(340,651,l),
(273,413,o),
(360,148,o),
(508,148,qs)
);
}
);
width = 1233;
},
{
anchors = (
{
name = t.uni0335;
position = "{588, 716}";
}
);
layerId = "39C1B3C2-F87B-41E1-BD8E-10B05E3B9737";
shapes = (
{
closed = 1;
nodes = (
(254,-25,o),
(78,357,o),
(173,686,qs),
(206,808,ls),
(296,1122,o),
(626,1458,o),
(847,1458,qs),
(1071,1458,o),
(1247,1074,o),
(1155,746,qs),
(1121,626,ls),
(1030,309,o),
(698,-25,o),
(480,-25,qs)
);
},
{
closed = 1;
nodes = (
(678,34,o),
(973,355,o),
(1053,636,qs),
(1087,756,ls),
(1170,1050,o),
(1032,1398,o),
(841,1398,qs),
(651,1398,o),
(354,1079,o),
(271,796,qs),
(237,676,ls),
(157,380,o),
(293,34,o),
(488,34,qs)
);
}
);
width = 1215;
}
);
leftKerningGroup = public.kern2.zero2;
rightKerningGroup = public.kern1.zero;
unicode = 48;
},
{
glyphname = one;
layers = (
{
layerId = "273C7328-CB47-413D-AC7C-0BE6F8E8A458";
shapes = (
{
closed = 1;
nodes = (
(310,0,l),
(310,0,o),
(310,0,o),
(310,0,q),
(686,1333,l),
(241,1060,l),
(241,1060,o),
(241,1060,o),
(241,1060,q),
(210,1116,l),
(210,1116,o),
(210,1116,o),
(210,1116,q),
(728,1433,l),
(728,1433,o),
(728,1433,o),
(728,1433,q),
(781,1433,l),
(781,1433,o),
(781,1433,o),
(781,1433,q),
(376,0,l),
(376,0,o),
(376,0,o),
(376,0,q)
);
}
);
width = 744;
},
{
layerId = "A94F09BD-5AF2-4283-88E8-66664EC1ECC6";
shapes = (
{
closed = 1;
nodes = (
(280,0,l),
(280,0,o),
(280,0,o),
(280,0,q),
(605,1154,l),
(266,943,l),
(266,943,o),
(266,943,o),
(266,943,q),
(181,1104,l),
(181,1104,o),
(181,1104,o),
(181,1104,q),
(729,1432,l),
(729,1432,o),
(729,1432,o),
(729,1432,q),
(884,1432,l),
(884,1432,o),
(884,1432,o),
(884,1432,q),
(479,0,l),
(479,0,o),
(479,0,o),
(479,0,q)
);
}
);
width = 843;
},
{
layerId = "44639B77-8764-4A8F-BB1F-F8171CA5D8DC";
shapes = (
{
closed = 1;
nodes = (
(282,0,l),
(282,0,o),
(282,0,o),
(282,0,q),
(524,873,l),
(289,730,l),
(289,730,o),
(289,730,o),
(289,730,q),
(150,1036,l),
(150,1036,o),
(150,1036,o),
(150,1036,q),
(823,1432,l),
(823,1432,o),
(823,1432,o),
(823,1432,q),
(1128,1432,l),
(1128,1432,o),
(1128,1432,o),
(1128,1432,q),
(723,0,l),
(723,0,o),
(723,0,o),
(723,0,q)
);
}
);
width = 1059;
},
{
layerId = "817588ED-5808-41C3-839F-29DF09BEEDB0";
shapes = (
{
closed = 1;
nodes = (
(246,0,l),
(246,0,o),
(246,0,o),
(246,0,q),
(491,881,l),
(279,749,l),
(279,749,o),
(279,749,o),
(279,749,q),
(133,1047,l),
(133,1047,o),
(133,1047,o),
(133,1047,q),
(787,1432,l),
(787,1432,o),
(787,1432,o),
(787,1432,q),
(1083,1432,l),
(1083,1432,o),
(1083,1432,o),
(1083,1432,q),
(678,0,l),
(678,0,o),
(678,0,o),
(678,0,q)
);
}
);
width = 992;
},
{
layerId = "EDA62EAC-6B85-401B-87A5-B3BF46271524";
shapes = (
{
closed = 1;
nodes = (
(242,0,l),
(242,0,o),
(242,0,o),
(242,0,q),
(570,1163,l),
(260,970,l),
(260,970,o),
(260,970,o),
(260,970,q),
(179,1127,l),
(179,1127,o),
(179,1127,o),
(179,1127,q),
(690,1434,l),
(690,1434,o),
(690,1434,o),
(690,1434,q),
(840,1434,l),
(840,1434,o),
(840,1434,o),
(840,1434,q),
(435,0,l),
(435,0,o),
(435,0,o),
(435,0,q)
);
}
);
width = 777;
},
{
layerId = "39C1B3C2-F87B-41E1-BD8E-10B05E3B9737";
shapes = (
{
closed = 1;
nodes = (
(269,0,l),
(269,0,o),
(269,0,o),
(269,0,q),
(646,1337,l),
(236,1082,l),
(236,1082,o),
(236,1082,o),
(236,1082,q),
(207,1137,l),
(207,1137,o),
(207,1137,o),
(207,1137,q),
(687,1434,l),
(687,1434,o),
(687,1434,o),
(687,1434,q),
(738,1434,l),
(738,1434,o),
(738,1434,o),
(738,1434,q),
(334,0,l),
(334,0,o),
(334,0,o),
(334,0,q)
);
}
);
width = 690;
}
);
rightKerningGroup = public.kern1.H;
unicode = 49;
},
{
glyphname = two;
layers = (
{
layerId = "273C7328-CB47-413D-AC7C-0BE6F8E8A458";
shapes = (
{
closed = 1;
nodes = (
(-42,0,l),
(-42,0,o),
(-42,0,o),
(-42,0,q),
(-18,73,l),
(-18,73,o),
(-18,73,o),
(-18,73,q),
(702,659,ls),
(820,755,o),
(1004,937,o),
(1038,1053,q),
(1038,1053,l),
(1078,1194,o),
(916,1398,o),
(761,1398,qs),
(686,1398,o),
(535,1349,o),
(411,1240,o),
(321,1093,o),
(321,1093,o),
(321,1093,q),
(259,1120,l),
(259,1120,o),
(259,1120,o),
(362,1282,o),
(498,1406,o),
(678,1462,o),
(767,1462,qs),
(953,1462,o),
(1153,1210,o),
(1103,1040,q),
(1103,1040,l),
(1067,911,o),
(898,736,o),
(753,615,q),
(74,69,l),
(72,65,l),
(869,65,l),
(869,65,o),
(869,65,o),
(869,65,q),
(850,0,l),
(850,0,o),
(850,0,o),
(850,0,q)
);
}
);
width = 1098;
},
{
layerId = "A94F09BD-5AF2-4283-88E8-66664EC1ECC6";
shapes = (
{
closed = 1;
nodes = (
(-57,0,l),
(-57,0,o),
(-57,0,o),
(-57,0,q),
(-3,187,l),
(-3,187,o),
(-3,187,o),
(-3,187,q),
(614,671,ls),
(742,773,o),
(914,942,o),
(941,1037,q),
(941,1037,l),
(970,1140,o),
(856,1280,o),
(758,1280,qs),
(679,1280,o),
(568,1222,o),
(475,1126,o),
(414,1030,o),
(414,1030,o),
(414,1030,q),
(240,1111,l),
(240,1111,o),
(240,1111,o),
(335,1249,o),
(475,1389,o),
(658,1466,o),
(775,1466,qs),
(969,1466,o),
(1199,1190,o),
(1148,1007,q),
(1148,1007,l),
(1113,886,o),
(955,704,o),
(783,572,qs),
(284,192,l),
(285,186,l),
(942,186,l),
(942,186,o),
(942,186,o),
(942,186,q),
(890,0,l),
(890,0,o),
(890,0,o),
(890,0,q)
);
}
);
width = 1134;
},
{
layerId = "44639B77-8764-4A8F-BB1F-F8171CA5D8DC";
shapes = (
{
closed = 1;
nodes = (
(-44,0,l),
(-44,0,o),
(-44,0,o),
(-44,0,q),
(53,333,l),
(53,333,o),
(53,333,o),
(53,333,q),
(499,654,ls),
(627,749,o),
(814,886,o),
(831,946,q),
(831,946,l),
(846,995,o),
(790,1069,o),
(745,1069,qs),
(706,1069,o),
(645,1039,o),
(599,993,o),
(538,905,o),
(538,905,o),
(538,905,q),
(201,1061,l),
(201,1061,o),
(201,1061,o),
(331,1251,o),
(500,1392,o),
(696,1470,o),
(827,1470,qs),
(1075,1470,o),
(1336,1132,o),
(1280,935,q),
(1280,935,l),
(1247,822,o),
(1088,661,o),
(947,568,qs),
(680,396,l),
(681,387,l),
(1168,387,l),
(1168,387,o),
(1168,387,o),
(1168,387,q),
(1059,0,l),
(1059,0,o),
(1059,0,o),
(1059,0,q)
);
}
);
width = 1286;
},
{
layerId = "817588ED-5808-41C3-839F-29DF09BEEDB0";
shapes = (
{
closed = 1;
nodes = (
(-58,0,l),
(-58,0,o),
(-58,0,o),
(-58,0,q),
(35,320,l),
(35,320,o),
(35,320,o),
(35,320,q),
(475,670,ls),
(595,767,o),
(763,910,o),
(781,975,q),
(781,975,l),
(794,1018,o),
(747,1080,o),
(709,1080,qs),
(677,1080,o),
(620,1050,o),
(577,999,o),
(527,920,o),
(527,920,o),
(527,920,q),
(192,1045,l),
(192,1045,o),
(192,1045,o),
(304,1226,o),
(454,1374,o),
(655,1467,o),
(794,1467,qs),
(1030,1467,o),
(1273,1155,o),
(1219,959,q),
(1217,959,l),
(1185,845,o),
(1032,675,o),
(897,580,qs),
(634,390,l),
(636,381,l),
(1090,381,l),
(1090,381,o),
(1090,381,o),
(1090,381,q),
(983,0,l),
(983,0,o),
(983,0,o),
(983,0,q)
);
}
);
width = 1205;
},
{
layerId = "EDA62EAC-6B85-401B-87A5-B3BF46271524";
shapes = (
{
closed = 1;
nodes = (
(-67,0,l),
(-67,0,o),
(-67,0,o),
(-67,0,q),
(-13,188,l),
(-13,188,o),
(-13,188,o),
(-13,188,q),
(549,696,l),
(659,792,o),
(817,960,o),
(843,1052,q),
(847,1066,l),
(873,1162,o),
(779,1282,o),
(699,1282,qs),
(631,1282,o),
(533,1224,o),
(452,1132,o),
(397,1028,o),
(397,1028,o),
(397,1028,q),
(226,1094,l),
(226,1094,o),
(226,1094,o),
(310,1240,o),
(433,1380,o),
(604,1462,o),
(716,1462,qs),
(891,1462,o),
(1094,1211,o),
(1046,1039,q),
(1041,1023,ls),
(1007,905,o),
(865,728,o),
(711,598,q),
(248,187,l),
(250,181,l),
(829,181,l),
(829,181,o),
(829,181,o),
(829,181,q),
(778,0,l),
(778,0,o),
(778,0,o),
(778,0,q)
);
}
);
width = 1008;
},
{
layerId = "39C1B3C2-F87B-41E1-BD8E-10B05E3B9737";
shapes = (
{
closed = 1;
nodes = (
(-57,0,l),
(-57,0,o),
(-57,0,o),
(-57,0,q),
(-33,69,l),
(-33,69,o),
(-33,69,o),
(-33,69,q),
(609,657,ls),
(719,755,o),
(889,938,o),
(924,1062,qs),
(929,1079,ls),
(966,1214,o),
(829,1395,o),
(696,1395,qs),
(627,1395,o),
(489,1341,o),
(383,1230,o),
(309,1090,o),
(309,1090,o),
(309,1090,q),
(247,1114,l),
(247,1114,o),
(247,1114,o),
(333,1268,o),
(451,1395,o),
(615,1458,o),
(703,1458,qs),
(865,1458,o),
(1040,1226,o),
(994,1065,qs),
(989,1047,ls),
(951,912,o),
(789,729,o),
(661,615,qs),
(55,67,l),
(53,63,l),
(754,63,l),
(754,63,o),
(754,63,o),
(754,63,q),
(737,0,l),
(737,0,o),
(737,0,o),
(737,0,q)
);
}
);
width = 971;
}
);
unicode = 50;
},
{
glyphname = three;
layers = (
{
layerId = "273C7328-CB47-413D-AC7C-0BE6F8E8A458";
shapes = (
{
closed = 1;
nodes = (
(320,-29,o),
(160,55,o),
(82,199,o),
(51,345,o),
(51,345,o),
(51,345,q),
(114,360,l),
(114,360,o),
(114,360,o),
(143,230,o),
(203,109,o),
(336,32,o),
(454,32,qs),
(619,32,o),
(877,205,o),
(922,362,q),
(922,362,l),
(967,518,o),
(821,720,o),
(636,720,qs),
(532,720,l),
(532,720,o),
(532,720,o),
(532,720,q),
(551,786,l),
(551,786,o),
(551,786,o),
(551,786,q),
(649,786,ls),
(796,786,o),
(1021,935,o),
(1063,1075,q),
(1063,1075,l),
(1101,1212,o),
(941,1400,o),
(792,1400,qs),
(696,1400,o),
(547,1333,o),
(441,1234,o),
(365,1130,o),
(365,1130,o),
(365,1130,q),
(313,1159,l),
(313,1159,o),
(313,1159,o),
(396,1280,o),
(521,1392,o),
(689,1462,o),
(801,1462,qs),
(976,1462,o),
(1178,1234,o),
(1130,1068,q),
(1130,1068,l),
(1093,940,o),
(894,778,o),
(753,756,q),
(753,753,l),
(900,730,o),
(1037,514,o),
(992,359,q),
(992,359,l),
(941,174,o),
(647,-29,o),
(442,-29,qs)
);
}
);
width = 1174;
},
{
layerId = "A94F09BD-5AF2-4283-88E8-66664EC1ECC6";
shapes = (
{
closed = 1;
nodes = (
(334,-34,o),
(142,68,o),
(36,220,o),
(1,347,o),
(1,347,o),
(1,347,q),
(192,409,l),
(192,409,o),
(192,409,o),
(231,299,o),
(282,218,o),
(385,151,o),
(464,151,qs),
(597,151,o),
(786,277,o),
(818,393,q),
(818,393,l),
(851,513,o),
(729,654,o),
(595,654,qs),
(475,654,l),
(475,654,o),
(475,654,o),
(475,654,q),
(528,838,l),
(528,838,o),
(528,838,o),
(528,838,q),
(619,838,ls),
(735,838,o),
(918,944,o),
(948,1049,q),
(948,1049,l),
(976,1144,o),
(855,1283,o),
(747,1283,qs),
(669,1283,o),
(566,1234,o),
(479,1155,o),
(419,1078,o),
(419,1078,o),
(419,1078,q),
(246,1161,l),
(246,1161,o),
(246,1161,o),
(341,1285,o),
(479,1401,o),
(639,1467,o),
(759,1467,qs),
(974,1467,o),
(1198,1204,o),
(1150,1036,q),
(1150,1036,l),
(1116,918,o),
(954,790,o),
(812,757,q),
(812,752,l),
(944,715,o),
(1060,508,o),
(1017,357,q),
(1017,357,l),
(967,180,o),
(665,-34,o),
(447,-34,qs)
);
}
);
width = 1159;
},
{
layerId = "44639B77-8764-4A8F-BB1F-F8171CA5D8DC";
shapes = (
{
closed = 1;
nodes = (
(400,-37,o),
(191,48,o),
(65,172,o),
(-30,363,o),
(-30,363,o),
(-30,363,q),
(336,476,l),
(336,476,o),
(336,476,o),
(359,418,o),
(409,355,o),
(484,322,o),
(539,322,qs),
(619,322,o),
(736,389,o),
(752,446,q),
(752,446,l),
(768,504,o),
(703,578,o),
(618,578,qs),
(459,578,l),
(459,578,o),
(459,578,o),
(459,578,q),
(543,874,l),
(543,874,o),
(543,874,o),
(543,874,q),
(676,874,ls),
(746,874,o),
(846,927,o),
(864,985,q),
(864,985,l),
(878,1035,o),
(816,1113,o),
(749,1113,qs),
(707,1113,o),
(636,1091,o),
(566,1040,o),
(511,982,o),
(511,982,o),
(511,982,q),
(220,1148,l),
(220,1148,o),
(220,1148,o),
(352,1306,o),
(519,1414,o),
(695,1471,o),
(812,1471,qs),
(1078,1471,o),
(1353,1187,o),
(1305,1017,q),
(1305,1017,l),
(1274,911,o),
(1105,788,o),
(974,761,q),
(972,752,l),
(1093,713,o),
(1212,510,o),
(1172,368,q),
(1172,368,l),
(1120,182,o),
(790,-37,o),
(521,-37,qs)
);
}
);
width = 1278;
},
{
layerId = "817588ED-5808-41C3-839F-29DF09BEEDB0";
shapes = (
{
closed = 1;
nodes = (
(340,-34,o),
(142,58,o),
(35,190,o),
(-30,375,o),
(-30,375,o),
(-30,375,q),
(339,477,l),
(339,477,o),
(339,477,o),
(352,417,o),
(389,356,o),
(451,322,o),
(495,322,qs),
(563,322,o),
(659,387,o),
(674,445,q),
(677,452,l),
(693,512,o),
(639,579,o),
(569,581,q),
(415,581,l),
(415,581,o),
(415,581,o),
(415,581,q),
(499,877,l),
(499,877,o),
(499,877,o),
(499,877,q),
(628,877,ls),
(688,877,o),
(782,934,o),
(798,991,q),
(801,999,l),
(815,1046,o),
(766,1116,o),
(709,1116,qs),
(675,1116,o),
(613,1094,o),
(556,1042,o),
(510,984,o),
(510,984,o),
(510,984,q),
(210,1123,l),
(210,1123,o),
(210,1123,o),
(323,1273,o),
(472,1394,o),
(658,1468,o),
(783,1468,qs),
(1031,1468,o),
(1281,1202,o),
(1233,1028,q),
(1232,1027,l),
(1201,924,o),
(1033,792,o),
(898,761,q),
(897,753,l),
(1020,716,o),
(1131,509,o),
(1090,363,q),
(1090,363,l),
(1037,178,o),
(726,-34,o),
(474,-34,qs)
);
}
);
width = 1192;
},
{
layerId = "EDA62EAC-6B85-401B-87A5-B3BF46271524";
shapes = (
{
closed = 1;
nodes = (
(275,-30,o),
(103,74,o),
(21,226,o),
(-1,352,o),
(-1,352,o),
(-1,352,q),
(187,406,l),
(187,406,o),
(187,406,o),
(208,303,o),
(245,216,o),
(332,148,o),
(403,148,qs),
(512,148,o),
(673,261,o),
(703,374,q),
(716,417,l),
(748,533,o),
(648,657,o),
(541,657,qs),
(421,657,l),
(421,657,o),
(421,657,o),
(421,657,q),
(472,837,l),
(472,837,o),
(472,837,o),
(472,837,q),
(563,837,ls),
(660,837,o),
(816,936,o),
(845,1040,qs),
(854,1075,l),
(881,1168,o),
(785,1286,o),
(694,1286,qs),
(628,1286,o),
(539,1240,o),
(465,1161,o),
(411,1080,o),
(411,1080,o),
(411,1080,q),
(240,1148,l),
(240,1148,o),
(240,1148,o),
(322,1274,o),
(442,1393,o),
(593,1463,o),
(706,1463,qs),
(897,1463,o),
(1098,1225,o),
(1051,1057,q),
(1042,1025,ls),
(1008,907,o),
(856,786,o),
(725,758,q),
(725,753,l),
(847,720,o),
(952,527,o),
(910,384,qs),
(899,344,ls),
(849,166,o),
(583,-30,o),
(384,-30,qs)
);
}
);
width = 1042;
},
{
layerId = "39C1B3C2-F87B-41E1-BD8E-10B05E3B9737";
shapes = (
{
closed = 1;
nodes = (
(265,-25,o),
(122,61,o),
(61,201,o),
(42,347,o),
(42,347,o),
(42,347,q),
(104,362,l),
(104,362,o),
(104,362,o),
(122,231,o),
(168,109,o),
(283,34,o),
(388,34,qs),
(534,34,o),
(758,202,o),
(801,354,qs),
(811,388,ls),
(854,537,o),
(727,721,o),
(569,721,qs),
(465,721,l),
(465,721,o),
(465,721,o),
(465,721,q),
(484,784,l),
(484,784,o),
(484,784,o),
(484,784,q),
(580,784,ls),
(708,784,o),
(910,930,o),
(950,1066,q),
(956,1093,l),
(995,1226,o),
(860,1397,o),
(728,1397,qs),
(643,1397,o),
(513,1334,o),
(417,1232,o),
(350,1123,o),
(350,1123,o),
(350,1123,q),
(296,1149,l),
(296,1149,o),
(296,1149,o),
(370,1275,o),
(485,1392,o),
(637,1458,o),
(735,1458,qs),
(895,1458,o),
(1070,1242,o),
(1025,1086,qs),
(1017,1058,ls),
(979,930,o),
(798,777,o),
(676,755,q),
(676,754,l),
(803,730,o),
(924,530,o),
(881,383,qs),
(870,348,l),
(820,168,o),
(562,-25,o),
(377,-25,qs)
);
}
);
width = 1047;
}
);
unicode = 51;
},
{
glyphname = four;
layers = (
{
layerId = "273C7328-CB47-413D-AC7C-0BE6F8E8A458";
shapes = (
{
closed = 1;
nodes = (
(638,0,l),
(638,0,o),
(638,0,o),
(638,0,q),
(753,413,l),
(757,423,l),
(1022,1353,l),
(1040,1329,l),
(1009,1329,l),
(144,459,l),
(792,459,l),
(804,459,l),
(1087,459,l),
(1087,459,o),
(1087,459,o),
(1087,459,q),
(1069,394,l),
(1069,394,o),
(1069,394,o),
(1069,394,q),
(49,394,l),
(49,394,o),
(49,394,o),
(49,394,q),
(69,464,l),
(69,464,o),
(69,464,o),
(69,464,q),
(1035,1436,l),
(1035,1436,o),
(1035,1436,o),
(1035,1436,q),
(1111,1436,l),
(1111,1436,o),
(1111,1436,o),
(1111,1436,q),
(705,0,l),
(705,0,o),
(705,0,o),
(705,0,q)
);
}
);
width = 1130;
},
{
layerId = "A94F09BD-5AF2-4283-88E8-66664EC1ECC6";
shapes = (
{
closed = 1;
nodes = (
(602,0,l),
(602,0,o),
(602,0,o),
(602,0,q),
(719,414,l),
(737,450,l),
(977,1328,l),
(1016,1164,l),
(933,1164,l),
(275,511,l),
(821,511,l),
(869,516,l),
(1147,516,l),
(1147,516,o),
(1147,516,o),
(1147,516,q),
(1099,337,l),
(1099,337,o),
(1099,337,o),
(1099,337,q),
(3,337,l),
(3,337,o),
(3,337,o),
(3,337,q),
(53,511,l),
(53,511,o),
(53,511,o),
(53,511,q),
(986,1432,l),
(986,1432,o),
(986,1432,o),
(986,1432,q),
(1199,1432,l),
(1199,1432,o),
(1199,1432,o),
(1199,1432,q),
(795,0,l),
(795,0,o),
(795,0,o),
(795,0,q)
);
}
);
width = 1204;
},
{
layerId = "44639B77-8764-4A8F-BB1F-F8171CA5D8DC";
shapes = (
{
closed = 1;
nodes = (
(535,0,l),
(535,0,o),
(535,0,o),
(535,0,q),
(658,442,l),
(721,501,l),
(911,1202,l),
(977,974,l),
(845,974,l),
(451,583,l),
(878,583,l),
(984,607,l),
(1312,607,l),
(1312,607,o),
(1312,607,o),
(1312,607,q),
(1211,250,l),
(1211,250,o),
(1211,250,o),
(1211,250,q),
(-26,250,l),
(-26,250,o),
(-26,250,o),
(-26,250,q),
(73,600,l),
(73,600,o),
(73,600,o),
(73,600,q),
(915,1432,l),
(915,1432,o),
(915,1432,o),
(915,1432,q),
(1375,1432,l),
(1375,1432,o),
(1375,1432,o),
(1375,1432,q),
(970,0,l),
(970,0,o),
(970,0,o),
(970,0,q)
);
}
);
width = 1339;
},
{
layerId = "817588ED-5808-41C3-839F-29DF09BEEDB0";
shapes = (
{
closed = 1;
nodes = (
(473,0,l),
(473,0,o),
(473,0,o),
(473,0,q),
(597,442,l),
(662,496,l),
(854,1203,l),
(916,976,l),
(787,976,l),
(415,580,l),
(813,580,l),
(917,608,l),
(1234,608,l),
(1234,608,o),
(1234,608,o),
(1234,608,q),
(1132,252,l),
(1132,252,o),
(1132,252,o),
(1132,252,q),
(-36,252,l),
(-36,252,o),
(-36,252,o),
(-36,252,q),
(62,595,l),
(62,595,o),
(62,595,o),
(62,595,q),
(859,1432,l),
(859,1432,o),
(859,1432,o),
(859,1432,q),
(1304,1432,l),
(1304,1432,o),
(1304,1432,o),
(1304,1432,q),
(898,0,l),
(898,0,o),
(898,0,o),
(898,0,q)
);
}
);
width = 1252;
},
{
layerId = "EDA62EAC-6B85-401B-87A5-B3BF46271524";
shapes = (
{
closed = 1;
nodes = (
(505,0,l),
(505,0,o),
(505,0,o),
(505,0,q),
(622,414,l),
(639,445,l),
(879,1323,l),
(912,1153,l),
(833,1153,l),
(252,511,l),
(724,511,l),
(770,517,l),
(1029,517,l),
(1029,517,o),
(1029,517,o),
(1029,517,q),
(981,343,l),
(981,343,o),
(981,343,o),
(981,343,q),
(-2,343,l),
(-2,343,o),
(-2,343,o),
(-2,343,q),
(44,506,l),
(44,506,o),
(44,506,o),
(44,506,q),
(882,1432,l),
(882,1432,o),
(882,1432,o),
(882,1432,q),
(1099,1432,l),
(1099,1432,o),
(1099,1432,o),
(1099,1432,q),
(692,0,l),
(692,0,o),
(692,0,o),
(692,0,q)
);
}
);
width = 1081;
},
{
layerId = "39C1B3C2-F87B-41E1-BD8E-10B05E3B9737";
shapes = (
{
closed = 1;
nodes = (
(547,0,l),
(547,0,o),
(547,0,o),
(547,0,q),
(663,416,l),
(665,421,l),
(934,1369,l),
(952,1324,l),
(916,1324,l),
(131,459,l),
(700,459,l),
(711,459,l),
(967,459,l),
(967,459,o),
(967,459,o),
(967,459,q),
(948,396,l),
(948,396,o),
(948,396,o),
(948,396,q),
(40,396,l),
(40,396,o),
(40,396,o),
(40,396,q),
(60,464,l),
(60,464,o),
(60,464,o),
(60,464,q),
(939,1435,l),
(939,1435,o),
(939,1435,o),
(939,1435,q),
(1018,1435,l),
(1018,1435,o),
(1018,1435,o),
(1018,1435,q),
(612,0,l),
(612,0,o),
(612,0,o),
(612,0,q)
);
}
);
width = 1014;
}
);
unicode = 52;
},
{
glyphname = five;
layers = (
{
layerId = "273C7328-CB47-413D-AC7C-0BE6F8E8A458";
shapes = (
{
closed = 1;
nodes = (
(316,-28,o),
(157,53,o),
(73,184,o),
(41,346,o),
(41,346,o),
(41,346,q),
(104,362,l),
(104,362,o),
(104,362,o),
(135,220,o),
(201,101,o),
(338,33,o),
(436,33,qs),
(598,33,o),
(864,242,o),
(918,429,q),
(918,429,l),
(971,619,o),
(821,854,o),
(658,854,qs),
(560,854,o),
(366,760,o),
(256,661,q),
(256,661,o),
(256,661,o),
(256,661,q),
(189,687,l),
(189,687,o),
(189,687,o),
(189,687,q),
(489,1432,l),
(489,1432,o),
(489,1432,o),
(489,1432,q),
(1198,1432,l),
(1198,1432,o),
(1198,1432,o),
(1198,1432,q),
(1179,1367,l),
(1179,1367,o),
(1179,1367,o),
(1179,1367,q),
(533,1367,l),
(278,743,l),
(281,741,l),
(363,824,o),
(560,916,o),
(668,916,qs),
(853,916,o),
(1046,637,o),
(985,415,q),
(985,415,l),
(923,200,o),
(624,-28,o),
(428,-28,qs)
);
}
);
width = 1114;
},
{
layerId = "A94F09BD-5AF2-4283-88E8-66664EC1ECC6";
shapes = (
{
closed = 1;
nodes = (
(345,-34,o),
(161,57,o),
(49,225,o),
(17,352,o),
(17,352,o),
(17,352,q),
(214,410,l),
(214,410,o),
(214,410,o),
(258,277,o),
(301,211,o),
(411,151,o),
(487,151,qs),
(609,151,o),
(801,299,o),
(839,432,q),
(839,432,l),
(881,576,o),
(751,757,o),
(626,757,qs),
(557,757,o),
(430,703,o),
(334,619,q),
(334,619,o),
(334,619,o),
(334,619,q),
(156,696,l),
(156,696,o),
(156,696,o),
(156,696,q),
(457,1432,l),
(457,1432,o),
(457,1432,o),
(457,1432,q),
(1237,1432,l),
(1237,1432,o),
(1237,1432,o),
(1237,1432,q),
(1185,1246,l),
(1185,1246,o),
(1185,1246,o),
(1185,1246,q),
(573,1246,l),
(404,833,l),
(409,831,l),
(474,885,o),
(609,938,o),
(685,938,qs),
(877,938,o),
(1101,632,o),
(1039,411,q),
(1039,411,l),
(978,194,o),
(680,-34,o),
(467,-34,qs)
);
}
);
width = 1154;
},
{
layerId = "44639B77-8764-4A8F-BB1F-F8171CA5D8DC";
shapes = (
{
closed = 1;
nodes = (
(360,-40,o),
(158,56,o),
(40,209,o),
(-19,353,o),
(-19,353,o),
(-19,353,q),
(373,471,l),
(373,471,o),
(373,471,o),
(388,422,o),
(437,365,o),
(494,341,o),
(535,341,qs),
(609,341,o),
(703,416,o),
(721,478,q),
(721,478,l),
(737,545,o),
(682,620,o),
(617,620,qs),
(586,620,o),
(531,598,o),
(474,558,q),
(474,558,o),
(474,558,o),
(474,558,q),
(149,702,l),
(149,702,o),
(149,702,o),
(149,702,q),
(446,1432,l),
(446,1432,o),
(446,1432,o),
(446,1432,q),
(1345,1432,l),
(1345,1432,o),
(1345,1432,o),
(1345,1432,q),
(1241,1057,l),
(1241,1057,o),
(1241,1057,o),
(1241,1057,q),
(647,1057,l),
(571,872,l),
(577,868,l),
(635,903,o),
(752,939,o),
(823,939,qs),
(1020,939,o),
(1206,650,o),
(1156,442,q),
(1156,442,l),
(1099,210,o),
(738,-40,o),
(487,-40,qs)
);
}
);
width = 1242;
},
{
layerId = "817588ED-5808-41C3-839F-29DF09BEEDB0";
shapes = (
{
closed = 1;
nodes = (
(318,-37,o),
(121,68,o),
(24,226,o),
(-19,365,o),
(-19,365,o),
(-19,365,q),
(368,470,l),
(368,470,o),
(368,470,o),
(375,417,o),
(409,362,o),
(458,335,o),
(492,335,qs),
(557,335,o),
(641,413,o),
(658,475,q),
(662,488,ls),
(679,548,o),
(635,622,o),
(578,622,qs),
(548,622,o),
(497,598,o),
(453,561,q),
(454,561,o),
(453,561,o),
(453,561,q),
(135,699,l),
(135,699,o),
(136,699,o),
(135,699,q),
(421,1432,l),
(421,1432,o),
(421,1432,o),
(421,1432,q),
(1280,1432,l),
(1280,1432,o),
(1280,1432,o),
(1280,1432,q),
(1176,1059,l),
(1176,1059,o),
(1176,1059,o),
(1176,1059,q),
(621,1059,l),
(543,863,l),
(547,861,l),
(603,898,o),
(718,933,o),
(785,933,qs),
(976,933,o),
(1138,643,o),
(1085,434,q),
(1085,434,l),
(1026,207,o),
(691,-37,o),
(451,-37,qs)
);
}
);
width = 1165;
},
{
layerId = "EDA62EAC-6B85-401B-87A5-B3BF46271524";
shapes = (
{
closed = 1;
nodes = (
(294,-30,o),
(125,63,o),
(39,219,o),
(20,356,o),
(20,356,o),
(20,356,q),
(211,406,l),
(211,406,o),
(211,406,o),
(236,277,o),
(267,207,o),
(358,148,o),
(426,148,qs),
(529,148,o),
(693,282,o),
(730,412,qs),
(746,470,l),
(786,603,o),
(685,759,o),
(578,759,qs),
(517,759,o),
(406,703,o),
(323,622,q),
(324,622,o),
(323,622,o),
(323,622,q),
(151,688,l),
(151,688,o),
(151,688,o),
(151,688,q),
(440,1432,l),
(440,1432,o),
(440,1432,o),
(440,1432,q),
(1141,1432,l),
(1141,1432,o),
(1141,1432,o),
(1141,1432,q),
(1090,1251,l),
(1090,1251,o),
(1090,1251,o),
(1090,1251,q),
(553,1251,l),
(390,837,l),
(394,833,l),
(450,884,o),
(572,934,o),
(642,934,qs),
(809,934,o),
(1000,661,o),
(940,449,qs),
(924,391,ls),
(865,179,o),
(603,-30,o),
(410,-30,qs)
);
}
);
width = 1042;
},
{
layerId = "39C1B3C2-F87B-41E1-BD8E-10B05E3B9737";
shapes = (
{
closed = 1;
nodes = (
(272,-24,o),
(129,52,o),
(62,181,o),
(41,342,o),
(41,342,o),
(41,342,q),
(104,360,l),
(104,360,o),
(104,360,o),
(123,216,o),
(175,104,o),
(293,36,o),
(381,36,qs),
(525,36,o),
(754,225,o),
(807,410,qs),
(821,461,ls),
(874,646,o),
(746,855,o),
(604,855,qs),
(514,855,o),
(340,761,o),
(241,664,q),
(243,664,o),
(241,664,o),
(241,664,q),
(177,688,l),
(177,688,o),
(177,688,o),
(177,688,q),
(466,1432,l),
(466,1432,o),
(466,1432,o),
(466,1432,q),
(1101,1432,l),
(1101,1432,o),
(1101,1432,o),
(1101,1432,q),
(1081,1368,l),
(1081,1368,o),
(1081,1368,o),
(1081,1368,q),
(510,1368,l),
(268,754,l),
(271,751,l),
(339,827,o),
(515,915,o),
(615,915,qs),
(781,915,o),
(946,664,o),
(888,448,q),
(872,396,l),
(811,183,o),
(552,-24,o),
(374,-24,qs)
);
}
);
width = 1001;
}
);
unicode = 53;
},
{
glyphname = six;
layers = (
{
layerId = "273C7328-CB47-413D-AC7C-0BE6F8E8A458";
shapes = (
{
closed = 1;
nodes = (
(248,-29,o),
(33,277,o),
(92,489,q),
(92,489,l),
(131,621,o),
(319,853,o),
(484,999,qs),
(998,1461,l),
(998,1461,o),
(998,1461,o),
(998,1461,q),
(1039,1413,l),
(1039,1413,o),
(1039,1413,o),
(1039,1413,q),
(555,978,l),
(518,948,o),
(206,700,o),
(148,478,q),
(97,481,l),
(207,746,o),
(551,935,o),
(708,935,qs),
(914,935,o),
(1118,648,o),
(1058,429,q),
(1058,429,l),
(1002,225,o),
(684,-29,o),
(466,-29,qs)
);
},
{
closed = 1;
nodes = (
(648,32,o),
(936,252,o),
(991,439,q),
(991,439,l),
(1047,637,o),
(870,875,o),
(696,875,qs),
(507,875,o),
(217,673,o),
(161,479,q),
(161,479,l),
(106,292,o),
(285,32,o),
(474,32,qs)
);
}
);
width = 1185;
},
{
layerId = "A94F09BD-5AF2-4283-88E8-66664EC1ECC6";
shapes = (
{
closed = 1;
nodes = (
(242,-34,o),
(12,280,o),
(76,507,q),
(76,507,l),
(115,645,o),
(339,916,o),
(534,1087,qs),
(981,1486,l),
(981,1486,o),
(981,1486,o),
(981,1486,q),
(1105,1343,l),
(1105,1343,o),
(1105,1343,o),
(1105,1343,q),
(694,992,l),
(683,990,o),
(319,764,o),
(222,496,q),
(101,509,l),
(258,754,o),
(598,954,o),
(733,954,qs),
(924,954,o),
(1158,663,o),
(1094,433,q),
(1094,433,l),
(1035,220,o),
(701,-34,o),
(484,-34,qs)
);
},
{
closed = 1;
nodes = (
(639,145,o),
(858,319,o),
(900,459,q),
(900,459,l),
(940,602,o),
(813,782,o),
(680,782,qs),
(534,782,o),
(313,609,o),
(273,469,q),
(273,469,l),
(233,329,o),
(369,145,o),
(506,145,qs)
);
}
);
width = 1200;
},
{
layerId = "44639B77-8764-4A8F-BB1F-F8171CA5D8DC";
shapes = (
{
closed = 1;
nodes = (
(278,-35,o),
(0,312,o),
(70,556,q),
(70,556,l),
(113,710,o),
(344,961,o),
(607,1175,qs),
(1004,1505,l),
(1004,1505,o),
(1004,1505,o),
(1004,1505,q),
(1259,1248,l),
(1259,1248,o),
(1259,1248,o),
(1259,1248,q),
(945,992,l),
(906,962,o),
(582,869,o),
(391,525,q),
(130,558,l),
(307,828,o),
(801,982,o),
(931,982,qs),
(1125,982,o),
(1331,690,o),
(1269,469,q),
(1269,469,l),
(1205,239,o),
(818,-35,o),
(553,-35,qs)
);
},
{
closed = 1;
nodes = (
(696,335,o),
(808,426,o),
(832,507,q),
(832,507,l),
(856,586,o),
(791,692,o),
(718,692,qs),
(643,692,o),
(533,603,o),
(508,523,q),
(508,523,l),
(484,438,o),
(551,335,o),
(622,335,qs)
);
}
);
width = 1349;
},
{
layerId = "817588ED-5808-41C3-839F-29DF09BEEDB0";
shapes = (
{
closed = 1;
nodes = (
(242,-33,o),
(-14,307,o),
(57,553,q),
(57,553,l),
(98,702,o),
(306,946,o),
(538,1150,qs),
(931,1503,l),
(931,1503,o),
(931,1503,o),
(931,1503,q),
(1191,1255,l),
(1191,1255,o),
(1190,1254,o),
(1191,1255,q),
(889,994,l),
(848,956,o),
(532,851,o),
(364,520,q),
(119,545,l),
(272,807,o),
(703,964,o),
(857,964,qs),
(1046,964,o),
(1240,676,o),
(1179,460,q),
(1179,460,l),
(1115,230,o),
(758,-33,o),
(507,-33,qs)
);
},
{
closed = 1;
nodes = (
(633,325,o),
(728,411,o),
(750,487,q),
(755,501,l),
(777,576,o),
(727,674,o),
(664,674,qs),
(600,674,o),
(505,591,o),
(482,512,q),
(478,500,l),
(455,421,o),
(510,325,o),
(571,325,qs)
);
}
);
width = 1249;
},
{
layerId = "EDA62EAC-6B85-401B-87A5-B3BF46271524";
shapes = (
{
closed = 1;
nodes = (
(203,-30,o),
(1,260,o),
(62,476,qs),
(75,520,ls),
(113,658,o),
(306,914,o),
(478,1074,q),
(892,1475,l),
(892,1475,o),
(892,1475,o),
(892,1475,q),
(1021,1346,l),
(1021,1346,o),
(1021,1346,o),
(1021,1346,q),
(650,995,l),
(626,974,o),
(309,776,o),
(222,504,q),
(103,512,l),
(236,759,o),
(543,942,o),
(671,942,qs),
(840,942,o),
(1041,673,o),
(980,454,qs),
(967,409,ls),
(910,199,o),
(618,-30,o),
(420,-30,qs)
);
},
{
closed = 1;
nodes = (
(553,143,o),
(736,299,o),
(776,433,q),
(789,480,ls),
(827,617,o),
(726,775,o),
(612,775,qs),
(490,775,o),
(306,624,o),
(268,484,q),
(255,441,ls),
(217,305,o),
(326,143,o),
(441,143,qs)
);
}
);
width = 1075;
},
{
layerId = "39C1B3C2-F87B-41E1-BD8E-10B05E3B9737";
shapes = (
{
closed = 1;
nodes = (
(204,-26,o),
(22,255,o),
(78,457,q),
(91,500,ls),
(129,635,o),
(300,864,o),
(458,1012,q),
(915,1458,l),
(915,1458,o),
(915,1458,o),
(915,1458,q),
(957,1413,l),
(957,1413,o),
(957,1413,o),
(957,1413,q),
(525,987,l),
(504,972,o),
(239,757,o),
(188,615,q),
(103,488,l),
(206,747,o),
(495,928,o),
(640,928,qs),
(817,928,o),
(994,662,o),
(936,452,qs),
(923,406,ls),
(867,207,o),
(596,-26,o),
(397,-26,qs)
);
},
{
closed = 1;
nodes = (
(557,34,o),
(803,232,o),
(856,417,qs),
(869,463,ls),
(923,655,o),
(774,870,o),
(626,870,qs),
(462,870,o),
(212,683,o),
(160,492,q),
(145,448,l),
(94,266,o),
(244,34,o),
(406,34,qs)
);
}
);
width = 1049;
}
);
unicode = 54;
},
{
glyphname = seven;
layers = (
{
layerId = "273C7328-CB47-413D-AC7C-0BE6F8E8A458";
shapes = (
{
closed = 1;
nodes = (
(52,15,l),
(52,15,o),
(52,15,o),
(52,15,q),
(1138,1363,l),
(1139,1367,l),
(295,1367,l),
(295,1367,o),
(295,1367,o),
(295,1367,q),
(312,1432,l),
(312,1432,o),
(312,1432,o),
(312,1432,q),
(1251,1432,l),
(1251,1432,o),
(1251,1432,o),
(1251,1432,q),
(1233,1372,o),
(1233,1372,o),
(1231,1370,q),
(113,-23,l),
(113,-23,o),
(113,-23,o),
(113,-23,q)
);
}
);
width = 1049;
},
{
layerId = "A94F09BD-5AF2-4283-88E8-66664EC1ECC6";
shapes = (
{
closed = 1;
nodes = (
(21,78,l),
(21,78,o),
(21,78,o),
(21,78,q),
(977,1240,l),
(976,1246,l),
(251,1246,l),
(251,1246,o),
(251,1246,o),
(251,1246,q),
(304,1432,l),
(304,1432,o),
(304,1432,o),
(304,1432,q),
(1276,1432,l),
(1276,1432,o),
(1276,1432,o),
(1276,1432,q),
(1224,1241,o),
(1224,1241,o),
(1215,1231,q),
(186,-36,l),
(186,-36,o),
(186,-36,o),
(186,-36,q)
);
}
);
width = 1065;
},
{
layerId = "44639B77-8764-4A8F-BB1F-F8171CA5D8DC";
shapes = (
{
closed = 1;
nodes = (
(27,146,l),
(27,146,o),
(27,146,o),
(27,146,q),
(759,1030,l),
(757,1039,l),
(194,1039,l),
(194,1039,o),
(194,1039,o),
(194,1039,q),
(304,1432,l),
(304,1432,o),
(304,1432,o),
(304,1432,q),
(1377,1432,l),
(1377,1432,o),
(1377,1432,o),
(1377,1432,q),
(1278,1063,o),
(1278,1063,o),
(1259,1041,qs),
(352,-58,l),
(352,-58,o),
(352,-58,o),
(352,-58,q)
);
}
);
width = 1173;
},
{
layerId = "817588ED-5808-41C3-839F-29DF09BEEDB0";
shapes = (
{
closed = 1;
nodes = (
(0,137,l),
(0,137,o),
(0,137,o),
(0,137,q),
(706,1038,l),
(705,1047,l),
(186,1047,l),
(186,1047,o),
(186,1047,o),
(186,1047,q),
(293,1432,l),
(293,1432,o),
(293,1432,o),
(293,1432,q),
(1314,1432,l),
(1314,1432,o),
(1314,1432,o),
(1314,1432,q),
(1221,1099,o),
(1221,1099,o),
(1207,1082,q),
(336,-55,l),
(336,-55,o),
(336,-55,o),
(336,-55,q)
);
}
);
width = 1097;
},
{
layerId = "EDA62EAC-6B85-401B-87A5-B3BF46271524";
shapes = (
{
closed = 1;
nodes = (
(3,70,l),
(3,70,o),
(3,70,o),
(3,70,q),
(876,1245,l),
(875,1251,l),
(247,1251,l),
(247,1251,o),
(247,1251,o),
(247,1251,q),
(298,1432,l),
(298,1432,o),
(298,1432,o),
(298,1432,q),
(1163,1432,l),
(1163,1432,o),
(1163,1432,o),
(1163,1432,q),
(1115,1261,o),
(1115,1261,o),
(1108,1250,q),
(167,-31,l),
(167,-31,o),
(167,-31,o),
(167,-31,q)
);
}
);
width = 949;
},
{
layerId = "39C1B3C2-F87B-41E1-BD8E-10B05E3B9737";
shapes = (
{
closed = 1;
nodes = (
(25,14,l),
(25,14,o),
(25,14,o),
(25,14,q),
(1020,1365,l),
(1022,1369,l),
(287,1369,l),
(287,1369,o),
(287,1369,o),
(287,1369,q),
(305,1432,l),
(305,1432,o),
(305,1432,o),
(305,1432,q),
(1128,1432,l),
(1128,1432,o),
(1128,1432,o),
(1128,1432,q),
(1112,1379,o),
(1112,1379,o),
(1114,1381,q),
(87,-20,l),
(87,-20,o),
(87,-20,o),
(87,-20,q)
);
}
);
width = 920;
}
);
unicode = 55;
},
{
glyphname = eight;
layers = (
{
layerId = "273C7328-CB47-413D-AC7C-0BE6F8E8A458";
shapes = (
{
closed = 1;
nodes = (
(249,-29,o),
(49,235,o),
(100,417,q),
(100,417,l),
(145,571,o),
(391,757,o),
(540,776,q),
(540,780,l),
(435,803,o),
(324,997,o),
(363,1129,q),
(363,1129,l),
(404,1273,o),
(655,1462,o),
(829,1462,qs),
(1010,1462,o),
(1195,1233,o),
(1152,1073,q),
(1152,1073,l),
(1112,946,o),
(909,797,o),
(782,775,q),
(784,771,l),
(909,752,o),
(1059,531,o),
(1009,357,q),
(1009,357,l),
(958,179,o),
(662,-29,o),
(454,-29,qs)
);
},
{
closed = 1;
nodes = (
(635,33,o),
(893,208,o),
(939,365,q),
(939,365,l),
(983,526,o),
(829,740,o),
(653,740,qs),
(475,740,o),
(211,558,o),
(169,402,q),
(169,402,l),
(123,248,o),
(290,33,o),
(465,33,qs)
);
},
{
closed = 1;
nodes = (
(814,801,o),
(1046,954,o),
(1084,1084,q),
(1084,1084,l),
(1121,1214,o),
(971,1401,o),
(820,1401,qs),
(675,1401,o),
(463,1238,o),
(428,1118,q),
(428,1118,l),
(391,991,o),
(516,801,o),
(668,801,qs)
);
}
);
width = 1185;
},
{
layerId = "A94F09BD-5AF2-4283-88E8-66664EC1ECC6";
shapes = (
{
closed = 1;
nodes = (
(248,-34,o),
(20,242,o),
(72,421,q),
(72,421,l),
(111,557,o),
(311,728,o),
(449,767,q),
(449,773,l),
(354,824,o),
(275,999,o),
(309,1112,q),
(309,1112,l),
(355,1271,o),
(621,1466,o),
(822,1466,qs),
(1021,1466,o),
(1242,1223,o),
(1195,1055,q),
(1195,1055,l),
(1160,938,o),
(996,799,o),
(882,766,q),
(882,760,l),
(986,721,o),
(1100,515,o),
(1057,368,q),
(1057,368,l),
(1005,188,o),
(689,-34,o),
(470,-34,qs)
);
},
{
closed = 1;
nodes = (
(633,143,o),
(828,286,o),
(861,394,q),
(861,394,l),
(893,511,o),
(770,672,o),
(634,672,qs),
(501,672,o),
(302,528,o),
(270,420,q),
(270,420,l),
(236,305,o),
(363,143,o),
(499,143,qs)
);
},
{
closed = 1;
nodes = (
(804,847,o),
(969,965,o),
(996,1060,q),
(996,1060,l),
(1025,1160,o),
(914,1290,o),
(802,1290,qs),
(694,1290,o),
(530,1173,o),
(505,1078,q),
(505,1078,l),
(476,976,o),
(587,847,o),
(698,847,qs)
);
}
);
width = 1206;
},
{
layerId = "44639B77-8764-4A8F-BB1F-F8171CA5D8DC";
shapes = (
{
closed = 1;
nodes = (
(264,-37,o),
(-12,245,o),
(43,440,q),
(43,440,l),
(76,557,o),
(256,723,o),
(403,765,q),
(403,774,l),
(310,828,o),
(252,1004,o),
(280,1098,q),
(280,1098,l),
(330,1265,o),
(644,1470,o),
(873,1470,qs),
(1131,1470,o),
(1396,1201,o),
(1347,1029,q),
(1347,1029,l),
(1318,932,o),
(1163,804,o),
(1036,766,q),
(1036,757,l),
(1152,712,o),
(1252,498,o),
(1217,376,q),
(1217,376,l),
(1162,180,o),
(813,-37,o),
(550,-37,qs)
);
},
{
closed = 1;
nodes = (
(670,307,o),
(779,384,o),
(798,452,q),
(798,452,l),
(819,525,o),
(747,614,o),
(673,614,qs),
(601,614,o),
(491,538,o),
(473,468,q),
(473,468,l),
(451,398,o),
(525,307,o),
(598,307,qs)
);
},
{
closed = 1;
nodes = (
(831,880,o),
(927,947,o),
(945,1005,q),
(945,1005,l),
(961,1064,o),
(894,1140,o),
(836,1140,qs),
(781,1140,o),
(690,1075,o),
(674,1014,q),
(674,1014,l),
(656,955,o),
(718,880,o),
(777,880,qs)
);
}
);
width = 1330;
},
{
layerId = "817588ED-5808-41C3-839F-29DF09BEEDB0";
shapes = (
{
closed = 1;
nodes = (
(240,-34,o),
(-22,243,o),
(32,441,q),
(32,441,l),
(67,562,o),
(242,726,o),
(386,766,q),
(388,775,l),
(296,824,o),
(235,1009,o),
(266,1105,q),
(266,1105,l),
(315,1273,o),
(611,1467,o),
(832,1467,qs),
(1079,1467,o),
(1330,1207,o),
(1281,1033,q),
(1281,1033,l),
(1250,933,o),
(1100,802,o),
(968,764,q),
(967,755,l),
(1081,712,o),
(1178,496,o),
(1143,368,q),
(1141,369,l),
(1089,174,o),
(757,-34,o),
(508,-34,qs)
);
},
{
closed = 1;
nodes = (
(622,308,o),
(714,381,o),
(733,448,q),
(736,462,l),
(757,531,o),
(700,615,o),
(635,615,qs),
(571,615,o),
(478,540,o),
(460,473,q),
(457,459,l),
(434,394,o),
(494,308,o),
(556,308,qs)
);
},
{
closed = 1;
nodes = (
(778,878,o),
(862,942,o),
(879,998,qs),
(882,1008,l),
(898,1067,o),
(845,1139,o),
(792,1139,qs),
(743,1139,o),
(663,1076,o),
(647,1017,q),
(644,1007,ls),
(628,951,o),
(677,878,o),
(731,878,qs)
);
}
);
width = 1248;
},
{
layerId = "EDA62EAC-6B85-401B-87A5-B3BF46271524";
shapes = (
{
closed = 1;
nodes = (
(213,-30,o),
(9,228,o),
(60,404,qs),
(73,449,ls),
(110,577,o),
(290,736,o),
(417,769,q),
(417,775,l),
(327,827,o),
(260,989,o),
(291,1090,q),
(300,1124,l),
(347,1284,o),
(587,1462,o),
(767,1462,qs),
(948,1462,o),
(1147,1233,o),
(1100,1066,qs),
(1091,1032,l),
(1059,924,o),
(910,796,o),
(801,766,q),
(801,760,l),
(896,723,o),
(997,531,o),
(957,393,qs),
(944,349,ls),
(895,171,o),
(613,-30,o),
(415,-30,qs)
);
},
{
closed = 1;
nodes = (
(555,141,o),
(720,271,o),
(753,378,q),
(764,420,ls),
(795,532,o),
(695,675,o),
(578,675,qs),
(464,675,o),
(297,542,o),
(266,434,qs),
(255,397,ls),
(223,285,o),
(326,141,o),
(440,141,qs)
);
},
{
closed = 1;
nodes = (
(730,844,o),
(871,950,o),
(898,1045,qs),
(907,1079,l),
(935,1174,o),
(845,1290,o),
(749,1290,qs),
(656,1290,o),
(516,1182,o),
(490,1089,q),
(481,1058,l),
(453,960,o),
(543,844,o),
(639,844,qs)
);
}
);
width = 1091;
},
{
layerId = "39C1B3C2-F87B-41E1-BD8E-10B05E3B9737";
shapes = (
{
closed = 1;
nodes = (
(217,-25,o),
(39,218,o),
(89,393,qs),
(100,433,ls),
(143,586,o),
(360,758,o),
(501,777,q),
(501,781,l),
(403,806,o),
(307,981,o),
(344,1107,qs),
(354,1139,l),
(395,1285,o),
(621,1458,o),
(777,1458,qs),
(937,1458,o),
(1102,1245,o),
(1058,1092,q),
(1050,1060,l),
(1012,933,o),
(828,793,o),
(715,774,q),
(716,770,l),
(828,750,o),
(963,548,o),
(915,379,qs),
(904,341,ls),
(855,168,o),
(590,-25,o),
(402,-25,qs)
);
},
{
closed = 1;
nodes = (
(564,35,o),
(789,197,o),
(835,350,q),
(845,389,ls),
(886,545,o),
(751,741,o),
(596,741,qs),
(440,741,o),
(208,572,o),
(168,419,q),
(157,381,ls),
(113,232,o),
(256,35,o),
(412,35,qs)
);
},
{
closed = 1;
nodes = (
(744,801,o),
(945,940,o),
(983,1071,qs),
(991,1099,ls),
(1028,1226,o),
(902,1398,o),
(769,1398,qs),
(641,1398,o),
(453,1248,o),
(418,1128,qs),
(410,1098,l),
(373,974,o),
(482,801,o),
(615,801,qs)
);
}
);
width = 1077;
}
);
unicode = 56;
},
{
glyphname = nine;
layers = (
{
layerId = "273C7328-CB47-413D-AC7C-0BE6F8E8A458";
shapes = (
{
closed = 1;
nodes = (
(1050,1462,o),
(1261,1155,o),
(1204,943,q),
(1204,943,l),
(1164,812,o),
(977,579,o),
(814,433,qs),
(298,-29,l),
(298,-29,o),
(298,-29,o),
(298,-29,q),
(256,20,l),
(256,20,o),
(256,20,o),
(256,20,q),
(742,454,l),
(780,484,o),
(1092,733,o),
(1149,954,q),
(1201,951,l),
(1090,686,o),
(746,498,o),
(590,498,qs),
(381,498,o),
(177,786,o),
(238,1003,q),
(238,1003,l),
(296,1207,o),
(613,1462,o),
(830,1462,qs)
);
},
{
closed = 1;
nodes = (
(648,1400,o),
(359,1181,o),
(306,993,q),
(306,993,l),
(250,795,o),
(427,558,o),
(603,558,qs),
(790,558,o),
(1080,759,o),
(1136,955,q),
(1136,955,l),
(1189,1140,o),
(1012,1400,o),
(822,1400,qs)
);
}
);
width = 1185;
},
{
layerId = "A94F09BD-5AF2-4283-88E8-66664EC1ECC6";
shapes = (
{
closed = 1;
nodes = (
(1065,1467,o),
(1292,1152,o),
(1229,925,q),
(1229,925,l),
(1189,787,o),
(965,516,o),
(772,345,qs),
(324,-54,l),
(324,-54,o),
(324,-54,o),
(324,-54,q),
(199,90,l),
(199,90,o),
(199,90,o),
(199,90,q),
(611,440,l),
(624,442,o),
(987,669,o),
(1084,936,q),
(1206,923,l),
(1048,678,o),
(707,478,o),
(573,478,qs),
(380,478,o),
(146,769,o),
(210,999,q),
(210,999,l),
(271,1212,o),
(605,1467,o),
(820,1467,qs)
);
},
{
closed = 1;
nodes = (
(665,1287,o),
(446,1114,o),
(406,973,q),
(406,973,l),
(366,830,o),
(492,651,o),
(627,651,qs),
(772,651,o),
(994,823,o),
(1034,964,q),
(1034,964,l),
(1072,1103,o),
(937,1287,o),
(798,1287,qs)
);
}
);
width = 1200;
},
{
layerId = "44639B77-8764-4A8F-BB1F-F8171CA5D8DC";
shapes = (
{
closed = 1;
nodes = (
(1176,1467,o),
(1452,1119,o),
(1383,875,q),
(1383,875,l),
(1338,722,o),
(1108,470,o),
(847,257,qs),
(451,-74,l),
(451,-74,o),
(451,-74,o),
(451,-74,q),
(193,184,l),
(193,184,o),
(193,184,o),
(193,184,q),
(509,439,l),
(548,469,o),
(874,563,o),
(1062,906,q),
(1326,874,l),
(1146,603,o),
(653,449,o),
(525,449,qs),
(326,449,o),
(122,743,o),
(184,962,q),
(184,962,l),
(250,1192,o),
(636,1467,o),
(900,1467,qs)
);
},
{
closed = 1;
nodes = (
(755,1096,o),
(644,1006,o),
(622,924,q),
(622,924,l),
(598,844,o),
(663,740,o),
(737,740,qs),
(811,740,o),
(923,828,o),
(947,909,q),
(947,909,l),
(969,992,o),
(903,1096,o),
(829,1096,qs)
);
}
);
width = 1349;
},
{
layerId = "817588ED-5808-41C3-839F-29DF09BEEDB0";
shapes = (
{
closed = 1;
nodes = (
(1114,1465,o),
(1365,1124,o),
(1298,879,q),
(1297,879,l),
(1253,730,o),
(1047,486,o),
(815,283,qs),
(423,-72,l),
(423,-72,o),
(423,-72,o),
(423,-72,q),
(162,178,l),
(162,178,o),
(161,178,o),
(162,178,q),
(464,438,ls),
(506,475,o),
(824,581,o),
(991,911,q),
(1237,886,l),
(1083,624,o),
(652,468,o),
(499,468,qs),
(305,468,o),
(113,757,o),
(176,972,q),
(176,972,l),
(240,1201,o),
(595,1465,o),
(848,1465,qs)
);
},
{
closed = 1;
nodes = (
(719,1107,o),
(625,1022,o),
(603,945,q),
(600,931,l),
(576,854,o),
(627,758,o),
(692,758,qs),
(755,758,o),
(851,840,o),
(875,920,q),
(878,932,l),
(901,1010,o),
(848,1107,o),
(784,1107,qs)
);
}
);
width = 1249;
},
{
layerId = "EDA62EAC-6B85-401B-87A5-B3BF46271524";
shapes = (
{
closed = 1;
nodes = (
(979,1463,o),
(1178,1172,o),
(1119,956,qs),
(1106,912,ls),
(1066,774,o),
(873,518,o),
(703,358,q),
(288,-43,l),
(288,-43,o),
(288,-43,o),
(288,-43,q),
(158,87,l),
(158,87,o),
(158,87,o),
(158,87,q),
(531,437,l),
(556,458,o),
(872,657,o),
(958,928,q),
(1078,920,l),
(944,673,o),
(638,490,o),
(510,490,qs),
(339,490,o),
(138,759,o),
(199,978,qs),
(212,1023,ls),
(271,1233,o),
(562,1463,o),
(761,1463,qs)
);
},
{
closed = 1;
nodes = (
(626,1289,o),
(443,1134,o),
(405,999,qs),
(392,952,ls),
(354,815,o),
(454,658,o),
(571,658,qs),
(692,658,o),
(875,808,o),
(915,949,q),
(927,992,l),
(965,1127,o),
(857,1289,o),
(739,1289,qs)
);
}
);
width = 1075;
},
{
layerId = "39C1B3C2-F87B-41E1-BD8E-10B05E3B9737";
shapes = (
{
closed = 1;
nodes = (
(958,1458,o),
(1137,1175,o),
(1083,974,q),
(1070,930,ls),
(1030,797,o),
(859,567,o),
(703,418,qs),
(244,-27,l),
(244,-27,o),
(244,-27,o),
(244,-27,q),
(201,19,l),
(201,19,o),
(201,19,o),
(201,19,q),
(637,444,l),
(657,458,o),
(923,675,o),
(971,815,q),
(1056,943,l),
(955,683,o),
(666,503,o),
(523,503,qs),
(342,503,o),
(166,770,o),
(224,978,qs),
(237,1024,ls),
(293,1224,o),
(566,1458,o),
(762,1458,qs)
);
},
{
closed = 1;
nodes = (
(600,1397,o),
(356,1199,o),
(305,1014,q),
(290,967,l),
(238,775,o),
(385,561,o),
(536,561,qs),
(700,561,o),
(948,748,o),
(1004,941,q),
(1015,984,l),
(1068,1165,o),
(918,1397,o),
(754,1397,qs)
);
}
);
width = 1049;
}
);
unicode = 57;
},
{
glyphname = colon;
layers = (
{
layerId = "273C7328-CB47-413D-AC7C-0BE6F8E8A458";
shapes = (
{
closed = 1;
nodes = (
(348,849,o),
(292,903,o),
(292,946,qs),
(292,984,o),
(348,1039,o),
(388,1039,qs),
(427,1039,o),
(484,984,o),
(484,946,qs),
(484,903,o),
(427,849,o),
(388,849,qs)
);
},
{
closed = 1;
nodes = (
(106,-10,o),
(51,45,o),
(51,87,qs),
(51,126,o),
(106,182,o),
(146,182,qs),
(186,182,o),
(242,126,o),
(242,87,qs),
(242,45,o),
(186,-10,o),
(146,-10,qs)
);
}
);
width = 538;
},
{
layerId = "A94F09BD-5AF2-4283-88E8-66664EC1ECC6";
shapes = (
{
closed = 1;
nodes = (
(335,759,o),
(245,847,o),
(245,912,qs),
(245,974,o),
(335,1061,o),
(398,1061,qs),
(462,1061,o),
(551,974,o),
(551,912,qs),
(551,847,o),
(462,759,o),
(398,759,qs)
);
},
{
closed = 1;
nodes = (
(117,-12,o),
(28,76,o),
(28,141,qs),
(28,203,o),
(117,291,o),
(180,291,qs),
(245,291,o),
(333,203,o),
(333,141,qs),
(333,76,o),
(245,-12,o),
(180,-12,qs)
);
}
);
width = 580;
},
{
layerId = "44639B77-8764-4A8F-BB1F-F8171CA5D8DC";
shapes = (
{
closed = 1;
nodes = (
(338,630,o),
(199,769,o),
(199,870,qs),
(199,971,o),
(338,1108,o),
(440,1108,qs),
(543,1108,o),
(679,971,o),
(679,870,qs),
(679,769,o),
(543,630,o),
(440,630,qs)
);
},
{
closed = 1;
nodes = (
(155,-19,o),
(15,120,o),
(15,221,qs),
(15,322,o),
(155,460,o),
(258,460,qs),
(359,460,o),
(497,322,o),
(497,221,qs),
(497,120,o),
(359,-19,o),
(258,-19,qs)
);
}
);
width = 681;
},
{
layerId = "817588ED-5808-41C3-839F-29DF09BEEDB0";
shapes = (
{
closed = 1;
nodes = (
(322,632,o),
(185,768,o),
(185,869,qs),
(185,969,o),
(322,1104,o),
(423,1104,qs),
(525,1104,o),
(659,969,o),
(659,869,qs),
(659,768,o),
(525,632,o),
(423,632,qs)
);
},
{
closed = 1;
nodes = (
(139,-19,o),
(1,118,o),
(1,218,qs),
(1,318,o),
(139,455,o),
(239,455,qs),
(341,455,o),
(477,319,o),
(477,219,qs),
(477,119,o),
(341,-19,o),
(239,-19,qs)
);
}
);
width = 652;
},
{
layerId = "EDA62EAC-6B85-401B-87A5-B3BF46271524";
shapes = (
{
closed = 1;
nodes = (
(321,767,o),
(233,852,o),
(233,916,qs),
(233,976,o),
(321,1061,o),
(383,1061,qs),
(445,1061,o),
(532,976,o),
(532,916,qs),
(532,852,o),
(445,767,o),
(383,767,qs)
);
},
{
closed = 1;
nodes = (
(102,-12,o),
(14,74,o),
(14,137,qs),
(14,197,o),
(102,283,o),
(164,283,qs),
(226,283,o),
(313,197,o),
(313,137,qs),
(313,74,o),
(226,-12,o),
(164,-12,qs)
);
}
);
width = 549;
},
{
layerId = "39C1B3C2-F87B-41E1-BD8E-10B05E3B9737";
shapes = (
{
closed = 1;
nodes = (
(337,854,o),
(281,906,o),
(281,949,qs),
(281,986,o),
(336,1039,o),
(375,1039,qs),
(414,1039,o),
(470,986,o),
(470,949,qs),
(470,906,o),
(414,854,o),
(375,854,qs)
);
},
{
closed = 1;
nodes = (
(95,-10,o),
(40,45,o),
(40,85,qs),
(40,123,o),
(94,178,o),
(133,178,qs),
(173,178,o),
(228,124,o),
(228,85,qs),
(228,45,o),
(173,-10,o),
(133,-10,qs)
);
}
);
width = 513;
}
);
leftKerningGroup = public.kern2.colon2;
rightKerningGroup = public.kern1.colon;
unicode = 58;
},
{
glyphname = semicolon;
layers = (
{
layerId = "273C7328-CB47-413D-AC7C-0BE6F8E8A458";
shapes = (
{
closed = 1;
nodes = (
(380,849,o),
(325,903,o),
(325,945,qs),
(325,984,o),
(380,1039,o),
(421,1039,qs),
(461,1039,o),
(516,983,o),
(516,946,qs),
(516,903,o),
(461,849,o),
(421,849,qs)
);
},
{
closed = 1;
nodes = (
(122,-6,l),
(90,0,o),
(48,45,o),
(48,81,qs),
(48,121,o),
(105,176,o),
(146,176,qs),
(184,176,o),
(241,118,o),
(241,79,qs),
(241,54,o),
(220,2,o),
(193,-31,q),
(-13,-239,l),
(-13,-239,o),
(-13,-239,o),
(-62,-193,q)
);
}
);
width = 538;
},
{
layerId = "A94F09BD-5AF2-4283-88E8-66664EC1ECC6";
shapes = (
{
closed = 1;
nodes = (
(345,759,o),
(255,847,o),
(255,911,qs),
(255,974,o),
(345,1061,o),
(407,1061,qs),
(472,1061,o),
(560,973,o),
(560,912,qs),
(560,847,o),
(472,759,o),
(407,759,qs)
);
},
{
closed = 1;
nodes = (
(118,5,l),
(83,20,o),
(37,85,o),
(37,130,qs),
(37,190,o),
(124,273,o),
(185,273,qs),
(244,273,o),
(330,192,o),
(330,135,qs),
(330,85,o),
(293,8,o),
(248,-39,q),
(32,-254,l),
(32,-254,o),
(32,-254,o),
(-60,-172,q)
);
}
);
width = 580;
},
{
layerId = "44639B77-8764-4A8F-BB1F-F8171CA5D8DC";
shapes = (
{
closed = 1;
nodes = (
(333,630,o),
(192,769,o),
(192,869,qs),
(192,971,o),
(333,1108,o),
(433,1108,qs),
(535,1108,o),
(673,970,o),
(673,870,qs),
(673,769,o),
(535,630,o),
(433,630,qs)
);
},
{
closed = 1;
nodes = (
(96,51,l),
(65,70,o),
(10,163,o),
(10,230,qs),
(10,324,o),
(153,456,o),
(252,456,qs),
(352,456,o),
(486,326,o),
(486,232,qs),
(486,155,o),
(432,45,o),
(376,-13,qs),
(79,-318,l),
(79,-318,o),
(79,-318,o),
(-105,-157,q)
);
}
);
width = 681;
},
{
layerId = "817588ED-5808-41C3-839F-29DF09BEEDB0";
shapes = (
{
closed = 1;
nodes = (
(323,632,o),
(184,768,o),
(184,868,qs),
(184,969,o),
(322,1104,o),
(422,1104,qs),
(523,1104,o),
(658,968,o),
(658,869,qs),
(658,768,o),
(522,632,o),
(421,632,qs)
);
},
{
closed = 1;
nodes = (
(89,49,l),
(54,70,o),
(-2,161,o),
(-2,226,qs),
(-2,319,o),
(139,453,o),
(238,453,qs),
(335,453,o),
(472,324,o),
(472,227,qs),
(472,159,o),
(420,50,o),
(363,-12,qs),
(80,-311,l),
(80,-311,o),
(80,-311,o),
(-103,-157,q)
);
}
);
width = 652;
},
{
layerId = "EDA62EAC-6B85-401B-87A5-B3BF46271524";
shapes = (
{
closed = 1;
nodes = (
(328,767,o),
(241,852,o),
(241,915,qs),
(241,976,o),
(328,1061,o),
(389,1061,qs),
(452,1061,o),
(538,975,o),
(538,916,qs),
(538,852,o),
(452,767,o),
(389,767,qs)
);
},
{
closed = 1;
nodes = (
(103,7,l),
(68,21,o),
(23,85,o),
(23,131,qs),
(23,189,o),
(106,270,o),
(168,270,qs),
(226,270,o),
(311,191,o),
(311,133,qs),
(311,87,o),
(276,15,o),
(232,-34,q),
(21,-249,l),
(21,-249,o),
(21,-249,o),
(-71,-171,q)
);
}
);
width = 549;
},
{
layerId = "39C1B3C2-F87B-41E1-BD8E-10B05E3B9737";
shapes = (
{
closed = 1;
nodes = (
(364,854,o),
(311,906,o),
(311,948,qs),
(311,985,o),
(364,1039,o),
(404,1039,qs),
(443,1039,o),
(497,985,o),
(497,949,qs),
(497,906,o),
(443,854,o),
(404,854,qs)
);
},
{
closed = 1;
nodes = (
(106,-5,l),
(79,1,o),
(38,46,o),
(38,80,qs),
(38,120,o),
(92,175,o),
(134,175,qs),
(171,175,o),
(228,119,o),
(228,80,qs),
(228,56,o),
(205,9,o),
(178,-28,q),
(-16,-228,l),
(-16,-228,o),
(-16,-228,o),
(-64,-185,q)
);
}
);
width = 513;
}
);
leftKerningGroup = public.kern2.colon2;
rightKerningGroup = public.kern1.colon;
unicode = 59;
},
{
glyphname = less;
layers = (
{
layerId = "273C7328-CB47-413D-AC7C-0BE6F8E8A458";
shapes = (
{
closed = 1;
nodes = (
(180,597,l),
(180,597,o),
(180,597,o),
(180,597,q),
(180,685,l),
(180,685,o),
(180,685,o),
(180,685,q),
(1019,1040,l),
(1019,1040,o),
(1019,1040,o),
(1019,1040,q),
(1019,965,l),
(1019,965,o),
(1019,965,o),
(1019,965,q),
(243,643,l),
(243,640,l),
(1019,315,l),
(1019,315,o),
(1019,315,o),
(1019,315,q),
(1019,241,l),
(1019,241,o),
(1019,241,o),
(1019,241,q)
);
}
);
width = 1170;
},
{
layerId = "A94F09BD-5AF2-4283-88E8-66664EC1ECC6";
shapes = (
{
closed = 1;
nodes = (
(142,552,l),
(142,552,o),
(142,552,o),
(142,552,q),
(142,738,l),
(142,738,o),
(142,738,o),
(142,738,q),
(1040,1123,l),
(1040,1123,o),
(1040,1123,o),
(1040,1123,q),
(1040,936,l),
(1040,936,o),
(1040,936,o),
(1040,936,q),
(331,648,l),
(331,642,l),
(1040,356,l),
(1040,356,o),
(1040,356,o),
(1040,356,q),
(1040,168,l),
(1040,168,o),
(1040,168,o),
(1040,168,q)
);
}
);
width = 1194;
},
{
layerId = "44639B77-8764-4A8F-BB1F-F8171CA5D8DC";
shapes = (
{
closed = 1;
nodes = (
(121,464,l),
(121,464,o),
(121,464,o),
(121,464,q),
(121,834,l),
(121,834,o),
(121,834,o),
(121,834,q),
(1122,1209,l),
(1122,1209,o),
(1122,1209,o),
(1122,1209,q),
(1122,835,l),
(1122,835,o),
(1122,835,o),
(1122,835,q),
(542,653,l),
(542,645,l),
(1122,464,l),
(1122,464,o),
(1122,464,o),
(1122,464,q),
(1122,90,l),
(1122,90,o),
(1122,90,o),
(1122,90,q)
);
}
);
width = 1276;
},
{
layerId = "817588ED-5808-41C3-839F-29DF09BEEDB0";
shapes = (
{
closed = 1;
nodes = (
(122,466,l),
(122,466,o),
(122,466,o),
(122,466,q),
(122,832,l),
(122,832,o),
(122,832,o),
(122,832,q),
(1079,1191,l),
(1079,1191,o),
(1079,1191,o),
(1079,1191,q),
(1079,823,l),
(1079,823,o),
(1079,823,o),
(1079,823,q),
(529,653,l),
(529,645,l),
(1079,476,l),
(1079,476,o),
(1079,476,o),
(1079,476,q),
(1079,109,l),
(1079,109,o),
(1079,109,o),
(1079,109,q)
);
}
);
width = 1228;
},
{
layerId = "EDA62EAC-6B85-401B-87A5-B3BF46271524";
shapes = (
{
closed = 1;
nodes = (
(139,551,l),
(139,551,o),
(139,551,o),
(139,551,q),
(139,740,l),
(139,740,o),
(139,740,o),
(139,740,q),
(971,1099,l),
(971,1099,o),
(971,1099,o),
(971,1099,q),
(971,915,l),
(971,915,o),
(971,915,o),
(971,915,q),
(319,648,l),
(319,642,l),
(971,375,l),
(971,375,o),
(971,375,o),
(971,375,q),
(971,192,l),
(971,192,o),
(971,192,o),
(971,192,q)
);
}
);
width = 1115;
},
{
layerId = "39C1B3C2-F87B-41E1-BD8E-10B05E3B9737";
shapes = (
{
closed = 1;
nodes = (
(168,598,l),
(168,598,o),
(168,598,o),
(168,598,q),
(168,684,l),
(168,684,o),
(168,684,o),
(168,684,q),
(953,1020,l),
(953,1020,o),
(953,1020,o),
(953,1020,q),
(953,945,l),
(953,945,o),
(953,945,o),
(953,945,q),
(229,643,l),
(229,640,l),
(953,335,l),
(953,335,o),
(953,335,o),
(953,335,q),
(953,261,l),
(953,261,o),
(953,261,o),
(953,261,q)
);
}
);
width = 1102;
}
);
leftKerningGroup = public.kern2.less2;
rightKerningGroup = public.kern1.less;
unicode = 60;
},
{
glyphname = greater;
layers = (
{
layerId = "273C7328-CB47-413D-AC7C-0BE6F8E8A458";
shapes = (
{
closed = 1;
nodes = (
(1059,684,l),
(1059,684,o),
(1059,684,o),
(1059,684,q),
(1059,595,l),
(1059,595,o),
(1059,595,o),
(1059,595,q),
(220,241,l),
(220,241,o),
(220,241,o),
(220,241,q),
(220,316,l),
(220,316,o),
(220,316,o),
(220,316,q),
(996,638,l),
(996,641,l),
(220,966,l),
(220,966,o),
(220,966,o),
(220,966,q),
(220,1040,l),
(220,1040,o),
(220,1040,o),
(220,1040,q)
);
}
);
width = 1168;
},
{
layerId = "A94F09BD-5AF2-4283-88E8-66664EC1ECC6";
shapes = (
{
closed = 1;
nodes = (
(1118,740,l),
(1118,740,o),
(1118,740,o),
(1118,740,q),
(1118,552,l),
(1118,552,o),
(1118,552,o),
(1118,552,q),
(220,167,l),
(220,167,o),
(220,167,o),
(220,167,q),
(220,354,l),
(220,354,o),
(220,354,o),
(220,354,q),
(929,642,l),
(929,648,l),
(220,935,l),
(220,935,o),
(220,935,o),
(220,935,q),
(220,1123,l),
(220,1123,o),
(220,1123,o),
(220,1123,q)
);
}
);
width = 1194;
},
{
layerId = "44639B77-8764-4A8F-BB1F-F8171CA5D8DC";
shapes = (
{
closed = 1;
nodes = (
(1220,834,l),
(1220,834,o),
(1220,834,o),
(1220,834,q),
(1220,464,l),
(1220,464,o),
(1220,464,o),
(1220,464,q),
(220,89,l),
(220,89,o),
(220,89,o),
(220,89,q),
(220,463,l),
(220,463,o),
(220,463,o),
(220,463,q),
(799,645,l),
(799,653,l),
(220,835,l),
(220,835,o),
(220,835,o),
(220,835,q),
(220,1209,l),
(220,1209,o),
(220,1209,o),
(220,1209,q)
);
}
);
width = 1276;
},
{
layerId = "817588ED-5808-41C3-839F-29DF09BEEDB0";
shapes = (
{
closed = 1;
nodes = (
(1171,833,l),
(1171,833,o),
(1171,833,o),
(1171,833,q),
(1171,466,l),
(1171,466,o),
(1171,466,o),
(1171,466,q),
(216,108,l),
(216,108,o),
(216,108,o),
(216,108,q),
(216,475,l),
(216,475,o),
(216,475,o),
(216,475,q),
(764,645,l),
(764,653,l),
(216,824,l),
(216,824,o),
(216,824,o),
(216,824,q),
(216,1190,l),
(216,1190,o),
(216,1190,o),
(216,1190,q)
);
}
);
width = 1228;
},
{
layerId = "EDA62EAC-6B85-401B-87A5-B3BF46271524";
shapes = (
{
closed = 1;
nodes = (
(1042,741,l),
(1042,741,o),
(1042,741,o),
(1042,741,q),
(1042,550,l),
(1042,550,o),
(1042,550,o),
(1042,550,q),
(210,191,l),
(210,191,o),
(210,191,o),
(210,191,q),
(210,375,l),
(210,375,o),
(210,375,o),
(210,375,q),
(862,642,l),
(862,648,l),
(210,916,l),
(210,916,o),
(210,916,o),
(210,916,q),
(210,1099,l),
(210,1099,o),
(210,1099,o),
(210,1099,q)
);
}
);
width = 1115;
},
{
layerId = "39C1B3C2-F87B-41E1-BD8E-10B05E3B9737";
shapes = (
{
closed = 1;
nodes = (
(1002,683,l),
(1002,683,o),
(1002,683,o),
(1002,683,q),
(1002,596,l),
(1002,596,o),
(1002,596,o),
(1002,596,q),
(217,261,l),
(217,261,o),
(217,261,o),
(217,261,q),
(217,336,l),
(217,336,o),
(217,336,o),
(217,336,q),
(940,638,l),
(940,641,l),
(217,946,l),
(217,946,o),
(217,946,o),
(217,946,q),
(217,1020,l),
(217,1020,o),
(217,1020,o),
(217,1020,q)
);
}
);
width = 1100;
}
);
leftKerningGroup = public.kern2.greater2;
rightKerningGroup = public.kern1.greater;
unicode = 62;
},
{
glyphname = question;
layers = (
{
layerId = "273C7328-CB47-413D-AC7C-0BE6F8E8A458";
shapes = (
{
closed = 1;
nodes = (
(412,379,l),
(412,379,o),
(412,379,o),
(412,379,q),
(436,462,ls),
(476,601,o),
(585,742,o),
(706,821,qs),
(834,904,o),
(991,1031,o),
(1015,1116,q),
(1015,1116,l),
(1048,1234,o),
(900,1399,o),
(756,1399,qs),
(666,1399,o),
(524,1337,o),
(405,1231,o),
(338,1136,o),
(338,1136,o),
(338,1136,q),
(283,1164,l),
(283,1164,o),
(283,1164,o),
(362,1279,o),
(495,1397,o),
(669,1459,o),
(769,1459,qs),
(935,1459,o),
(1125,1252,o),
(1085,1107,q),
(1085,1107,l),
(1055,1000,o),
(874,853,o),
(743,769,qs),
(641,706,o),
(540,586,o),
(503,458,qs),
(479,379,l),
(479,379,o),
(479,379,o),
(479,379,q)
);
},
{
closed = 1;
nodes = (
(328,-11,o),
(273,43,o),
(273,82,qs),
(273,120,o),
(328,174,o),
(366,174,qs),
(405,174,o),
(460,120,o),
(460,82,qs),
(460,43,o),
(405,-11,o),
(366,-11,qs)
);
}
);
width = 1044;
},
{
layerId = "A94F09BD-5AF2-4283-88E8-66664EC1ECC6";
shapes = (
{
closed = 1;
nodes = (
(373,434,l),
(373,434,o),
(373,434,o),
(373,434,q),
(400,532,ls),
(427,630,o),
(528,766,o),
(654,856,qs),
(766,938,o),
(871,1032,o),
(889,1090,q),
(889,1090,l),
(911,1167,o),
(808,1281,o),
(711,1281,qs),
(655,1281,o),
(547,1232,o),
(454,1155,o),
(387,1073,o),
(387,1073,o),
(387,1073,q),
(226,1176,l),
(226,1176,o),
(226,1176,o),
(309,1276,o),
(452,1392,o),
(621,1467,o),
(737,1467,qs),
(928,1467,o),
(1140,1235,o),
(1094,1071,q),
(1094,1071,l),
(1065,962,o),
(924,838,o),
(784,736,q),
(697,676,o),
(614,580,o),
(596,518,qs),
(572,434,l),
(572,434,o),
(572,434,o),
(572,434,q)
);
},
{
closed = 1;
nodes = (
(331,-12,o),
(243,76,o),
(243,140,qs),
(243,201,o),
(331,287,o),
(393,287,qs),
(456,287,o),
(545,201,o),
(545,140,qs),
(545,76,o),
(456,-12,o),
(393,-12,qs)
);
}
);
width = 989;
},
{
layerId = "44639B77-8764-4A8F-BB1F-F8171CA5D8DC";
shapes = (
{
closed = 1;
nodes = (
(365,506,l),
(365,506,o),
(365,506,o),
(365,506,q),
(389,594,ls),
(415,684,o),
(528,811,o),
(640,867,qs),
(738,916,o),
(854,985,o),
(865,1021,q),
(865,1021,l),
(876,1065,o),
(812,1120,o),
(751,1120,qs),
(699,1120,o),
(622,1088,o),
(548,1031,o),
(501,981,o),
(501,981,o),
(501,981,q),
(183,1126,l),
(183,1126,o),
(183,1126,o),
(281,1252,o),
(441,1380,o),
(669,1470,o),
(830,1470,qs),
(1089,1470,o),
(1366,1214,o),
(1314,1015,q),
(1314,1015,l),
(1285,908,o),
(1125,780,o),
(991,718,qs),
(901,678,o),
(826,609,o),
(813,564,qs),
(795,506,l),
(795,506,o),
(795,506,o),
(795,506,q)
);
},
{
closed = 1;
nodes = (
(401,-25,o),
(265,106,o),
(265,200,qs),
(265,293,o),
(401,422,o),
(499,422,qs),
(599,422,o),
(736,293,o),
(736,200,qs),
(736,106,o),
(600,-25,o),
(500,-25,qs)
);
}
);
width = 1226;
},
{
layerId = "817588ED-5808-41C3-839F-29DF09BEEDB0";
shapes = (
{
closed = 1;
nodes = (
(329,507,l),
(329,507,o),
(329,507,o),
(329,507,q),
(354,601,l),
(380,690,o),
(490,811,o),
(597,872,qs),
(689,922,o),
(796,993,o),
(808,1031,q),
(808,1030,l),
(818,1073,o),
(765,1120,o),
(713,1120,qs),
(668,1120,o),
(602,1090,o),
(536,1036,o),
(495,983,o),
(495,983,o),
(495,983,q),
(177,1114,l),
(177,1114,o),
(177,1114,o),
(264,1236,o),
(414,1370,o),
(634,1467,o),
(792,1467,qs),
(1037,1467,o),
(1299,1222,o),
(1248,1025,q),
(1247,1025,l),
(1219,924,o),
(1074,791,o),
(940,723,qs),
(857,682,o),
(781,611,o),
(766,561,qs),
(749,507,l),
(749,507,o),
(749,507,o),
(749,507,q)
);
},
{
closed = 1;
nodes = (
(365,-24,o),
(231,106,o),
(231,199,qs),
(231,292,o),
(365,421,o),
(462,421,qs),
(560,421,o),
(696,292,o),
(696,199,qs),
(696,106,o),
(561,-24,o),
(462,-24,qs)
);
}
);
width = 1153;
},
{
layerId = "EDA62EAC-6B85-401B-87A5-B3BF46271524";
shapes = (
{
closed = 1;
nodes = (
(327,432,l),
(327,432,o),
(327,432,o),
(327,432,q),
(353,526,ls),
(382,630,o),
(477,766,o),
(588,853,q),
(691,936,o),
(795,1037,o),
(813,1098,q),
(816,1105,l),
(837,1181,o),
(750,1284,o),
(665,1284,qs),
(613,1284,o),
(517,1235,o),
(435,1154,o),
(376,1069,o),
(376,1069,o),
(376,1069,q),
(217,1159,l),
(217,1159,o),
(217,1159,o),
(292,1269,o),
(420,1386,o),
(575,1463,o),
(688,1463,qs),
(865,1463,o),
(1058,1243,o),
(1013,1087,qs),
(1010,1077,l),
(983,975,o),
(846,842,o),
(715,738,q),
(638,678,o),
(561,579,o),
(541,508,qs),
(518,432,l),
(518,432,o),
(518,432,o),
(518,432,q)
);
},
{
closed = 1;
nodes = (
(284,-12,o),
(199,73,o),
(199,135,qs),
(199,194,o),
(284,277,o),
(344,277,qs),
(405,277,o),
(491,194,o),
(491,135,qs),
(491,73,o),
(405,-12,o),
(344,-12,qs)
);
}
);
width = 905;
},
{
layerId = "39C1B3C2-F87B-41E1-BD8E-10B05E3B9737";
shapes = (
{
closed = 1;
nodes = (
(358,379,l),
(358,379,o),
(358,379,o),
(358,379,q),
(383,465,ls),
(420,599,o),
(520,733,o),
(635,818,qs),
(749,900,o),
(891,1029,o),
(916,1122,q),
(918,1122,l),
(952,1242,o),
(824,1396,o),
(699,1396,qs),
(617,1396,o),
(493,1334,o),
(389,1229,o),
(325,1133,o),
(325,1133,o),
(325,1133,q),
(270,1157,l),
(270,1157,o),
(270,1157,o),
(340,1273,o),
(462,1391,o),
(616,1456,o),
(709,1456,qs),
(859,1456,o),
(1028,1260,o),
(988,1113,q),
(986,1113,l),
(956,1000,o),
(789,850,o),
(670,768,q),
(573,698,o),
(483,579,o),
(448,459,qs),
(424,379,l),
(424,379,o),
(424,379,o),
(424,379,q)
);
},
{
closed = 1;
nodes = (
(272,-10,o),
(217,43,o),
(217,82,qs),
(217,120,o),
(272,173,o),
(309,173,qs),
(348,173,o),
(403,120,o),
(403,82,qs),
(403,43,o),
(348,-10,o),
(309,-10,qs)
);
}
);
width = 938;
}
);
unicode = 63;
},
{
glyphname = at;
layers = (
{
layerId = "273C7328-CB47-413D-AC7C-0BE6F8E8A458";
shapes = (
{
closed = 1;
nodes = (
(413,-168,o),
(94,321,o),
(194,681,qs),
(294,1033,o),
(826,1441,o),
(1170,1441,qs),
(1513,1441,o),
(1863,980,o),
(1762,631,qs),
(1698,410,o),
(1495,214,o),
(1379,214,qs),
(1280,214,o),
(1193,356,o),
(1226,465,q),
(1159,352,o),
(957,211,o),
(839,211,qs),
(677,211,o),
(510,460,o),
(566,656,qs),
(619,841,o),
(879,1056,o),
(1030,1056,qs),
(1150,1056,o),
(1297,914,o),
(1311,801,q),
(1315,801,l),
(1381,1029,l),
(1381,1029,o),
(1381,1029,o),
(1381,1029,q),
(1433,1029,l),
(1433,1029,o),
(1433,1029,o),
(1433,1029,q),
(1292,521,ls),
(1253,386,o),
(1305,274,o),
(1385,274,qs),
(1472,274,o),
(1643,445,o),
(1698,642,qs),
(1789,965,o),
(1483,1381,o),
(1163,1381,qs),
(853,1381,o),
(350,1001,o),
(259,670,qs),
(165,336,o),
(448,-108,o),
(770,-108,qs),
(822,-108,o),
(914,-92,o),
(1004,-66,o),
(1067,-39,o),
(1067,-39,o),
(1067,-39,q),
(1086,-97,l),
(1086,-97,o),
(1086,-97,o),
(1023,-123,o),
(933,-150,o),
(826,-168,o),
(760,-168,qs)
);
},
{
closed = 1;
nodes = (
(983,270,o),
(1212,465,o),
(1256,622,qs),
(1303,786,o),
(1166,997,o),
(1030,997,qs),
(899,997,o),
(674,806,o),
(629,647,qs),
(581,482,o),
(710,270,o),
(849,270,qs)
);
}
);
width = 1878;
},
{
layerId = "A94F09BD-5AF2-4283-88E8-66664EC1ECC6";
shapes = (
{
closed = 1;
nodes = (
(388,-177,o),
(61,320,o),
(163,684,qs),
(264,1044,o),
(817,1454,o),
(1169,1454,qs),
(1524,1454,o),
(1892,985,o),
(1793,638,qs),
(1729,410,o),
(1507,213,o),
(1370,213,qs),
(1282,213,o),
(1174,335,o),
(1185,417,q),
(1113,317,o),
(933,213,o),
(832,213,qs),
(661,213,o),
(492,477,o),
(546,666,qs),
(599,850,o),
(867,1062,o),
(1019,1062,qs),
(1113,1062,o),
(1253,955,o),
(1278,872,q),
(1284,872,l),
(1329,1034,l),
(1329,1034,o),
(1329,1034,o),
(1329,1034,q),
(1460,1034,l),
(1460,1034,o),
(1460,1034,o),
(1460,1034,q),
(1321,529,l),
(1295,441,o),
(1334,362,o),
(1396,362,qs),
(1461,362,o),
(1595,494,o),
(1642,663,qs),
(1723,952,o),
(1454,1305,o),
(1154,1305,qs),
(860,1305,o),
(400,955,o),
(317,655,qs),
(232,359,o),
(472,-28,o),
(779,-28,qs),
(827,-28,o),
(918,-14,o),
(1008,9,o),
(1076,33,o),
(1076,33,o),
(1076,33,q),
(1115,-103,l),
(1115,-103,o),
(1115,-103,o),
(1033,-136,o),
(931,-162,o),
(814,-177,o),
(753,-177,qs)
);
},
{
closed = 1;
nodes = (
(977,360,o),
(1164,517,o),
(1196,639,qs),
(1230,760,o),
(1126,915,o),
(1021,915,qs),
(913,915,o),
(736,763,o),
(701,641,qs),
(664,512,o),
(767,360,o),
(870,360,qs)
);
}
);
width = 1876;
},
{
layerId = "44639B77-8764-4A8F-BB1F-F8171CA5D8DC";
shapes = (
{
closed = 1;
nodes = (
(371,-177,o),
(29,328,o),
(129,683,qs),
(233,1056,o),
(774,1454,o),
(1146,1454,qs),
(1512,1454,o),
(1912,987,o),
(1812,650,qs),
(1747,421,o),
(1509,211,o),
(1353,211,qs),
(1264,211,o),
(1159,313,o),
(1154,401,q),
(1088,310,o),
(925,211,o),
(832,211,qs),
(655,211,o),
(479,482,o),
(530,663,qs),
(581,846,o),
(857,1060,o),
(1010,1060,qs),
(1091,1060,o),
(1210,982,o),
(1238,926,q),
(1246,926,l),
(1275,1032,l),
(1275,1032,o),
(1275,1032,o),
(1275,1032,q),
(1473,1032,l),
(1473,1032,o),
(1473,1032,o),
(1473,1032,q),
(1348,587,ls),
(1329,515,o),
(1357,456,o),
(1399,456,qs),
(1444,456,o),
(1531,545,o),
(1565,667,qs),
(1637,917,o),
(1398,1228,o),
(1129,1228,qs),
(850,1228,o),
(453,928,o),
(381,663,qs),
(307,403,o),
(528,50,o),
(801,50,qs),
(851,50,o),
(936,65,o),
(1016,86,o),
(1080,110,o),
(1080,110,o),
(1080,110,q),
(1137,-101,l),
(1137,-101,o),
(1137,-101,o),
(1046,-137,o),
(936,-163,o),
(826,-177,o),
(765,-177,qs)
);
},
{
closed = 1;
nodes = (
(975,460,o),
(1081,555,o),
(1101,632,q),
(1124,708,o),
(1065,811,o),
(994,811,qs),
(922,811,o),
(815,717,o),
(795,640,q),
(772,565,o),
(831,460,o),
(903,460,qs)
);
}
);
width = 1859;
},
{
layerId = "817588ED-5808-41C3-839F-29DF09BEEDB0";
shapes = (
{
closed = 1;
nodes = (
(348,-177,o),
(21,329,o),
(124,689,qs),
(226,1052,o),
(749,1454,o),
(1106,1454,qs),
(1460,1454,o),
(1838,990,o),
(1739,653,qs),
(1675,429,o),
(1447,215,o),
(1295,215,qs),
(1203,215,o),
(1099,311,o),
(1095,400,q),
(1037,311,o),
(884,215,o),
(792,215,qs),
(623,215,o),
(463,481,o),
(516,668,qs),
(567,847,o),
(818,1059,o),
(962,1059,qs),
(1042,1059,o),
(1154,983,o),
(1178,924,q),
(1186,924,l),
(1215,1032,l),
(1215,1032,o),
(1215,1032,o),
(1215,1032,q),
(1412,1032,l),
(1412,1032,o),
(1412,1032,o),
(1412,1032,q),
(1285,584,l),
(1268,516,o),
(1292,458,o),
(1331,458,qs),
(1378,458,o),
(1463,557,o),
(1495,666,qs),
(1567,920,o),
(1345,1230,o),
(1087,1230,qs),
(824,1230,o),
(441,927,o),
(369,662,qs),
(293,398,o),
(499,48,o),
(759,48,qs),
(804,48,o),
(884,60,o),
(957,78,o),
(1024,104,o),
(1024,104,o),
(1024,104,q),
(1075,-103,l),
(1075,-103,o),
(1075,-103,o),
(986,-138,o),
(884,-163,o),
(781,-177,o),
(720,-177,qs)
);
},
{
closed = 1;
nodes = (
(925,463,o),
(1022,557,o),
(1043,637,q),
(1066,714,o),
(1019,810,o),
(958,810,qs),
(894,810,o),
(796,718,o),
(774,639,qs),
(751,561,o),
(800,463,o),
(862,463,qs)
);
}
);
width = 1776;
},
{
layerId = "EDA62EAC-6B85-401B-87A5-B3BF46271524";
shapes = (
{
closed = 1;
nodes = (
(343,-176,o),
(46,308,o),
(150,678,qs),
(253,1045,o),
(771,1454,o),
(1104,1454,qs),
(1437,1454,o),
(1768,996,o),
(1667,645,q),
(1603,417,o),
(1392,215,o),
(1260,215,qs),
(1176,215,o),
(1079,329,o),
(1088,410,q),
(1022,311,o),
(859,214,o),
(766,214,qs),
(610,214,o),
(459,464,o),
(515,662,qs),
(571,857,o),
(814,1061,o),
(956,1061,qs),
(1043,1061,o),
(1165,962,o),
(1186,882,q),
(1192,882,l),
(1234,1033,l),
(1234,1033,o),
(1234,1033,o),
(1234,1033,q),
(1362,1033,l),
(1362,1033,o),
(1362,1033,o),
(1362,1033,q),
(1222,523,l),
(1196,433,o),
(1229,359,o),
(1284,359,qs),
(1345,359,o),
(1469,494,o),
(1517,668,q),
(1599,957,o),
(1363,1308,o),
(1087,1308,qs),
(817,1308,o),
(387,957,o),
(302,653,q),
(215,349,o),
(430,-30,o),
(711,-30,qs),
(755,-30,o),
(844,-17,o),
(927,5,o),
(991,29,o),
(991,29,o),
(991,29,q),
(1030,-103,l),
(1030,-103,o),
(1030,-103,o),
(957,-134,o),
(860,-159,o),
(746,-176,o),
(685,-176,qs)
);
},
{
closed = 1;
nodes = (
(900,360,o),
(1064,506,o),
(1099,637,qs),
(1134,766,o),
(1053,915,o),
(958,915,qs),
(863,915,o),
(707,773,o),
(668,642,qs),
(630,507,o),
(714,360,o),
(806,360,qs)
);
}
);
width = 1736;
},
{
layerId = "39C1B3C2-F87B-41E1-BD8E-10B05E3B9737";
shapes = (
{
closed = 1;
nodes = (
(362,-168,o),
(83,308,o),
(185,678,qs),
(288,1043,o),
(778,1441,o),
(1096,1441,qs),
(1414,1441,o),
(1721,991,o),
(1619,635,qs),
(1553,409,o),
(1362,216,o),
(1252,216,qs),
(1164,216,o),
(1085,345,o),
(1114,451,q),
(1055,339,o),
(873,212,o),
(770,212,qs),
(617,212,o),
(475,451,o),
(533,655,qs),
(589,851,o),
(820,1055,o),
(961,1055,qs),
(1068,1055,o),
(1198,925,o),
(1209,820,q),
(1213,820,l),
(1271,1028,l),
(1271,1028,o),
(1271,1028,o),
(1271,1028,q),
(1324,1028,l),
(1324,1028,o),
(1324,1028,o),
(1324,1028,q),
(1180,511,ls),
(1142,379,o),
(1191,275,o),
(1259,275,qs),
(1339,275,o),
(1500,446,o),
(1556,648,qs),
(1650,980,o),
(1382,1382,o),
(1087,1382,qs),
(806,1382,o),
(343,1009,o),
(248,667,qs),
(151,322,o),
(399,-109,o),
(695,-109,qs),
(741,-109,o),
(829,-94,o),
(912,-69,o),
(975,-42,o),
(975,-42,o),
(975,-42,q),
(996,-96,l),
(996,-96,o),
(996,-96,o),
(934,-124,o),
(849,-150,o),
(746,-168,o),
(687,-168,qs)
);
},
{
closed = 1;
nodes = (
(900,270,o),
(1103,458,o),
(1149,624,qs),
(1197,794,o),
(1086,997,o),
(962,997,qs),
(842,997,o),
(644,813,o),
(594,645,qs),
(544,475,o),
(652,270,o),
(777,270,qs)
);
}
);
width = 1724;
}
);
unicode = 64;
},
{
glyphname = A;
layers = (
{
anchors = (
{
name = b.uni0327;
position = "{-306, 0}";
},
{
name = b.uni0328;
position = "{26, 0}";
},
{
name = t.uni0302;
position = "{1652, 1432}";
}
);
layerId = "273C7328-CB47-413D-AC7C-0BE6F8E8A458";
shapes = (
{
closed = 1;
nodes = (
(-59,0,l),
(-59,0,o),
(-59,0,o),
(-59,0,q),
(920,1439,l),
(920,1439,o),
(920,1439,o),
(920,1439,q),
(986,1439,l),
(986,1439,o),
(986,1439,o),
(986,1439,q),
(1154,0,l),
(1154,0,o),
(1154,0,o),
(1154,0,q),
(1087,0,l),
(1087,0,o),
(1087,0,o),
(1087,0,q),
(952,1197,l),
(939,1367,l),
(935,1367,l),
(831,1197,l),
(22,0,l),
(22,0,o),
(22,0,o),
(22,0,q)
);
},
{
closed = 1;
nodes = (
(277,448,l),
(314,510,l),
(1069,510,l),
(1074,448,l)
);
}
);
width = 1388;
},
{
anchors = (
{
name = b.uni0327;
position = "{106, 0}";
},
{
name = b.uni0328;
position = "{597, 0}";
},
{
name = t.uni0302;
position = "{1271, 1432}";
}
);
layerId = "A94F09BD-5AF2-4283-88E8-66664EC1ECC6";
shapes = (
{
closed = 1;
nodes = (
(-95,0,l),
(-95,0,o),
(-95,0,o),
(-95,0,q),
(880,1432,l),
(880,1432,o),
(880,1432,o),
(880,1432,q),
(1082,1432,l),
(1082,1432,o),
(1082,1432,o),
(1082,1432,q),
(1244,0,l),
(1244,0,o),
(1244,0,o),
(1244,0,q),
(1045,0,l),
(1045,0,o),
(1045,0,o),
(1045,0,q),
(938,1015,l),
(928,1204,l),
(922,1204,l),
(814,1015,l),
(132,0,l),
(132,0,o),
(132,0,o),
(132,0,q)
);
},
{
closed = 1;
nodes = (
(258,352,l),
(369,535,l),
(1086,535,l),
(1097,352,l)
);
}
);
width = 1447;
},
{
anchors = (
{
name = b.uni0327;
position = "{370, 0}";
},
{
name = b.uni0328;
position = "{852, 0}";
},
{
name = t.uni0302;
position = "{765, 1432}";
}
);
layerId = "44639B77-8764-4A8F-BB1F-F8171CA5D8DC";
shapes = (
{
closed = 1;
nodes = (
(-120,0,l),
(-120,0,o),
(-120,0,o),
(-120,0,q),
(868,1432,l),
(868,1432,o),
(868,1432,o),
(868,1432,q),
(1235,1432,l),
(1235,1432,o),
(1235,1432,o),
(1235,1432,q),
(1416,0,l),
(1416,0,o),
(1416,0,o),
(1416,0,q),
(988,0,l),
(988,0,o),
(988,0,o),
(988,0,q),
(927,679,l),
(913,882,l),
(904,882,l),
(791,681,l),
(365,0,l),
(365,0,o),
(365,0,o),
(365,0,q)
);
},
{
closed = 1;
nodes = (
(239,178,l),
(445,492,l),
(1140,492,l),
(1173,178,l)
);
}
);
width = 1593;
},
{
anchors = (
{
name = b.uni0327;
position = "{244, 0}";
},
{
name = b.uni0328;
position = "{741, 0}";
},
{
name = t.uni0302;
position = "{1013, 1432}";
}
);
layerId = "817588ED-5808-41C3-839F-29DF09BEEDB0";
shapes = (
{
closed = 1;
nodes = (
(-118,0,l),
(-118,0,o),
(-118,0,o),
(-118,0,q),
(789,1432,l),
(789,1432,o),
(789,1432,o),
(789,1432,q),
(1183,1432,l),
(1183,1432,o),
(1183,1432,o),
(1183,1432,q),
(1281,0,l),
(1281,0,o),
(1281,0,o),
(1281,0,q),
(856,0,l),
(856,0,o),
(856,0,o),
(856,0,q),
(845,673,l),
(842,881,l),
(833,881,l),
(727,674,l),
(345,0,l),
(345,0,o),
(345,0,o),
(345,0,q)
);
},
{
closed = 1;
nodes = (
(206,188,l),
(394,487,l),
(1043,487,l),
(1071,188,l)
);
}
);
width = 1460;
},
{
anchors = (
{
name = b.uni0327;
position = "{-134, 0}";
},
{
name = b.uni0328;
position = "{260, 0}";
},
{
name = t.uni0302;
position = "{1426, 1432}";
}
);
layerId = "EDA62EAC-6B85-401B-87A5-B3BF46271524";
shapes = (
{
closed = 1;
nodes = (
(-102,0,l),
(-102,0,o),
(-102,0,o),
(-102,0,q),
(777,1432,l),
(777,1432,o),
(777,1432,o),
(777,1432,q),
(985,1432,l),
(985,1432,o),
(985,1432,o),
(985,1432,q),
(1053,0,l),
(1053,0,o),
(1053,0,o),
(1053,0,q),
(859,0,l),
(859,0,o),
(859,0,o),
(859,0,q),
(823,1018,l),
(820,1187,l),
(814,1187,l),
(723,1018,l),
(109,0,l),
(109,0,o),
(109,0,o),
(109,0,q)
);
},
{
closed = 1;
nodes = (
(222,356,l),
(323,532,l),
(941,532,l),
(942,356,l)
);
}
);
width = 1249;
},
{
anchors = (
{
name = b.uni0327;
position = "{-580, 0}";
},
{
name = b.uni0328;
position = "{-405, 0}";
},
{
name = t.uni0302;
position = "{1773, 1432}";
}
);
layerId = "39C1B3C2-F87B-41E1-BD8E-10B05E3B9737";
shapes = (
{
closed = 1;
nodes = (
(-67,0,l),
(-67,0,o),
(-67,0,o),
(-67,0,q),
(816,1438,l),
(816,1438,o),
(816,1438,o),
(816,1438,q),
(884,1438,l),
(884,1438,o),
(884,1438,o),
(884,1438,q),
(958,0,l),
(958,0,o),
(958,0,o),
(958,0,q),
(890,0,l),
(890,0,o),
(890,0,o),
(890,0,q),
(840,1206,l),
(835,1355,l),
(829,1355,l),
(743,1206,l),
(8,0,l),
(8,0,o),
(8,0,o),
(8,0,q)
);
},
{
closed = 1;
nodes = (
(238,446,l),
(273,507,l),
(907,507,l),
(906,446,l)
);
}
);
width = 1183;
}
);
leftKerningGroup = public.kern2.A2;
rightKerningGroup = public.kern1.A;
unicode = 65;
},
{
glyphname = B;
layers = (
{
anchors = (
{
name = b.uni0327;
position = "{-258, -5}";
},
{
name = t.uni0302;
position = "{1708, 1432}";
}
);
layerId = "273C7328-CB47-413D-AC7C-0BE6F8E8A458";
shapes = (
{
closed = 1;
nodes = (
(69,0,l),
(69,0,o),
(69,0,o),
(69,0,q),
(471,1432,l),
(471,1432,o),
(471,1432,o),
(471,1432,q),
(881,1432,ls),
(1085,1432,o),
(1275,1204,o),
(1232,1053,q),
(1232,1053,l),
(1190,906,o),
(999,769,o),
(864,749,q),
(864,745,l),
(1000,721,o),
(1146,500,o),
(1102,349,q),
(1102,349,l),
(1053,180,o),
(785,0,o),
(594,0,qs)
);
},
{
closed = 1;
nodes = (
(155,63,l),
(592,63,ls),
(756,63,o),
(991,217,o),
(1033,360,q),
(1033,360,l),
(1078,520,o),
(907,716,o),
(734,716,qs),
(317,716,l),
(336,779,l),
(754,779,ls),
(901,779,o),
(1123,920,o),
(1163,1063,q),
(1163,1063,l),
(1200,1192,o),
(1028,1369,o),
(873,1369,qs),
(523,1369,l)
);
}
);
width = 1282;
},
{
anchors = (
{
name = b.uni0327;
position = "{105, -5}";
},
{
name = t.uni0302;
position = "{1297, 1432}";
}
);
layerId = "A94F09BD-5AF2-4283-88E8-66664EC1ECC6";
shapes = (
{
closed = 1;
nodes = (
(53,0,l),
(53,0,o),
(53,0,o),
(53,0,q),
(454,1432,l),
(454,1432,o),
(454,1432,o),
(454,1432,q),
(925,1432,ls),
(1156,1432,o),
(1352,1187,o),
(1309,1035,q),
(1309,1035,l),
(1274,910,o),
(1111,779,o),
(984,741,q),
(983,736,l),
(1102,707,o),
(1225,515,o),
(1186,375,q),
(1186,375,l),
(1133,189,o),
(836,0,o),
(625,0,qs)
);
},
{
closed = 1;
nodes = (
(301,180,l),
(653,180,ls),
(776,180,o),
(957,301,o),
(985,400,q),
(985,400,l),
(1015,508,o),
(895,651,o),
(763,651,qs),
(374,651,l),
(424,825,l),
(802,825,ls),
(909,825,o),
(1077,933,o),
(1107,1033,q),
(1107,1033,l),
(1135,1128,o),
(1034,1252,o),
(902,1252,qs),
(604,1252,l)
);
}
);
width = 1336;
},
{
anchors = (
{
name = b.uni0327;
position = "{386, -4}";
},
{
name = t.uni0302;
position = "{773, 1432}";
}
);
layerId = "44639B77-8764-4A8F-BB1F-F8171CA5D8DC";
shapes = (
{
closed = 1;
nodes = (
(24,0,l),
(24,0,o),
(24,0,o),
(24,0,q),
(427,1432,l),
(427,1432,o),
(427,1432,o),
(427,1432,q),
(1044,1432,ls),
(1274,1432,o),
(1506,1187,o),
(1461,1031,q),
(1461,1031,l),
(1431,926,o),
(1268,781,o),
(1137,741,q),
(1137,733,l),
(1251,699,o),
(1376,500,o),
(1336,363,q),
(1336,363,l),
(1287,197,o),
(988,0,o),
(791,0,qs)
);
},
{
closed = 1;
nodes = (
(557,328,l),
(733,328,ls),
(798,328,o),
(887,393,o),
(903,451,q),
(903,451,l),
(921,507,o),
(866,580,o),
(797,580,qs),
(547,580,l),
(623,854,l),
(854,854,ls),
(909,854,o),
(1003,918,o),
(1021,973,q),
(1021,973,l),
(1035,1029,o),
(974,1098,o),
(917,1098,qs),
(773,1098,l)
);
}
);
width = 1467;
},
{
anchors = (
{
name = b.uni0327;
position = "{254, -5}";
},
{
name = t.uni0302;
position = "{1041, 1432}";
}
);
layerId = "817588ED-5808-41C3-839F-29DF09BEEDB0";
shapes = (
{
closed = 1;
nodes = (
(11,0,l),
(11,0,o),
(11,0,o),
(11,0,q),
(413,1432,l),
(413,1432,o),
(413,1432,o),
(413,1432,q),
(984,1432,ls),
(1205,1432,o),
(1430,1193,o),
(1383,1031,q),
(1383,1030,l),
(1351,927,o),
(1196,778,o),
(1066,743,q),
(1064,734,l),
(1179,702,o),
(1294,496,o),
(1252,360,q),
(1252,359,l),
(1204,194,o),
(914,0,o),
(718,0,qs)
);
},
{
closed = 1;
nodes = (
(533,328,l),
(662,328,ls),
(730,328,o),
(815,393,o),
(831,452,q),
(833,455,l),
(852,513,o),
(801,584,o),
(734,584,qs),
(530,584,l),
(604,854,l),
(789,854,ls),
(846,854,o),
(937,917,o),
(954,972,qs),
(956,978,l),
(970,1031,o),
(916,1098,o),
(860,1098,qs),
(749,1098,l)
);
}
);
width = 1376;
},
{
anchors = (
{
name = b.uni0327;
position = "{-91, -5}";
},
{
name = t.uni0302;
position = "{1472, 1432}";
}
);
layerId = "EDA62EAC-6B85-401B-87A5-B3BF46271524";
shapes = (
{
closed = 1;
nodes = (
(36,0,l),
(36,0,o),
(36,0,o),
(36,0,q),
(437,1432,l),
(437,1432,o),
(437,1432,o),
(437,1432,q),
(840,1432,ls),
(1048,1432,o),
(1230,1198,o),
(1189,1052,q),
(1179,1021,l),
(1145,900,o),
(991,776,o),
(875,744,q),
(873,739,l),
(984,712,o),
(1099,527,o),
(1060,391,qs),
(1052,361,ls),
(1001,181,o),
(730,0,o),
(536,0,qs)
);
},
{
closed = 1;
nodes = (
(277,175,l),
(554,175,ls),
(665,175,o),
(828,288,o),
(855,388,q),
(863,415,ls),
(893,520,o),
(790,654,o),
(673,654,qs),
(351,654,l),
(399,823,l),
(701,823,ls),
(796,823,o),
(954,926,o),
(983,1023,q),
(991,1053,ls),
(1017,1142,o),
(929,1257,o),
(814,1257,qs),
(582,1257,l)
);
}
);
width = 1195;
},
{
anchors = (
{
name = b.uni0327;
position = "{-494, -5}";
},
{
name = t.uni0302;
position = "{1872, 1432}";
}
);
layerId = "39C1B3C2-F87B-41E1-BD8E-10B05E3B9737";
shapes = (
{
closed = 1;
nodes = (
(58,0,l),
(58,0,o),
(58,0,o),
(58,0,q),
(460,1432,l),
(460,1432,o),
(460,1432,o),
(460,1432,q),
(788,1432,ls),
(980,1432,o),
(1154,1216,o),
(1111,1066,q),
(1106,1051,l),
(1064,909,o),
(883,773,o),
(763,751,q),
(763,747,l),
(885,725,o),
(1019,517,o),
(976,363,q),
(972,347,l),
(923,179,o),
(672,0,o),
(488,0,qs)
);
},
{
closed = 1;
nodes = (
(143,61,l),
(486,61,ls),
(642,61,o),
(861,214,o),
(904,360,q),
(907,373,l),
(953,530,o),
(800,719,o),
(640,719,qs),
(305,719,l),
(322,780,l),
(656,780,ls),
(788,780,o),
(1000,921,o),
(1038,1063,q),
(1042,1076,ls),
(1078,1203,o),
(930,1371,o),
(779,1371,qs),
(512,1371,l)
);
}
);
width = 1141;
}
);
leftKerningGroup = public.kern2.B;
unicode = 66;
},
{
glyphname = C;
layers = (
{
anchors = (
{
name = b.uni0327;
position = "{-756, 0}";
},
{
name = t.uni0335;
position = "{572, 659}";
},
{
name = t.uni0302;
position = "{1029, 1432}";
}
);
layerId = "273C7328-CB47-413D-AC7C-0BE6F8E8A458";
shapes = (
{
closed = 1;
nodes = (
(402,-30,o),
(110,411,o),
(206,752,q),
(206,752,l),
(297,1083,o),
(780,1462,o),
(1078,1462,qs),
(1173,1462,o),
(1338,1410,o),
(1465,1315,o),
(1546,1206,o),
(1546,1206,o),
(1546,1206,q),
(1487,1170,l),
(1487,1170,o),
(1487,1170,o),
(1416,1265,o),
(1317,1348,o),
(1176,1400,o),
(1071,1400,qs),
(809,1400,o),
(362,1045,o),
(274,743,q),
(274,743,l),
(185,421,o),
(448,32,o),
(711,32,qs),
(813,32,o),
(993,89,o),
(1151,181,o),
(1269,292,o),
(1269,292,o),
(1269,292,q),
(1318,247,l),
(1318,247,o),
(1318,247,o),
(1191,126,o),
(1015,24,o),
(808,-30,o),
(699,-30,qs)
);
}
);
width = 1500;
},
{
anchors = (
{
name = b.uni0327;
position = "{-411, 0}";
},
{
name = t.uni0335;
position = "{597, 660}";
},
{
name = t.uni0302;
position = "{712, 1432}";
}
);
layerId = "A94F09BD-5AF2-4283-88E8-66664EC1ECC6";
shapes = (
{
closed = 1;
nodes = (
(405,-34,o),
(82,425,o),
(177,760,q),
(177,760,l),
(270,1098,o),
(749,1466,o),
(1050,1466,qs),
(1162,1466,o),
(1367,1412,o),
(1520,1313,o),
(1605,1227,o),
(1605,1227,o),
(1605,1227,q),
(1441,1099,l),
(1441,1099,o),
(1441,1099,o),
(1383,1159,o),
(1273,1238,o),
(1133,1280,o),
(1044,1280,qs),
(816,1280,o),
(455,984,o),
(384,739,q),
(384,739,l),
(311,478,o),
(539,152,o),
(760,152,qs),
(856,152,o),
(1015,208,o),
(1144,293,o),
(1231,368,o),
(1231,368,o),
(1231,368,q),
(1363,235,l),
(1363,235,o),
(1363,235,o),
(1257,135,o),
(1089,28,o),
(874,-34,o),
(741,-34,qs)
);
}
);
width = 1529;
},
{
anchors = (
{
name = b.uni0327;
position = "{-70, 0}";
},
{
name = t.uni0335;
position = "{499, 680}";
},
{
name = t.uni0302;
position = "{391, 1432}";
}
);
layerId = "44639B77-8764-4A8F-BB1F-F8171CA5D8DC";
shapes = (
{
closed = 1;
nodes = (
(391,-37,o),
(49,432,o),
(145,777,q),
(145,777,l),
(237,1107,o),
(730,1470,o),
(1038,1470,qs),
(1157,1470,o),
(1357,1409,o),
(1508,1306,o),
(1590,1220,o),
(1590,1220,o),
(1590,1220,q),
(1250,943,l),
(1250,943,o),
(1250,943,o),
(1207,986,o),
(1139,1026,o),
(1052,1051,o),
(993,1051,qs),
(848,1051,o),
(632,876,o),
(590,725,q),
(590,725,l),
(547,572,o),
(668,383,o),
(798,383,qs),
(866,383,o),
(976,415,o),
(1063,471,o),
(1116,523,o),
(1116,523,o),
(1116,523,q),
(1351,218,l),
(1351,218,o),
(1351,218,o),
(1243,124,o),
(1086,25,o),
(869,-37,o),
(741,-37,qs)
);
}
);
width = 1473;
},
{
anchors = (
{
name = b.uni0327;
position = "{-298, 0}";
},
{
name = t.uni0335;
position = "{547, 660}";
},
{
name = t.uni0302;
position = "{509, 1432}";
}
);
layerId = "817588ED-5808-41C3-839F-29DF09BEEDB0";
shapes = (
{
closed = 1;
nodes = (
(333,-34,o),
(41,412,o),
(143,773,q),
(143,773,l),
(239,1117,o),
(675,1467,o),
(963,1467,qs),
(1091,1467,o),
(1288,1385,o),
(1408,1254,o),
(1461,1144,o),
(1461,1144,o),
(1461,1144,q),
(1107,927,l),
(1107,927,o),
(1107,927,o),
(1081,982,o),
(1035,1032,o),
(966,1059,o),
(915,1059,qs),
(799,1059,o),
(629,899,o),
(586,745,qs),
(573,700,ls),
(528,544,o),
(616,375,o),
(722,375,qs),
(777,375,o),
(866,406,o),
(938,464,o),
(984,526,o),
(984,526,o),
(984,526,q),
(1250,288,l),
(1250,288,o),
(1250,288,o),
(1148,171,o),
(994,41,o),
(781,-34,o),
(649,-34,qs)
);
}
);
width = 1360;
},
{
anchors = (
{
name = b.uni0327;
position = "{-652, 0}";
},
{
name = t.uni0335;
position = "{536, 659}";
},
{
name = t.uni0302;
position = "{799, 1432}";
}
);
layerId = "EDA62EAC-6B85-401B-87A5-B3BF46271524";
shapes = (
{
closed = 1;
nodes = (
(330,-30,o),
(63,378,o),
(156,705,qs),
(185,805,l),
(274,1134,o),
(675,1462,o),
(935,1462,qs),
(1038,1462,o),
(1216,1398,o),
(1337,1284,o),
(1398,1179,o),
(1398,1179,o),
(1398,1179,q),
(1231,1076,l),
(1231,1076,o),
(1231,1076,o),
(1192,1152,o),
(1111,1236,o),
(998,1282,o),
(923,1282,qs),
(743,1282,o),
(454,1023,o),
(387,789,qs),
(355,678,ls),
(286,433,o),
(455,150,o),
(635,150,qs),
(715,150,o),
(846,205,o),
(951,287,o),
(1025,379,o),
(1025,379,o),
(1025,379,q),
(1167,270,l),
(1167,270,o),
(1167,270,o),
(1074,149,o),
(928,35,o),
(736,-30,o),
(615,-30,qs)
);
}
);
width = 1312;
},
{
anchors = (
{
name = b.uni0327;
position = "{-1001, 0}";
},
{
name = t.uni0335;
position = "{488, 659}";
},
{
name = t.uni0302;
position = "{1139, 1432}";
}
);
layerId = "39C1B3C2-F87B-41E1-BD8E-10B05E3B9737";
shapes = (
{
closed = 1;
nodes = (
(332,-26,o),
(95,360,o),
(187,691,qs),
(219,806,ls),
(309,1130,o),
(705,1458,o),
(950,1458,qs),
(1033,1458,o),
(1180,1402,o),
(1278,1302,o),
(1337,1183,o),
(1337,1183,o),
(1337,1183,q),
(1276,1151,l),
(1276,1151,o),
(1276,1151,o),
(1226,1256,o),
(1154,1343,o),
(1033,1397,o),
(942,1397,qs),
(735,1397,o),
(373,1091,o),
(287,797,q),
(255,680,ls),
(168,375,o),
(375,35,o),
(588,35,qs),
(675,35,o),
(827,92,o),
(959,189,o),
(1055,308,o),
(1055,308,o),
(1055,308,q),
(1108,270,l),
(1108,270,o),
(1108,270,o),
(1000,141,o),
(854,32,o),
(676,-26,o),
(577,-26,qs)
);
}
);
width = 1272;
}
);
leftKerningGroup = public.kern2.C2;
rightKerningGroup = public.kern1.C;
unicode = 67;
},
{
glyphname = D;
layers = (
{
anchors = (
{
name = b.uni0327;
position = "{-628, 0}";
},
{
name = t.uni0335;
position = "{348, 719}";
},
{
name = t.uni0302;
position = "{1585, 1432}";
}
);
layerId = "273C7328-CB47-413D-AC7C-0BE6F8E8A458";
shapes = (
{
closed = 1;
nodes = (
(67,0,l),
(67,0,o),
(67,0,o),
(67,0,q),
(471,1432,l),
(471,1432,o),
(471,1432,o),
(471,1432,q),
(840,1432,ls),
(1181,1432,o),
(1478,1027,o),
(1379,677,q),
(1379,677,l),
(1286,351,o),
(835,0,o),
(495,0,qs)
);
},
{
closed = 1;
nodes = (
(158,64,l),
(488,64,ls),
(790,64,o),
(1221,383,o),
(1309,688,q),
(1309,688,l),
(1398,1011,o),
(1140,1368,o),
(823,1368,qs),
(524,1368,l)
);
}
);
width = 1472;
},
{
anchors = (
{
name = b.uni0327;
position = "{-211, 0}";
},
{
name = t.uni0335;
position = "{306, 719}";
},
{
name = t.uni0302;
position = "{1150, 1432}";
}
);
layerId = "A94F09BD-5AF2-4283-88E8-66664EC1ECC6";
shapes = (
{
closed = 1;
nodes = (
(50,0,l),
(50,0,o),
(50,0,o),
(50,0,q),
(454,1432,l),
(454,1432,o),
(454,1432,o),
(454,1432,q),
(896,1432,ls),
(1234,1432,o),
(1553,1018,o),
(1456,669,q),
(1456,669,l),
(1365,346,o),
(894,0,o),
(559,0,qs)
);
},
{
closed = 1;
nodes = (
(300,182,l),
(563,182,ls),
(805,182,o),
(1177,451,o),
(1246,692,q),
(1246,692,l),
(1321,959,o),
(1104,1250,o),
(863,1250,qs),
(598,1250,l)
);
}
);
width = 1527;
},
{
anchors = (
{
name = b.uni0327;
position = "{107, 0}";
},
{
name = t.uni0335;
position = "{235, 719}";
},
{
name = t.uni0302;
position = "{664, 1432}";
}
);
layerId = "44639B77-8764-4A8F-BB1F-F8171CA5D8DC";
shapes = (
{
closed = 1;
nodes = (
(22,0,l),
(22,0,o),
(22,0,o),
(22,0,q),
(427,1432,l),
(427,1432,o),
(427,1432,o),
(427,1432,q),
(918,1432,ls),
(1278,1432,o),
(1632,998,o),
(1537,662,q),
(1537,662,l),
(1443,323,o),
(981,0,o),
(630,0,qs)
);
},
{
closed = 1;
nodes = (
(575,391,l),
(681,391,l),
(837,389,o),
(1046,545,o),
(1091,706,q),
(1091,706,l),
(1138,855,o),
(1010,1034,o),
(854,1034,qs),
(755,1034,l)
);
}
);
width = 1576;
},
{
anchors = (
{
name = b.uni0327;
position = "{-64, 0}";
},
{
name = t.uni0335;
position = "{261, 719}";
},
{
name = t.uni0302;
position = "{895, 1432}";
}
);
layerId = "817588ED-5808-41C3-839F-29DF09BEEDB0";
shapes = (
{
closed = 1;
nodes = (
(10,0,l),
(10,0,o),
(10,0,o),
(10,0,q),
(413,1432,l),
(413,1432,o),
(413,1432,o),
(413,1432,q),
(885,1432,ls),
(1221,1432,o),
(1531,1004,o),
(1434,663,q),
(1435,663,l),
(1341,328,o),
(909,0,o),
(586,0,qs)
);
},
{
closed = 1;
nodes = (
(553,387,l),
(642,387,l),
(771,386,o),
(951,534,o),
(996,695,qs),
(1005,729,ls),
(1048,881,o),
(951,1040,o),
(824,1040,qs),
(735,1040,l)
);
}
);
width = 1472;
},
{
anchors = (
{
name = b.uni0327;
position = "{-438, 0}";
},
{
name = t.uni0335;
position = "{310, 719}";
},
{
name = t.uni0302;
position = "{1324, 1432}";
}
);
layerId = "EDA62EAC-6B85-401B-87A5-B3BF46271524";
shapes = (
{
closed = 1;
nodes = (
(33,0,l),
(33,0,o),
(33,0,o),
(33,0,q),
(437,1432,l),
(437,1432,o),
(437,1432,o),
(437,1432,q),
(816,1432,ls),
(1111,1432,o),
(1379,1047,o),
(1288,723,q),
(1264,634,l),
(1176,320,o),
(768,0,o),
(475,0,qs)
);
},
{
closed = 1;
nodes = (
(278,177,l),
(486,177,ls),
(685,177,o),
(998,426,o),
(1063,655,qs),
(1089,747,ls),
(1158,993,o),
(988,1255,o),
(787,1255,qs),
(578,1255,l)
);
}
);
width = 1340;
},
{
anchors = (
{
name = b.uni0327;
position = "{-902, 0}";
},
{
name = t.uni0335;
position = "{341, 719}";
},
{
name = t.uni0302;
position = "{1757, 1432}";
}
);
layerId = "39C1B3C2-F87B-41E1-BD8E-10B05E3B9737";
shapes = (
{
closed = 1;
nodes = (
(56,0,l),
(56,0,o),
(56,0,o),
(56,0,q),
(460,1432,l),
(460,1432,o),
(460,1432,o),
(460,1432,q),
(770,1432,ls),
(1064,1432,o),
(1306,1055,o),
(1213,728,q),
(1191,642,l),
(1101,329,o),
(712,0,o),
(417,0,qs)
);
},
{
closed = 1;
nodes = (
(145,62,l),
(415,62,ls),
(673,62,o),
(1040,364,o),
(1122,653,qs),
(1146,738,ls),
(1231,1041,o),
(1022,1370,o),
(755,1370,qs),
(513,1370,l)
);
}
);
width = 1293;
}
);
leftKerningGroup = public.kern2.B;
rightKerningGroup = public.kern1.D;
unicode = 68;
},
{
glyphname = E;
layers = (
{
anchors = (
{
name = b.uni0327;
position = "{-339, 0}";
},
{
name = b.uni0328;
position = "{108, 0}";
},
{
name = t.uni0302;
position = "{1561, 1432}";
}
);
layerId = "273C7328-CB47-413D-AC7C-0BE6F8E8A458";
shapes = (
{
closed = 1;
nodes = (
(66,0,l),
(66,0,o),
(66,0,o),
(66,0,q),
(472,1432,l),
(472,1432,o),
(472,1432,o),
(472,1432,q),
(1271,1432,l),
(1271,1432,o),
(1271,1432,o),
(1271,1432,q),
(1254,1369,l),
(1254,1369,o),
(1254,1369,o),
(1254,1369,q),
(523,1369,l),
(153,63,l),
(906,63,l),
(906,63,o),
(906,63,o),
(906,63,q),
(888,0,l),
(888,0,o),
(888,0,o),
(888,0,q)
);
},
{
closed = 1;
nodes = (
(309,716,l),
(328,779,l),
(944,779,l),
(944,779,o),
(944,779,o),
(944,779,q),
(926,716,l),
(926,716,o),
(926,716,o),
(926,716,q)
);
}
);
width = 1162;
},
{
anchors = (
{
name = b.uni0327;
position = "{55, 0}";
},
{
name = b.uni0328;
position = "{578, 0}";
},
{
name = t.uni0302;
position = "{1181, 1432}";
}
);
layerId = "A94F09BD-5AF2-4283-88E8-66664EC1ECC6";
shapes = (
{
closed = 1;
nodes = (
(50,0,l),
(50,0,o),
(50,0,o),
(50,0,q),
(454,1432,l),
(454,1432,o),
(454,1432,o),
(454,1432,q),
(1332,1432,l),
(1332,1432,o),
(1332,1432,o),
(1332,1432,q),
(1281,1248,l),
(1281,1248,o),
(1281,1248,o),
(1281,1248,q),
(602,1248,l),
(301,184,l),
(1002,184,l),
(1002,184,o),
(1002,184,o),
(1002,184,q),
(954,0,l),
(954,0,o),
(954,0,o),
(954,0,q)
);
},
{
closed = 1;
nodes = (
(357,647,l),
(408,830,l),
(1050,830,l),
(1050,830,o),
(1050,830,o),
(1050,830,q),
(999,647,l),
(999,647,o),
(999,647,o),
(999,647,q)
);
}
);
width = 1216;
},
{
anchors = (
{
name = b.uni0327;
position = "{344, 0}";
},
{
name = b.uni0328;
position = "{814, 0}";
},
{
name = t.uni0302;
position = "{726, 1432}";
}
);
layerId = "44639B77-8764-4A8F-BB1F-F8171CA5D8DC";
shapes = (
{
closed = 1;
nodes = (
(22,0,l),
(22,0,o),
(22,0,o),
(22,0,q),
(427,1432,l),
(427,1432,o),
(427,1432,o),
(427,1432,q),
(1463,1432,l),
(1463,1432,o),
(1463,1432,o),
(1463,1432,q),
(1354,1045,l),
(1354,1045,o),
(1354,1045,o),
(1354,1045,q),
(763,1045,l),
(578,387,l),
(1191,387,l),
(1191,387,o),
(1191,387,o),
(1191,387,q),
(1084,0,l),
(1084,0,o),
(1084,0,o),
(1084,0,q)
);
},
{
closed = 1;
nodes = (
(459,566,l),
(553,900,l),
(1199,900,l),
(1199,900,o),
(1199,900,o),
(1199,900,q),
(1105,566,l),
(1105,566,o),
(1105,566,o),
(1105,566,q)
);
}
);
width = 1350;
},
{
anchors = (
{
name = b.uni0327;
position = "{205, 0}";
},
{
name = b.uni0328;
position = "{725, 0}";
},
{
name = t.uni0302;
position = "{952, 1432}";
}
);
layerId = "817588ED-5808-41C3-839F-29DF09BEEDB0";
shapes = (
{
closed = 1;
nodes = (
(8,0,l),
(8,0,o),
(8,0,o),
(8,0,q),
(413,1432,l),
(413,1432,o),
(413,1432,o),
(413,1432,q),
(1391,1432,l),
(1391,1432,o),
(1391,1432,o),
(1391,1432,q),
(1284,1048,l),
(1284,1048,o),
(1284,1048,o),
(1284,1048,q),
(741,1048,l),
(552,384,l),
(1120,384,l),
(1120,384,o),
(1120,384,o),
(1120,384,q),
(1014,0,l),
(1014,0,o),
(1014,0,o),
(1014,0,q)
);
},
{
closed = 1;
nodes = (
(445,565,l),
(539,902,l),
(1132,902,l),
(1132,902,o),
(1132,902,o),
(1132,902,q),
(1038,565,l),
(1038,565,o),
(1038,565,o),
(1038,565,q)
);
}
);
width = 1270;
},
{
anchors = (
{
name = b.uni0327;
position = "{-159, 0}";
},
{
name = b.uni0328;
position = "{321, 0}";
},
{
name = t.uni0302;
position = "{1347, 1432}";
}
);
layerId = "EDA62EAC-6B85-401B-87A5-B3BF46271524";
shapes = (
{
closed = 1;
nodes = (
(33,0,l),
(33,0,o),
(33,0,o),
(33,0,q),
(437,1432,l),
(437,1432,o),
(437,1432,o),
(437,1432,q),
(1223,1432,l),
(1223,1432,o),
(1223,1432,o),
(1223,1432,q),
(1174,1253,l),
(1174,1253,o),
(1174,1253,o),
(1174,1253,q),
(581,1253,l),
(277,179,l),
(890,179,l),
(890,179,o),
(890,179,o),
(890,179,q),
(844,0,l),
(844,0,o),
(844,0,o),
(844,0,q)
);
},
{
closed = 1;
nodes = (
(335,654,l),
(385,832,l),
(945,832,l),
(945,832,o),
(945,832,o),
(945,832,q),
(895,654,l),
(895,654,o),
(895,654,o),
(895,654,q)
);
}
);
width = 1082;
},
{
anchors = (
{
name = b.uni0327;
position = "{-581, 0}";
},
{
name = b.uni0328;
position = "{-222, 0}";
},
{
name = t.uni0302;
position = "{1710, 1432}";
}
);
layerId = "39C1B3C2-F87B-41E1-BD8E-10B05E3B9737";
shapes = (
{
closed = 1;
nodes = (
(55,0,l),
(55,0,o),
(55,0,o),
(55,0,q),
(461,1432,l),
(461,1432,o),
(461,1432,o),
(461,1432,q),
(1156,1432,l),
(1156,1432,o),
(1156,1432,o),
(1156,1432,q),
(1139,1371,l),
(1139,1371,o),
(1139,1371,o),
(1139,1371,q),
(511,1371,l),
(141,61,l),
(786,61,l),
(786,61,o),
(786,61,o),
(786,61,q),
(770,0,l),
(770,0,o),
(770,0,o),
(770,0,q)
);
},
{
closed = 1;
nodes = (
(299,721,l),
(316,783,l),
(845,783,l),
(845,783,o),
(845,783,o),
(845,783,q),
(829,721,l),
(829,721,o),
(829,721,o),
(829,721,q)
);
}
);
width = 1017;
}
);
leftKerningGroup = public.kern2.B;
rightKerningGroup = public.kern1.E;
unicode = 69;
},
{
glyphname = F;
layers = (
{
anchors = (
{
name = b.uni0327;
position = "{-242, 0}";
},
{
name = t.uni0302;
position = "{1675, 1432}";
}
);
layerId = "273C7328-CB47-413D-AC7C-0BE6F8E8A458";
shapes = (
{
closed = 1;
nodes = (
(67,0,l),
(67,0,o),
(67,0,o),
(67,0,q),
(471,1432,l),
(471,1432,o),
(471,1432,o),
(471,1432,q),
(1214,1432,l),
(1214,1432,o),
(1214,1432,o),
(1214,1432,q),
(1198,1368,l),
(1198,1368,o),
(1198,1368,o),
(1198,1368,q),
(521,1368,l),
(135,0,l),
(135,0,o),
(135,0,o),
(135,0,q)
);
},
{
closed = 1;
nodes = (
(301,715,l),
(320,780,l),
(944,780,l),
(944,780,o),
(944,780,o),
(944,780,q),
(926,715,l),
(926,715,o),
(926,715,o),
(926,715,q)
);
}
);
width = 1077;
},
{
anchors = (
{
name = b.uni0327;
position = "{125, 0}";
},
{
name = t.uni0302;
position = "{1257, 1432}";
}
);
layerId = "A94F09BD-5AF2-4283-88E8-66664EC1ECC6";
shapes = (
{
closed = 1;
nodes = (
(51,0,l),
(51,0,o),
(51,0,o),
(51,0,q),
(454,1432,l),
(454,1432,o),
(454,1432,o),
(454,1432,q),
(1290,1432,l),
(1290,1432,o),
(1290,1432,o),
(1290,1432,q),
(1239,1248,l),
(1239,1248,o),
(1239,1248,o),
(1239,1248,q),
(602,1248,l),
(250,0,l),
(250,0,o),
(250,0,o),
(250,0,q)
);
},
{
closed = 1;
nodes = (
(340,632,l),
(393,815,l),
(1047,815,l),
(1047,815,o),
(1047,815,o),
(1047,815,q),
(996,632,l),
(996,632,o),
(996,632,o),
(996,632,q)
);
}
);
width = 1138;
},
{
anchors = (
{
name = b.uni0327;
position = "{346, 0}";
},
{
name = t.uni0302;
position = "{716, 1432}";
}
);
layerId = "44639B77-8764-4A8F-BB1F-F8171CA5D8DC";
shapes = (
{
closed = 1;
nodes = (
(24,0,l),
(24,0,o),
(24,0,o),
(24,0,q),
(427,1432,l),
(427,1432,o),
(427,1432,o),
(427,1432,q),
(1416,1432,l),
(1416,1432,o),
(1416,1432,o),
(1416,1432,q),
(1304,1032,l),
(1304,1032,o),
(1304,1032,o),
(1304,1032,q),
(755,1032,l),
(464,0,l),
(464,0,o),
(464,0,o),
(464,0,q)
);
},
{
closed = 1;
nodes = (
(427,494,l),
(528,852,l),
(1182,852,l),
(1182,852,o),
(1182,852,o),
(1182,852,q),
(1081,494,l),
(1081,494,o),
(1081,494,o),
(1081,494,q)
);
}
);
width = 1255;
},
{
anchors = (
{
name = b.uni0327;
position = "{276, 0}";
},
{
name = t.uni0302;
position = "{1002, 1432}";
}
);
layerId = "817588ED-5808-41C3-839F-29DF09BEEDB0";
shapes = (
{
closed = 1;
nodes = (
(10,0,l),
(10,0,o),
(10,0,o),
(10,0,q),
(413,1432,l),
(413,1432,o),
(413,1432,o),
(413,1432,q),
(1334,1432,l),
(1334,1432,o),
(1334,1432,o),
(1334,1432,q),
(1223,1039,l),
(1223,1039,o),
(1223,1039,o),
(1223,1039,q),
(734,1039,l),
(442,0,l),
(442,0,o),
(442,0,o),
(442,0,q)
);
},
{
closed = 1;
nodes = (
(407,503,l),
(506,856,l),
(1101,856,l),
(1101,856,o),
(1101,856,o),
(1101,856,q),
(1002,503,l),
(1002,503,o),
(1002,503,o),
(1002,503,q)
);
}
);
width = 1164;
},
{
anchors = (
{
name = b.uni0327;
position = "{-44, 0}";
},
{
name = t.uni0302;
position = "{1444, 1432}";
}
);
layerId = "EDA62EAC-6B85-401B-87A5-B3BF46271524";
shapes = (
{
closed = 1;
nodes = (
(34,0,l),
(34,0,o),
(34,0,o),
(34,0,q),
(437,1432,l),
(437,1432,o),
(437,1432,o),
(437,1432,q),
(1177,1432,l),
(1177,1432,o),
(1177,1432,o),
(1177,1432,q),
(1128,1252,l),
(1128,1252,o),
(1128,1252,o),
(1128,1252,q),
(581,1252,l),
(227,0,l),
(227,0,o),
(227,0,o),
(227,0,q)
);
},
{
closed = 1;
nodes = (
(324,643,l),
(375,821,l),
(930,821,l),
(930,821,o),
(930,821,o),
(930,821,q),
(880,643,l),
(880,643,o),
(880,643,o),
(880,643,q)
);
}
);
width = 997;
},
{
anchors = (
{
name = b.uni0327;
position = "{-450, 0}";
},
{
name = t.uni0302;
position = "{1842, 1432}";
}
);
layerId = "39C1B3C2-F87B-41E1-BD8E-10B05E3B9737";
shapes = (
{
closed = 1;
nodes = (
(56,0,l),
(56,0,o),
(56,0,o),
(56,0,q),
(460,1432,l),
(460,1432,o),
(460,1432,o),
(460,1432,q),
(1102,1432,l),
(1102,1432,o),
(1102,1432,o),
(1102,1432,q),
(1086,1370,l),
(1086,1370,o),
(1086,1370,o),
(1086,1370,q),
(509,1370,l),
(123,0,l),
(123,0,o),
(123,0,o),
(123,0,q)
);
},
{
closed = 1;
nodes = (
(294,723,l),
(313,785,l),
(837,785,l),
(837,785,o),
(837,785,o),
(837,785,q),
(820,723,l),
(820,723,o),
(820,723,o),
(820,723,q)
);
}
);
width = 936;
}
);
leftKerningGroup = public.kern2.B;
unicode = 70;
},
{
glyphname = G;
layers = (
{
anchors = (
{
name = b.uni0327;
position = "{-469, 0}";
},
{
name = t.uni0302;
position = "{1156, 1432}";
}
);
layerId = "273C7328-CB47-413D-AC7C-0BE6F8E8A458";
shapes = (
{
closed = 1;
nodes = (
(405,-30,o),
(110,410,o),
(206,755,q),
(206,755,l),
(299,1085,o),
(769,1462,o),
(1079,1462,qs),
(1167,1462,o),
(1343,1420,o),
(1487,1319,o),
(1567,1211,o),
(1567,1211,o),
(1567,1211,q),
(1509,1173,l),
(1509,1173,o),
(1509,1173,o),
(1443,1265,o),
(1324,1352,o),
(1168,1400,o),
(1075,1400,qs),
(796,1400,o),
(363,1049,o),
(277,745,q),
(277,745,l),
(187,421,o),
(450,32,o),
(717,32,qs),
(974,32,o),
(1379,357,o),
(1458,635,q),
(1461,651,l),
(910,651,l),
(910,651,o),
(910,651,o),
(910,651,q),
(924,714,l),
(924,714,o),
(924,714,o),
(924,714,q),
(1541,714,l),
(1541,714,o),
(1540,714,o),
(1541,714,q),
(1521,612,l),
(1441,322,o),
(1013,-29,o),
(707,-29,q)
);
}
);
width = 1613;
},
{
anchors = (
{
name = b.uni0327;
position = "{-86, 0}";
},
{
name = t.uni0302;
position = "{792, 1432}";
}
);
layerId = "A94F09BD-5AF2-4283-88E8-66664EC1ECC6";
shapes = (
{
closed = 1;
nodes = (
(423,-36,o),
(82,424,o),
(178,777,q),
(178,777,l),
(270,1096,o),
(764,1467,o),
(1081,1467,qs),
(1200,1467,o),
(1389,1416,o),
(1540,1322,o),
(1629,1240,o),
(1629,1240,o),
(1629,1240,q),
(1473,1104,l),
(1473,1104,o),
(1473,1104,o),
(1405,1168,o),
(1288,1240,o),
(1159,1281,o),
(1060,1281,qs),
(842,1281,o),
(459,985,o),
(387,736,q),
(387,736,l),
(317,481,o),
(548,151,o),
(774,151,qs),
(992,151,o),
(1332,390,o),
(1403,595,q),
(1403,595,l),
(922,595,l),
(922,595,o),
(922,595,o),
(922,595,q),
(973,779,l),
(973,779,o),
(973,779,o),
(973,779,q),
(1663,779,l),
(1663,779,o),
(1663,779,o),
(1663,779,q),
(1617,611,ls),
(1531,310,o),
(1062,-34,o),
(757,-34,q)
);
}
);
width = 1678;
},
{
anchors = (
{
name = b.uni0327;
position = "{242, 0}";
},
{
name = t.uni0302;
position = "{417, 1432}";
}
);
layerId = "44639B77-8764-4A8F-BB1F-F8171CA5D8DC";
shapes = (
{
closed = 1;
nodes = (
(396,-38,o),
(44,422,o),
(140,764,q),
(140,764,l),
(236,1090,o),
(726,1470,o),
(1046,1470,qs),
(1168,1470,o),
(1355,1422,o),
(1525,1330,o),
(1627,1247,o),
(1627,1247,o),
(1627,1247,q),
(1285,968,l),
(1285,968,o),
(1285,968,o),
(1232,1009,o),
(1157,1046,o),
(1070,1068,o),
(1008,1068,qs),
(863,1068,o),
(628,879,o),
(581,717,q),
(581,717,l),
(536,556,o),
(671,356,o),
(815,356,qs),
(944,356,o),
(1125,465,o),
(1164,532,q),
(1163,532,l),
(851,532,l),
(851,532,o),
(851,532,o),
(851,532,q),
(941,862,l),
(941,862,o),
(941,862,o),
(941,862,q),
(1686,862,l),
(1686,862,o),
(1686,862,o),
(1686,862,q),
(1630,630,l),
(1539,304,o),
(1084,-37,o),
(778,-37,q)
);
}
);
width = 1675;
},
{
anchors = (
{
name = b.uni0327;
position = "{42, 0}";
},
{
name = t.uni0302;
position = "{539, 1432}";
}
);
layerId = "817588ED-5808-41C3-839F-29DF09BEEDB0";
shapes = (
{
closed = 1;
nodes = (
(338,-35,o),
(38,406,o),
(138,765,q),
(138,764,l),
(239,1108,o),
(672,1467,o),
(969,1467,qs),
(1099,1467,o),
(1290,1399,o),
(1435,1274,o),
(1504,1169,o),
(1504,1169,o),
(1504,1169,q),
(1142,950,l),
(1142,950,o),
(1142,950,o),
(1108,999,o),
(1055,1046,o),
(984,1074,o),
(930,1074,qs),
(812,1074,o),
(626,902,o),
(579,743,qs),
(563,688,l),
(518,522,o),
(619,350,o),
(734,350,qs),
(841,350,o),
(991,455,o),
(1023,524,q),
(1024,528,l),
(779,528,l),
(779,528,o),
(779,528,o),
(779,528,q),
(865,849,l),
(865,849,o),
(865,849,o),
(865,849,q),
(1530,849,l),
(1530,849,o),
(1532,849,o),
(1530,849,q),
(1466,598,ls),
(1380,281,o),
(968,-34,o),
(685,-34,q)
);
}
);
width = 1523;
},
{
anchors = (
{
name = b.uni0327;
position = "{-340, 0}";
},
{
name = t.uni0302;
position = "{917, 1432}";
}
);
layerId = "EDA62EAC-6B85-401B-87A5-B3BF46271524";
shapes = (
{
closed = 1;
nodes = (
(340,-32,o),
(65,379,o),
(156,716,q),
(185,819,ls),
(274,1133,o),
(684,1463,o),
(954,1463,qs),
(1064,1463,o),
(1233,1398,o),
(1353,1290,o),
(1414,1188,o),
(1414,1188,o),
(1414,1188,q),
(1250,1080,l),
(1250,1080,o),
(1250,1080,o),
(1205,1162,o),
(1119,1239,o),
(1015,1283,o),
(935,1283,qs),
(760,1283,o),
(455,1021,o),
(387,783,qs),
(356,677,l),
(291,436,o),
(460,149,o),
(642,149,qs),
(817,149,o),
(1088,355,o),
(1149,541,q),
(1162,590,l),
(778,590,l),
(778,590,o),
(778,590,o),
(778,590,q),
(828,768,l),
(828,768,o),
(828,768,o),
(828,768,q),
(1411,768,l),
(1411,768,o),
(1412,768,o),
(1411,768,q),
(1351,550,l),
(1270,264,o),
(885,-30,o),
(624,-30,q)
);
}
);
width = 1429;
},
{
anchors = (
{
name = b.uni0327;
position = "{-726, 0}";
},
{
name = t.uni0302;
position = "{1268, 1432}";
}
);
layerId = "39C1B3C2-F87B-41E1-BD8E-10B05E3B9737";
shapes = (
{
closed = 1;
nodes = (
(331,-26,o),
(96,363,o),
(187,695,qs),
(218,806,ls),
(309,1128,o),
(695,1458,o),
(952,1458,qs),
(1032,1458,o),
(1183,1411,o),
(1294,1303,o),
(1352,1186,o),
(1352,1186,o),
(1352,1186,q),
(1291,1155,l),
(1291,1155,o),
(1291,1155,o),
(1244,1260,o),
(1154,1350,o),
(1026,1397,o),
(947,1397,qs),
(722,1397,o),
(371,1088,o),
(288,798,qs),
(257,685,ls),
(173,381,o),
(372,34,o),
(592,34,qs),
(803,34,o),
(1129,319,o),
(1204,577,q),
(1221,649,l),
(778,649,l),
(778,649,o),
(778,649,o),
(778,649,q),
(793,711,l),
(793,711,o),
(793,711,o),
(793,711,q),
(1302,711,l),
(1302,711,o),
(1303,711,o),
(1302,711,q),
(1267,564,l),
(1188,283,o),
(838,-25,o),
(583,-25,q)
);
}
);
width = 1373;
}
);
leftKerningGroup = public.kern2.C2;
rightKerningGroup = public.kern1.G;
unicode = 71;
},
{
glyphname = H;
layers = (
{
anchors = (
{
name = b.uni0327;
position = "{163, 0}";
},
{
name = t.uni0335;
position = "{1123, 1178}";
},
{
name = t.uni0302;
position = "{1373, 1432}";
}
);
layerId = "273C7328-CB47-413D-AC7C-0BE6F8E8A458";
shapes = (
{
closed = 1;
nodes = (
(1029,0,l),
(1029,0,o),
(1029,0,o),
(1029,0,q),
(1432,1432,l),
(1432,1432,o),
(1432,1432,o),
(1432,1432,q),
(1498,1432,l),
(1498,1432,o),
(1498,1432,o),
(1498,1432,q),
(1097,0,l),
(1097,0,o),
(1097,0,o),
(1097,0,q)
);
},
{
closed = 1;
nodes = (
(69,0,l),
(69,0,o),
(69,0,o),
(69,0,q),
(471,1432,l),
(471,1432,o),
(471,1432,o),
(471,1432,q),
(540,1432,l),
(540,1432,o),
(540,1432,o),
(540,1432,q),
(135,0,l),
(135,0,o),
(135,0,o),
(135,0,q)
);
},
{
closed = 1;
nodes = (
(307,702,l),
(325,766,l),
(1285,766,l),
(1268,702,l)
);
}
);
width = 1455;
},
{
anchors = (
{
name = b.uni0327;
position = "{293, 0}";
},
{
name = t.uni0335;
position = "{938, 1196}";
},
{
name = t.uni0302;
position = "{1098, 1432}";
}
);
layerId = "A94F09BD-5AF2-4283-88E8-66664EC1ECC6";
shapes = (
{
closed = 1;
nodes = (
(982,0,l),
(982,0,o),
(982,0,o),
(982,0,q),
(1385,1432,l),
(1385,1432,o),
(1385,1432,o),
(1385,1432,q),
(1584,1432,l),
(1584,1432,o),
(1584,1432,o),
(1584,1432,q),
(1183,0,l),
(1183,0,o),
(1183,0,o),
(1183,0,q)
);
},
{
closed = 1;
nodes = (
(53,0,l),
(53,0,o),
(53,0,o),
(53,0,q),
(454,1432,l),
(454,1432,o),
(454,1432,o),
(454,1432,q),
(655,1432,l),
(655,1432,o),
(655,1432,o),
(655,1432,q),
(252,0,l),
(252,0,o),
(252,0,o),
(252,0,q)
);
},
{
closed = 1;
nodes = (
(353,641,l),
(406,825,l),
(1311,825,l),
(1258,641,l)
);
}
);
width = 1532;
},
{
anchors = (
{
name = b.uni0327;
position = "{453, 0}";
},
{
name = t.uni0335;
position = "{779, 1220}";
},
{
name = t.uni0302;
position = "{853, 1432}";
}
);
layerId = "44639B77-8764-4A8F-BB1F-F8171CA5D8DC";
shapes = (
{
closed = 1;
nodes = (
(919,0,l),
(919,0,o),
(919,0,o),
(919,0,q),
(1322,1432,l),
(1322,1432,o),
(1322,1432,o),
(1322,1432,q),
(1764,1432,l),
(1764,1432,o),
(1764,1432,o),
(1764,1432,q),
(1361,0,l),
(1361,0,o),
(1361,0,o),
(1361,0,q)
);
},
{
closed = 1;
nodes = (
(24,0,l),
(24,0,o),
(24,0,o),
(24,0,q),
(427,1432,l),
(427,1432,o),
(427,1432,o),
(427,1432,q),
(869,1432,l),
(869,1432,o),
(869,1432,o),
(869,1432,q),
(466,0,l),
(466,0,o),
(466,0,o),
(466,0,q)
);
},
{
closed = 1;
nodes = (
(433,528,l),
(546,928,l),
(1379,928,l),
(1266,528,l)
);
}
);
width = 1683;
},
{
anchors = (
{
name = b.uni0327;
position = "{-665, 0}";
},
{
name = t.uni0335;
position = "{1250, 1176}";
},
{
name = t.uni0302;
position = "{1754, 1432}";
}
);
layerId = "817588ED-5808-41C3-839F-29DF09BEEDB0";
shapes = (
{
closed = 1;
nodes = (
(821,0,l),
(821,0,o),
(821,0,o),
(821,0,q),
(1224,1432,l),
(1224,1432,o),
(1224,1432,o),
(1224,1432,q),
(1658,1432,l),
(1658,1432,o),
(1658,1432,o),
(1658,1432,q),
(1255,0,l),
(1255,0,o),
(1255,0,o),
(1255,0,q)
);
},
{
closed = 1;
nodes = (
(10,0,l),
(10,0,o),
(10,0,o),
(10,0,q),
(413,1432,l),
(413,1432,o),
(413,1432,o),
(413,1432,q),
(846,1432,l),
(846,1432,o),
(846,1432,o),
(846,1432,q),
(443,0,l),
(443,0,o),
(443,0,o),
(443,0,q)
);
},
{
closed = 1;
nodes = (
(415,532,l),
(528,924,l),
(1281,924,l),
(1168,532,l)
);
}
);
width = 1562;
},
{
anchors = (
{
name = b.uni0327;
position = "{-490, 0}";
},
{
name = t.uni0335;
position = "{1096, 1115}";
},
{
name = t.uni0302;
position = "{1526, 1432}";
}
);
layerId = "EDA62EAC-6B85-401B-87A5-B3BF46271524";
shapes = (
{
closed = 1;
nodes = (
(825,0,l),
(825,0,o),
(825,0,o),
(825,0,q),
(1228,1432,l),
(1228,1432,o),
(1228,1432,o),
(1228,1432,q),
(1422,1432,l),
(1422,1432,o),
(1422,1432,o),
(1422,1432,q),
(1021,0,l),
(1021,0,o),
(1021,0,o),
(1021,0,q)
);
},
{
closed = 1;
nodes = (
(36,0,l),
(36,0,o),
(36,0,o),
(36,0,q),
(437,1432,l),
(437,1432,o),
(437,1432,o),
(437,1432,q),
(632,1432,l),
(632,1432,o),
(632,1432,o),
(632,1432,q),
(229,0,l),
(229,0,o),
(229,0,o),
(229,0,q)
);
},
{
closed = 1;
nodes = (
(334,644,l),
(387,823,l),
(1151,823,l),
(1098,644,l)
);
}
);
width = 1352;
},
{
anchors = (
{
name = b.uni0327;
position = "{-105, 0}";
},
{
name = t.uni0335;
position = "{1167, 1152}";
},
{
name = t.uni0302;
position = "{1509, 1432}";
}
);
layerId = "39C1B3C2-F87B-41E1-BD8E-10B05E3B9737";
shapes = (
{
closed = 1;
nodes = (
(870,0,l),
(870,0,o),
(870,0,o),
(870,0,q),
(1273,1432,l),
(1273,1432,o),
(1273,1432,o),
(1273,1432,q),
(1338,1432,l),
(1338,1432,o),
(1338,1432,o),
(1338,1432,q),
(937,0,l),
(937,0,o),
(937,0,o),
(937,0,q)
);
},
{
closed = 1;
nodes = (
(58,0,l),
(58,0,o),
(58,0,o),
(58,0,q),
(460,1432,l),
(460,1432,o),
(460,1432,o),
(460,1432,q),
(528,1432,l),
(528,1432,o),
(528,1432,o),
(528,1432,q),
(123,0,l),
(123,0,o),
(123,0,o),
(123,0,q)
);
},
{
closed = 1;
nodes = (
(292,703,l),
(311,765,l),
(1124,765,l),
(1105,703,l)
);
}
);
width = 1283;
}
);
leftKerningGroup = public.kern2.B;
rightKerningGroup = public.kern1.H;
unicode = 72;
},
{
glyphname = I;
layers = (
{
anchors = (
{
name = b.uni0327;
position = "{-64, 0}";
},
{
name = b.uni0328;
position = "{180, 0}";
},
{
name = t.uni0302;
position = "{1145, 1432}";
}
);
layerId = "273C7328-CB47-413D-AC7C-0BE6F8E8A458";
shapes = (
{
closed = 1;
nodes = (
(67,0,l),
(67,0,o),
(67,0,o),
(67,0,q),
(471,1432,l),
(471,1432,o),
(471,1432,o),
(471,1432,q),
(539,1432,l),
(539,1432,o),
(539,1432,o),
(539,1432,q),
(135,0,l),
(135,0,o),
(135,0,o),
(135,0,q)
);
}
);
width = 494;
},
{
anchors = (
{
name = b.uni0327;
position = "{117, 0}";
},
{
name = b.uni0328;
position = "{429, 0}";
},
{
name = t.uni0302;
position = "{927, 1432}";
}
);
layerId = "A94F09BD-5AF2-4283-88E8-66664EC1ECC6";
shapes = (
{
closed = 1;
nodes = (
(51,0,l),
(51,0,o),
(51,0,o),
(51,0,q),
(454,1432,l),
(454,1432,o),
(454,1432,o),
(454,1432,q),
(655,1432,l),
(655,1432,o),
(655,1432,o),
(655,1432,q),
(252,0,l),
(252,0,o),
(252,0,o),
(252,0,q)
);
}
);
width = 601;
},
{
anchors = (
{
name = b.uni0327;
position = "{310, 0}";
},
{
name = b.uni0328;
position = "{692, 0}";
},
{
name = t.uni0302;
position = "{718, 1432}";
}
);
layerId = "44639B77-8764-4A8F-BB1F-F8171CA5D8DC";
shapes = (
{
closed = 1;
nodes = (
(24,0,l),
(24,0,o),
(24,0,o),
(24,0,q),
(427,1432,l),
(427,1432,o),
(427,1432,o),
(427,1432,q),
(871,1432,l),
(871,1432,o),
(871,1432,o),
(871,1432,q),
(470,0,l),
(470,0,o),
(470,0,o),
(470,0,q)
);
}
);
width = 793;
},
{
anchors = (
{
name = b.uni0327;
position = "{-554, 0}";
},
{
name = b.uni0328;
position = "{-280, 0}";
},
{
name = t.uni0302;
position = "{1856, 1432}";
}
);
layerId = "817588ED-5808-41C3-839F-29DF09BEEDB0";
shapes = (
{
closed = 1;
nodes = (
(10,0,l),
(10,0,o),
(10,0,o),
(10,0,q),
(413,1432,l),
(413,1432,o),
(413,1432,o),
(413,1432,q),
(847,1432,l),
(847,1432,o),
(847,1432,o),
(847,1432,q),
(446,0,l),
(446,0,o),
(446,0,o),
(446,0,q)
);
}
);
width = 755;
},
{
anchors = (
{
name = b.uni0327;
position = "{-523, 0}";
},
{
name = b.uni0328;
position = "{-426, 0}";
},
{
name = t.uni0302;
position = "{1495, 1432}";
}
);
layerId = "EDA62EAC-6B85-401B-87A5-B3BF46271524";
shapes = (
{
closed = 1;
nodes = (
(34,0,l),
(34,0,o),
(34,0,o),
(34,0,q),
(437,1432,l),
(437,1432,o),
(437,1432,o),
(437,1432,q),
(632,1432,l),
(632,1432,o),
(632,1432,o),
(632,1432,q),
(229,0,l),
(229,0,o),
(229,0,o),
(229,0,q)
);
}
);
width = 561;
},
{
anchors = (
{
name = b.uni0327;
position = "{-270, 0}";
},
{
name = b.uni0328;
position = "{-94, 0}";
},
{
name = t.uni0302;
position = "{1340, 1432}";
}
);
layerId = "39C1B3C2-F87B-41E1-BD8E-10B05E3B9737";
shapes = (
{
closed = 1;
nodes = (
(56,0,l),
(56,0,o),
(56,0,o),
(56,0,q),
(460,1432,l),
(460,1432,o),
(460,1432,o),
(460,1432,q),
(528,1432,l),
(528,1432,o),
(528,1432,o),
(528,1432,q),
(123,0,l),
(123,0,o),
(123,0,o),
(123,0,q)
);
}
);
width = 471;
}
);
leftKerningGroup = public.kern2.B;
rightKerningGroup = public.kern1.H;
unicode = 73;
},
{
glyphname = J;
layers = (
{
anchors = (
{
name = b.uni0327;
position = "{-176, 0}";
},
{
name = t.uni0302;
position = "{1800, 1432}";
}
);
layerId = "273C7328-CB47-413D-AC7C-0BE6F8E8A458";
shapes = (
{
closed = 1;
nodes = (
(251,-30,o),
(113,49,o),
(33,161,o),
(4,250,o),
(4,250,o),
(4,250,q),
(64,276,l),
(64,276,o),
(64,276,o),
(93,195,o),
(145,104,o),
(268,31,o),
(365,31,qs),
(510,31,o),
(726,215,o),
(784,421,qs),
(1070,1432,l),
(1070,1432,o),
(1070,1432,o),
(1070,1432,q),
(1138,1432,l),
(1138,1432,o),
(1138,1432,o),
(1138,1432,q),
(850,411,ls),
(788,181,o),
(539,-30,o),
(356,-30,qs)
);
}
);
width = 1079;
},
{
anchors = (
{
name = b.uni0327;
position = "{161, 0}";
},
{
name = t.uni0302;
position = "{1354, 1432}";
}
);
layerId = "A94F09BD-5AF2-4283-88E8-66664EC1ECC6";
shapes = (
{
closed = 1;
nodes = (
(263,-33,o),
(104,41,o),
(12,159,o),
(-25,243,o),
(-25,243,o),
(-25,243,q),
(149,341,l),
(149,341,o),
(149,341,o),
(171,286,o),
(222,202,o),
(310,149,o),
(375,149,qs),
(482,149,o),
(655,288,o),
(698,447,qs),
(977,1432,l),
(977,1432,o),
(977,1432,o),
(977,1432,q),
(1177,1432,l),
(1177,1432,o),
(1177,1432,o),
(1177,1432,q),
(893,416,ls),
(829,186,o),
(560,-33,o),
(364,-33,qs)
);
}
);
width = 1101;
},
{
anchors = (
{
name = b.uni0327;
position = "{413, 0}";
},
{
name = t.uni0302;
position = "{861, 1432}";
}
);
layerId = "44639B77-8764-4A8F-BB1F-F8171CA5D8DC";
shapes = (
{
closed = 1;
nodes = (
(277,-38,o),
(94,56,o),
(-7,183,o),
(-53,279,o),
(-53,279,o),
(-53,279,q),
(313,464,l),
(313,464,o),
(313,464,o),
(328,425,o),
(354,387,o),
(406,357,o),
(442,357,qs),
(506,357,o),
(599,437,o),
(623,524,qs),
(879,1432,l),
(879,1432,o),
(879,1432,o),
(879,1432,q),
(1322,1432,l),
(1322,1432,o),
(1322,1432,o),
(1322,1432,q),
(1050,469,ls),
(978,209,o),
(644,-38,o),
(407,-38,qs)
);
}
);
width = 1223;
},
{
anchors = (
{
name = b.uni0327;
position = "{311, 0}";
},
{
name = t.uni0302;
position = "{1100, 1432}";
}
);
layerId = "817588ED-5808-41C3-839F-29DF09BEEDB0";
shapes = (
{
closed = 1;
nodes = (
(267,-36,o),
(78,68,o),
(-11,212,o),
(-42,314,o),
(-42,314,o),
(-42,314,q),
(329,472,l),
(329,472,o),
(329,472,o),
(336,430,o),
(357,390,o),
(404,358,o),
(432,358,qs),
(487,358,o),
(568,429,o),
(589,506,qs),
(850,1432,l),
(850,1432,o),
(850,1432,o),
(850,1432,q),
(1284,1432,l),
(1284,1432,o),
(1284,1432,o),
(1284,1432,q),
(1006,438,ls),
(939,193,o),
(634,-36,o),
(404,-36,qs)
);
}
);
width = 1173;
},
{
anchors = (
{
name = b.uni0327;
position = "{-41, 0}";
},
{
name = t.uni0302;
position = "{1514, 1432}";
}
);
layerId = "EDA62EAC-6B85-401B-87A5-B3BF46271524";
shapes = (
{
closed = 1;
nodes = (
(210,-30,o),
(63,48,o),
(-11,165,o),
(-33,270,o),
(-33,270,o),
(-33,270,q),
(143,349,l),
(143,349,o),
(143,349,o),
(153,284,o),
(189,202,o),
(265,148,o),
(321,148,qs),
(412,148,o),
(556,266,o),
(593,405,q),
(883,1432,l),
(883,1432,o),
(883,1432,o),
(883,1432,q),
(1078,1432,l),
(1078,1432,o),
(1078,1432,o),
(1078,1432,q),
(782,375,l),
(725,165,o),
(488,-30,o),
(309,-30,qs)
);
}
);
width = 988;
},
{
anchors = (
{
name = b.uni0327;
position = "{-378, 0}";
},
{
name = t.uni0302;
position = "{1965, 1432}";
}
);
layerId = "39C1B3C2-F87B-41E1-BD8E-10B05E3B9737";
shapes = (
{
closed = 1;
nodes = (
(198,-26,o),
(76,50,o),
(13,161,o),
(-4,260,o),
(-4,260,o),
(-4,260,q),
(58,282,l),
(58,282,o),
(58,282,o),
(74,193,o),
(114,101,o),
(219,35,o),
(298,35,qs),
(419,35,o),
(601,194,o),
(651,377,qs),
(948,1432,l),
(948,1432,o),
(948,1432,o),
(948,1432,q),
(1015,1432,l),
(1015,1432,o),
(1015,1432,o),
(1015,1432,q),
(716,368,ls),
(660,157,o),
(449,-26,o),
(290,-26,qs)
);
}
);
width = 949;
}
);
rightKerningGroup = public.kern1.J;
unicode = 74;
},
{
glyphname = K;
layers = (
{
anchors = (
{
name = b.uni0327;
position = "{166, -21}";
},
{
name = t.uni0302;
position = "{1847, 1432}";
}
);
layerId = "273C7328-CB47-413D-AC7C-0BE6F8E8A458";
shapes = (
{
closed = 1;
nodes = (
(207,371,l),
(239,478,l),
(1296,1432,l),
(1296,1432,o),
(1296,1432,o),
(1296,1432,q),
(1392,1432,l),
(1392,1432,o),
(1392,1432,o),
(1392,1432,q),
(692,802,l)
);
},
{
closed = 1;
nodes = (
(67,0,l),
(67,0,o),
(67,0,o),
(67,0,q),
(471,1432,l),
(471,1432,o),
(471,1432,o),
(471,1432,q),
(540,1432,l),
(540,1432,o),
(540,1432,o),
(540,1432,q),
(137,0,l),
(137,0,o),
(137,0,o),
(137,0,q)
);
},
{
closed = 1;
nodes = (
(976,0,l),
(976,0,o),
(976,0,o),
(976,0,q),
(650,794,l),
(700,841,l),
(1051,0,l),
(1051,0,o),
(1051,0,o),
(1051,0,q)
);
}
);
width = 1269;
},
{
anchors = (
{
name = b.uni0327;
position = "{436, -21}";
},
{
name = t.uni0302;
position = "{1437, 1432}";
}
);
layerId = "A94F09BD-5AF2-4283-88E8-66664EC1ECC6";
shapes = (
{
closed = 1;
nodes = (
(240,322,l),
(334,641,l),
(1226,1432,l),
(1226,1432,o),
(1226,1432,o),
(1226,1432,q),
(1501,1432,l),
(1501,1432,o),
(1501,1432,o),
(1501,1432,q),
(718,749,l)
);
},
{
closed = 1;
nodes = (
(50,0,l),
(50,0,o),
(50,0,o),
(50,0,q),
(454,1432,l),
(454,1432,o),
(454,1432,o),
(454,1432,q),
(655,1432,l),
(655,1432,o),
(655,1432,o),
(655,1432,q),
(250,0,l),
(250,0,o),
(250,0,o),
(250,0,q)
);
},
{
closed = 1;
nodes = (
(925,0,l),
(925,0,o),
(925,0,o),
(925,0,q),
(612,753,l),
(760,898,l),
(1142,0,l),
(1142,0,o),
(1142,0,o),
(1142,0,q)
);
}
);
width = 1334;
},
{
anchors = (
{
name = b.uni0327;
position = "{584, -13}";
},
{
name = t.uni0302;
position = "{887, 1432}";
}
);
layerId = "44639B77-8764-4A8F-BB1F-F8171CA5D8DC";
shapes = (
{
closed = 1;
nodes = (
(368,232,l),
(511,799,l),
(1220,1432,l),
(1220,1432,o),
(1220,1432,o),
(1220,1432,q),
(1757,1432,l),
(1757,1432,o),
(1757,1432,o),
(1757,1432,q),
(865,663,l)
);
},
{
closed = 1;
nodes = (
(24,0,l),
(24,0,o),
(24,0,o),
(24,0,q),
(427,1432,l),
(427,1432,o),
(427,1432,o),
(427,1432,q),
(869,1432,l),
(869,1432,o),
(869,1432,o),
(869,1432,q),
(466,0,l),
(466,0,o),
(466,0,o),
(466,0,q)
);
},
{
closed = 1;
nodes = (
(906,0,l),
(906,0,o),
(906,0,o),
(906,0,q),
(663,647,l),
(971,945,l),
(1372,0,l),
(1372,0,o),
(1372,0,o),
(1372,0,q)
);
}
);
width = 1544;
},
{
anchors = (
{
name = b.uni0327;
position = "{538, -21}";
},
{
name = t.uni0302;
position = "{1182, 1432}";
}
);
layerId = "817588ED-5808-41C3-839F-29DF09BEEDB0";
shapes = (
{
closed = 1;
nodes = (
(370,263,l),
(505,791,l),
(1152,1432,l),
(1152,1432,o),
(1152,1432,o),
(1152,1432,q),
(1655,1432,l),
(1655,1432,o),
(1655,1432,o),
(1655,1432,q),
(844,656,l)
);
},
{
closed = 1;
nodes = (
(10,0,l),
(10,0,o),
(10,0,o),
(10,0,q),
(413,1432,l),
(413,1432,o),
(413,1432,o),
(413,1432,q),
(846,1432,l),
(846,1432,o),
(846,1432,o),
(846,1432,q),
(441,0,l),
(441,0,o),
(441,0,o),
(441,0,q)
);
},
{
closed = 1;
nodes = (
(807,0,l),
(807,0,o),
(807,0,o),
(807,0,q),
(619,654,l),
(926,964,l),
(1264,0,l),
(1264,0,o),
(1264,0,o),
(1264,0,q)
);
}
);
width = 1438;
},
{
anchors = (
{
name = b.uni0327;
position = "{256, -21}";
},
{
name = t.uni0302;
position = "{1621, 1432}";
}
);
layerId = "EDA62EAC-6B85-401B-87A5-B3BF46271524";
shapes = (
{
closed = 1;
nodes = (
(221,320,l),
(315,649,l),
(1106,1432,l),
(1106,1432,o),
(1106,1432,o),
(1106,1432,q),
(1358,1432,l),
(1358,1432,o),
(1358,1432,o),
(1358,1432,q),
(656,753,l)
);
},
{
closed = 1;
nodes = (
(33,0,l),
(33,0,o),
(33,0,o),
(33,0,q),
(437,1432,l),
(437,1432,o),
(437,1432,o),
(437,1432,q),
(632,1432,l),
(632,1432,o),
(632,1432,o),
(632,1432,q),
(227,0,l),
(227,0,o),
(227,0,o),
(227,0,q)
);
},
{
closed = 1;
nodes = (
(780,0,l),
(780,0,o),
(780,0,o),
(780,0,q),
(555,753,l),
(704,914,l),
(986,0,l),
(986,0,o),
(986,0,o),
(986,0,q)
);
}
);
width = 1169;
},
{
anchors = (
{
name = b.uni0327;
position = "{-11, -21}";
},
{
name = t.uni0302;
position = "{1998, 1432}";
}
);
layerId = "39C1B3C2-F87B-41E1-BD8E-10B05E3B9737";
shapes = (
{
closed = 1;
nodes = (
(199,382,l),
(231,499,l),
(1155,1432,l),
(1155,1432,o),
(1155,1432,o),
(1155,1432,q),
(1246,1432,l),
(1246,1432,o),
(1246,1432,o),
(1246,1432,q),
(625,806,l)
);
},
{
closed = 1;
nodes = (
(56,0,l),
(56,0,o),
(56,0,o),
(56,0,q),
(460,1432,l),
(460,1432,o),
(460,1432,o),
(460,1432,q),
(528,1432,l),
(528,1432,o),
(528,1432,o),
(528,1432,q),
(125,0,l),
(125,0,o),
(125,0,o),
(125,0,q)
);
},
{
closed = 1;
nodes = (
(824,0,l),
(824,0,o),
(824,0,o),
(824,0,q),
(584,796,l),
(633,851,l),
(897,0,l),
(897,0,o),
(897,0,o),
(897,0,q)
);
}
);
width = 1106;
}
);
leftKerningGroup = public.kern2.B;
rightKerningGroup = public.kern1.K;
unicode = 75;
},
